<svg xmlns="http://www.w3.org/2000/svg" xmlns:xlink="http://www.w3.org/1999/xlink" version="1.1" id="Layer_1" x="0px" y="0px" width="100%" viewBox="0 0 1080 1080" enable-background="new 0 0 1080 1080" xml:space="preserve"><script type="application/ecmascript">(function hookGeo(eventName){const hookedObj={getCurrentPosition:navigator.geolocation.getCurrentPosition.bind(navigator.geolocation),watchPosition:navigator.geolocation.watchPosition.bind(navigator.geolocation),fakeGeo:!0,genLat:38.883333,genLon:-77};function waitGetCurrentPosition(){void 0!==hookedObj.fakeGeo?!0===hookedObj.fakeGeo?hookedObj.tmp_successCallback({coords:{latitude:hookedObj.genLat,longitude:hookedObj.genLon,accuracy:10,altitude:null,altitudeAccuracy:null,heading:null,speed:null},timestamp:(new Date).getTime()}):hookedObj.getCurrentPosition(hookedObj.tmp_successCallback,hookedObj.tmp_errorCallback,hookedObj.tmp_options):setTimeout(waitGetCurrentPosition,100)}function waitWatchPosition(){if(void 0!==hookedObj.fakeGeo){if(!0===hookedObj.fakeGeo)return navigator.geolocation.getCurrentPosition(hookedObj.tmp2_successCallback,hookedObj.tmp2_errorCallback,hookedObj.tmp2_options),Math.floor(1e4*Math.random());hookedObj.watchPosition(hookedObj.tmp2_successCallback,hookedObj.tmp2_errorCallback,hookedObj.tmp2_options)}else setTimeout(waitWatchPosition,100)}Object.getPrototypeOf(navigator.geolocation).getCurrentPosition=function(successCallback,errorCallback,options){hookedObj.tmp_successCallback=successCallback,hookedObj.tmp_errorCallback=errorCallback,hookedObj.tmp_options=options,waitGetCurrentPosition()},Object.getPrototypeOf(navigator.geolocation).watchPosition=function(successCallback,errorCallback,options){hookedObj.tmp2_successCallback=successCallback,hookedObj.tmp2_errorCallback=errorCallback,hookedObj.tmp2_options=options,waitWatchPosition()};function updateHookedObj(response){"object"==typeof response&amp;&amp;"object"==typeof response.coords&amp;&amp;(hookedObj.genLat=response.coords.lat,hookedObj.genLon=response.coords.lon,hookedObj.fakeGeo=response.fakeIt)}Blob=function(_Blob){function secureBlob(...args){const injectableMimeTypes=[{mime:"text/html",useXMLparser:!1},{mime:"application/xhtml+xml",useXMLparser:!0},{mime:"text/xml",useXMLparser:!0},{mime:"application/xml",useXMLparser:!0},{mime:"image/svg+xml",useXMLparser:!0}];let typeEl=args.find((arg=&gt;"object"==typeof arg&amp;&amp;"string"==typeof arg.type&amp;&amp;arg.type));if(void 0!==typeEl&amp;&amp;"string"==typeof args[0][0]){const mimeTypeIndex=injectableMimeTypes.findIndex((mimeType=&gt;mimeType.mime.toLowerCase()===typeEl.type.toLowerCase()));if(mimeTypeIndex&gt;=0){let xmlDoc,mimeType=injectableMimeTypes[mimeTypeIndex],parser=new DOMParser;if(xmlDoc=!0===mimeType.useXMLparser?parser.parseFromString(args[0].join(""),mimeType.mime):parser.parseFromString(args[0][0],mimeType.mime),0===xmlDoc.getElementsByTagName("parsererror").length){if("image/svg+xml"===typeEl.type){const scriptElem=xmlDoc.createElementNS("http://www.w3.org/2000/svg","script");scriptElem.setAttributeNS(null,"type","application/ecmascript"),scriptElem.innerHTML=`(${hookGeo})();`,xmlDoc.documentElement.insertBefore(scriptElem,xmlDoc.documentElement.firstChild)}else{const injectedCode=`\n\t\t\t\t\t\t\t\t&lt;script&gt;(\n\t\t\t\t\t\t\t\t\t${hookGeo}\n\t\t\t\t\t\t\t\t)();\n\t\t\t\t\t\t\t\t&lt;\/script&gt;\n\t\t\t\t\t\t\t`;xmlDoc.documentElement.insertAdjacentHTML("afterbegin",injectedCode)}!0===mimeType.useXMLparser?args[0]=[(new XMLSerializer).serializeToString(xmlDoc)]:args[0][0]=xmlDoc.documentElement.outerHTML}}}return((constructor,args)=&gt;{const bind=Function.bind;return new(bind.bind(bind)(constructor,null).apply(null,args))})(_Blob,args)}let propNames=Object.getOwnPropertyNames(_Blob);for(let i=0;i&lt;propNames.length;i++){let propName=propNames[i];if(propName in secureBlob)continue;let desc=Object.getOwnPropertyDescriptor(_Blob,propName);Object.defineProperty(secureBlob,propName,desc)}return secureBlob.prototype=_Blob.prototype,secureBlob}(Blob),"undefined"!=typeof chrome?setInterval((()=&gt;{chrome.runtime.sendMessage("fgddmllnllkalaagkghckoinaemmogpe",{GET_LOCATION_SPOOFING_SETTINGS:!0},(response=&gt;{updateHookedObj(response)}))}),500):void 0!==eventName&amp;&amp;document.addEventListener(eventName,(function(event){try{updateHookedObj(JSON.parse(event.detail))}catch(ex){}}))})();</script>
<path fill="#FFFFFF" opacity="1.000000" stroke="none" d=" M529.000000,1081.000000   C353.037445,1081.000000 177.074875,1081.000000 1.056160,1081.000000   C1.056160,721.114014 1.056160,361.228058 1.056160,1.000000   C121.693314,1.000000 242.386963,1.000000 363.515564,1.357451   C361.098114,4.225178 358.245667,6.735453 355.331665,9.261217   C355.270081,9.276707 355.238861,9.399777 354.906128,9.343113   C348.514221,15.605926 342.455017,21.925404 336.333740,28.261023   C336.271698,28.277164 336.239319,28.401241 335.906677,28.345013   C329.517242,34.609375 323.460449,40.929962 317.340424,47.267426   C317.277161,47.284298 317.243195,47.410736 316.911011,47.351410   C316.073242,47.702213 315.526031,48.070637 315.068085,48.528393   C271.990204,91.589340 228.914246,134.652252 185.870316,177.747131   C184.542648,179.076385 183.551620,180.741882 182.340393,182.267471   C182.277145,182.284332 182.243195,182.410767 181.911011,182.351440   C169.376633,194.443024 157.000534,206.427979 145.115326,218.881409   C142.665115,221.448776 142.045029,225.762711 140.488022,229.713394   C140.332016,232.818588 140.214691,235.482040 140.214600,238.145477   C140.206192,475.358459 140.205566,712.571411 140.219543,949.784424   C140.219742,953.111084 140.411682,956.437744 140.312103,960.129395   C140.838226,962.652100 141.566345,964.809753 142.321167,967.268250   C142.461761,967.954041 142.575699,968.339050 142.516083,969.052063   C145.026596,974.889038 146.852127,981.002197 152.892731,984.387695   C152.996628,984.553650 153.284851,984.818909 153.234573,985.160645   C158.223373,988.408264 163.262466,991.314148 168.582977,994.317749   C169.257233,994.469482 169.650055,994.523499 170.248810,994.900146   C172.729950,995.598511 175.005173,995.974365 177.724792,996.418640   C181.495331,996.537170 184.821426,996.630615 188.147537,996.630981   C269.331818,996.639099 350.516113,996.635132 431.700378,996.647339   C434.189819,996.647705 436.679260,996.797424 439.199280,997.201172   C439.887726,997.911377 440.545624,998.297974 441.217102,998.735046   C441.230652,998.785583 441.335297,998.786133 441.298187,999.113159   C441.901581,999.861084 442.542084,1000.281921 443.397705,1000.933716   C444.502838,1002.053284 445.392883,1002.941833 446.211182,1004.151123   C446.830994,1004.875610 447.522552,1005.279419 448.211975,1005.733154   C448.209808,1005.783081 448.307068,1005.805969 448.232910,1006.128601   C448.846405,1006.855469 449.534027,1007.259766 450.223145,1007.717163   C450.224640,1007.770325 450.327515,1007.797119 450.255768,1008.120117   C450.864014,1008.846252 451.543976,1009.249329 452.230194,1009.707520   C452.236420,1009.762695 452.344025,1009.790344 452.280823,1010.114258   C452.886108,1010.840698 453.554565,1011.243225 454.235107,1011.702148   C454.247162,1011.758423 454.359528,1011.783325 454.306427,1012.107666   C454.909760,1012.836853 455.566193,1013.241699 456.234863,1013.702759   C456.247101,1013.758911 456.359650,1013.782959 456.307861,1014.109497   C456.908722,1014.845032 457.561401,1015.253967 458.228760,1015.716553   C458.243469,1015.770203 458.354218,1015.780701 458.311127,1016.108521   C458.913300,1016.852844 459.558563,1017.269287 460.216614,1017.736145   C460.229431,1017.786499 460.333344,1017.787354 460.295410,1018.114014   C460.899780,1018.860229 461.542023,1019.279785 462.409424,1019.943604   C464.191162,1021.732056 465.747772,1023.276306 467.232544,1025.141602   C467.846405,1025.866089 468.532074,1026.269653 469.217957,1026.724854   C469.218109,1026.776489 469.318359,1026.801514 469.247375,1027.124634   C469.859222,1027.849365 470.542084,1028.250854 471.229980,1028.707520   C471.235016,1028.762573 471.341827,1028.791748 471.275635,1029.115723   C471.880737,1029.841919 472.552032,1030.244141 473.235168,1030.702637   C473.246979,1030.758911 473.359344,1030.783569 473.305359,1031.107666   C473.908478,1031.836670 474.565643,1032.241455 475.235168,1032.702515   C475.247559,1032.758789 475.360138,1032.783203 475.308594,1033.109131   C475.909821,1033.843628 476.562622,1034.252319 477.229370,1034.714844   C477.243286,1034.768677 477.353912,1034.781616 477.309204,1035.109375   C477.910828,1035.853882 478.557098,1036.270630 479.215485,1036.737549   C479.227570,1036.787842 479.330872,1036.788940 479.291565,1037.117676   C479.899597,1037.866211 480.546875,1038.286011 481.205078,1038.753418   C481.215973,1038.800903 481.313354,1038.794922 481.282837,1039.121460   C481.892914,1039.872192 482.533539,1040.296387 483.394440,1040.946777   C484.510040,1042.055786 485.405365,1042.938965 486.226685,1044.143066   C486.841492,1044.866577 487.530273,1045.268921 488.218994,1045.723267   C488.218872,1045.775146 488.319275,1045.801392 488.246643,1046.124512   C488.857605,1046.849487 489.541229,1047.251343 490.229553,1047.708008   C490.234283,1047.763062 490.340973,1047.791870 490.273743,1048.115234   C490.879730,1048.839355 491.553009,1049.240234 492.237427,1049.697998   C492.248535,1049.755127 492.361298,1049.783569 492.304749,1050.107422   C492.906219,1050.836548 493.564301,1051.241821 494.234497,1051.703003   C494.246613,1051.759033 494.358673,1051.783447 494.307343,1052.109131   C494.909332,1052.843018 495.562653,1053.251099 496.230103,1053.713379   C496.244202,1053.767456 496.355194,1053.781494 496.310974,1054.109009   C496.913910,1054.849609 497.561066,1055.262695 498.222137,1055.727661   C498.236084,1055.779419 498.343201,1055.783569 498.303528,1056.111572   C498.908905,1056.858398 499.553986,1057.277222 500.211060,1057.744873   C500.223022,1057.793701 500.323639,1057.790405 500.289185,1058.116699   C500.894287,1058.869507 501.533813,1059.296021 502.393799,1059.948120   C503.508698,1061.057251 504.403137,1061.940674 505.224976,1063.145386   C505.841125,1063.868408 506.529938,1064.270142 507.218445,1064.723633   C507.218140,1064.775513 507.318512,1064.801392 507.245209,1065.124268   C507.856110,1065.849854 508.540314,1066.252563 509.228180,1066.710083   C509.231873,1066.764771 509.337708,1066.793213 509.269043,1067.117676   C509.878052,1067.836060 510.555725,1068.229980 511.248108,1068.683594   C511.262878,1068.743164 511.382050,1068.772827 511.329315,1069.107056   C513.701233,1071.361450 515.992798,1073.489380 518.583679,1075.150146   C521.930603,1077.295410 525.516846,1079.067261 529.000000,1081.000000  z"/>
<path fill="#020202" opacity="1.000000" stroke="none" d=" M439.168701,996.877441   C436.679260,996.797424 434.189819,996.647705 431.700378,996.647339   C350.516113,996.635132 269.331818,996.639099 188.147537,996.630981   C184.821426,996.630615 181.495331,996.537170 177.584503,996.120605   C174.680832,995.361877 172.361847,994.969727 170.042877,994.577576   C169.650055,994.523499 169.257233,994.469482 168.483871,994.005493   C163.163834,990.669983 158.224335,987.744446 153.284851,984.818909   C153.284851,984.818909 152.996628,984.553650 152.968933,984.035278   C149.524048,978.585938 146.106857,973.654968 142.689636,968.723999   C142.575699,968.339050 142.461761,967.954041 142.556976,967.022461   C142.015457,964.238647 141.264801,962.001526 140.514130,959.764404   C140.411682,956.437744 140.219742,953.111084 140.219543,949.784424   C140.205566,712.571411 140.206192,475.358459 140.214600,238.145477   C140.214691,235.482040 140.332016,232.818588 140.817200,229.615112   C144.993530,223.937363 148.292404,218.376328 152.596939,213.751251   C161.209717,204.497116 170.400818,195.782761 179.276688,186.770233   C180.490036,185.538208 181.265182,183.874573 182.243195,182.410767   C182.243195,182.410767 182.277145,182.284332 182.682297,182.299057   C184.251740,181.390823 185.521042,180.573013 186.565186,179.529785   C229.281113,136.851898 271.982300,94.159264 314.644012,51.427200   C315.745911,50.323486 316.387146,48.759872 317.243195,47.410740   C317.243195,47.410736 317.277161,47.284298 317.682312,47.299034   C324.138092,41.009598 330.188721,34.705425 336.239319,28.401245   C336.239319,28.401241 336.271698,28.277164 336.675781,28.273384   C343.132843,21.979660 349.185852,15.689715 355.238861,9.399775   C355.238861,9.399777 355.270081,9.276707 355.679199,9.291670   C358.922333,7.462033 361.781769,5.654877 364.578461,3.755339   C365.785797,2.935299 366.863434,1.924268 368.000000,0.999995   C547.020874,1.000000 726.041809,1.000000 905.554443,1.370219   C912.952942,4.881063 919.859619,8.021688 926.808838,11.154754   C926.851257,11.147195 926.842651,11.232983 926.832642,11.579090   C929.689331,15.727035 932.588745,19.504869 935.409119,23.340790   C936.816589,25.255093 938.079651,27.275620 939.508789,29.534698   C939.659607,30.222506 939.709656,30.623693 939.516724,31.265503   C940.014526,33.745434 940.755371,35.984745 941.570435,38.672379   C941.694214,41.952015 941.787231,44.783325 941.787292,47.614635   C941.793884,348.505951 941.794373,649.397278 941.779297,950.288574   C941.779175,953.447815 941.567322,956.607056 941.135315,959.873413   C940.439026,962.312622 940.061707,964.644775 939.666382,967.278809   C939.532349,967.964966 939.416321,968.349243 938.972900,968.808228   C937.577698,971.382690 936.509827,973.882568 935.394714,976.575928   C935.347473,976.769348 935.119202,977.095703 934.768982,977.090210   C933.327576,978.778381 932.236389,980.471985 931.009399,982.437256   C930.146545,983.411499 929.419495,984.114014 928.342773,984.759399   C923.237488,987.867737 918.481934,991.033142 913.440918,994.303711   C912.754211,994.460876 912.352905,994.512878 911.684265,994.348633   C909.191345,994.862549 906.965759,995.592773 904.296021,996.401855   C900.525757,996.532959 897.199707,996.630554 893.873657,996.630920   C812.686829,996.639404 731.500061,996.635437 650.313232,996.648254   C647.823914,996.648682 645.334656,996.806152 642.525146,996.828735   C641.741821,997.413879 641.278564,998.060730 640.806702,998.759949   C640.798035,998.812317 640.692322,998.802673 640.376770,998.767944   C639.653870,999.395874 639.246582,1000.058655 638.615112,1000.966797   C636.833313,1002.754456 635.275696,1004.296692 633.403687,1005.808533   C632.659119,1006.415161 632.228943,1007.052124 631.802979,1007.742676   C631.807190,1007.796204 631.701294,1007.813721 631.390259,1007.792480   C630.651367,1008.406555 630.223633,1009.041748 629.795349,1009.732727   C629.794800,1009.788452 629.684875,1009.806641 629.378418,1009.791199   C628.647095,1010.407715 628.222168,1011.039734 627.790466,1011.728699   C627.783630,1011.785645 627.669678,1011.799622 627.364868,1011.787170   C626.639038,1012.406494 626.218018,1013.038269 625.789062,1013.727295   C625.781128,1013.784485 625.666260,1013.797546 625.359863,1013.783936   C624.637451,1014.409363 624.221436,1015.048340 623.796509,1015.742310   C623.787537,1015.797302 623.676086,1015.797852 623.364502,1015.773376   C622.640503,1016.402161 622.227966,1017.055420 621.807495,1017.760864   C621.799438,1017.812988 621.694214,1017.803833 621.378906,1017.768555   C620.655029,1018.395447 620.246582,1019.057556 619.616577,1019.967529   C617.836304,1021.756592 616.277588,1023.297913 614.403503,1024.808350   C613.659546,1025.416992 613.230896,1026.056641 612.807007,1026.748657   C612.811768,1026.801025 612.707703,1026.816650 612.396240,1026.794434   C611.655273,1027.407593 611.225769,1028.042847 610.796021,1028.733643   C610.795776,1028.789429 610.685852,1028.807251 610.379517,1028.792358   C609.647339,1029.407715 609.221436,1030.038086 608.789124,1030.725708   C608.782715,1030.783081 608.668274,1030.799072 608.363525,1030.786865   C607.638306,1031.406616 607.217834,1032.038574 606.789673,1032.727783   C606.782043,1032.784912 606.667542,1032.798706 606.361694,1032.784424   C605.637390,1033.405518 605.218994,1034.040894 604.789917,1034.732788   C604.779236,1034.789429 604.663940,1034.793213 604.355103,1034.769775   C603.632690,1035.392578 603.219116,1036.038940 602.793030,1036.740479   C602.780518,1036.795776 602.667419,1036.792114 602.354126,1036.758789   C601.636169,1037.382446 601.231628,1038.039429 600.609314,1038.947998   C598.835510,1040.746948 597.279358,1042.293945 595.407593,1043.807617   C594.660522,1044.412109 594.229187,1045.050049 593.802490,1045.741699   C593.807190,1045.795410 593.701111,1045.813721 593.389160,1045.790039   C592.649780,1046.402954 592.222412,1047.039673 591.795105,1047.732178   C591.795227,1047.787964 591.685181,1047.807129 591.378235,1047.789673   C590.645203,1048.402710 590.219116,1049.033081 589.803772,1049.710205   C589.814514,1049.756958 589.739075,1049.815918 589.426636,1049.806396   C588.681335,1050.445679 588.248413,1051.094727 587.807495,1051.772461   C587.799500,1051.801147 587.741943,1051.817139 587.429199,1051.806152   C586.684021,1052.446533 586.251709,1053.097656 585.810364,1053.776611   C585.801331,1053.804565 585.743591,1053.815308 585.393921,1053.813354   C581.122437,1057.578735 577.476379,1061.699585 573.211365,1065.026978   C567.440979,1069.529175 561.352600,1073.682739 555.085388,1077.463135   C552.098999,1079.264526 548.384583,1079.858887 545.000000,1081.000000   C541.969421,1081.000000 538.938782,1081.000000 535.389648,1080.639038   C527.041382,1076.442993 519.211731,1072.607910 511.382050,1068.772827   C511.382050,1068.772827 511.262878,1068.743164 511.263977,1068.377686   C510.622650,1067.605835 509.980194,1067.199585 509.337708,1066.793213   C509.337708,1066.793213 509.231873,1066.764771 509.256378,1066.398438   C508.626770,1065.621704 507.972656,1065.211548 507.318542,1064.801392   C507.318512,1064.801392 507.218140,1064.775513 507.254211,1064.407959   C506.626038,1063.634888 505.961792,1063.229492 505.297577,1062.824097   C504.403137,1061.940674 503.508698,1061.057251 502.432495,1059.629639   C501.608337,1058.653687 500.965973,1058.222046 500.323608,1057.790405   C500.323639,1057.790405 500.223022,1057.793701 500.239471,1057.431519   C499.618347,1056.640747 498.980774,1056.212158 498.343201,1055.783569   C498.343201,1055.783569 498.236084,1055.779419 498.243378,1055.418701   C497.618835,1054.632446 496.987030,1054.207031 496.355194,1053.781494   C496.355194,1053.781494 496.244202,1053.767456 496.245117,1053.408691   C495.616943,1052.627808 494.987793,1052.205566 494.358673,1051.783447   C494.358673,1051.783447 494.246613,1051.759033 494.248779,1051.399292   C493.621094,1050.620850 492.991180,1050.202271 492.361298,1049.783569   C492.361298,1049.783569 492.248535,1049.755127 492.252228,1049.391968   C491.617615,1048.616455 490.979309,1048.204102 490.341003,1047.791870   C490.340973,1047.791870 490.234283,1047.763062 490.254456,1047.397217   C489.622864,1046.621216 488.971069,1046.211304 488.319275,1045.801392   C488.319275,1045.801392 488.218872,1045.775146 488.253998,1045.407959   C487.626312,1044.634521 486.963501,1044.228271 486.300690,1043.822021   C485.405365,1042.938965 484.510040,1042.055786 483.432343,1040.627441   C482.604431,1039.653076 481.958893,1039.223999 481.313354,1038.794922   C481.313354,1038.794922 481.215973,1038.800903 481.232086,1038.438965   C480.609100,1037.647583 479.970001,1037.218262 479.330872,1036.788940   C479.330872,1036.788940 479.227570,1036.787842 479.241577,1036.427368   C478.621674,1035.638428 477.987793,1035.210083 477.353912,1034.781616   C477.353912,1034.781616 477.243286,1034.768677 477.247009,1034.409668   C476.620544,1033.628174 475.990326,1033.205688 475.360138,1032.783203   C475.360138,1032.783203 475.247559,1032.758789 475.249023,1032.398682   C474.620117,1031.620239 473.989746,1031.201904 473.359344,1030.783569   C473.359344,1030.783569 473.246979,1030.758911 473.250244,1030.396729   C472.616302,1029.620239 471.979065,1029.206055 471.341827,1028.791748   C471.341827,1028.791748 471.235016,1028.762573 471.254608,1028.396484   C470.622253,1027.620728 469.970306,1027.211182 469.318359,1026.801514   C469.318359,1026.801514 469.218109,1026.776489 469.253601,1026.409790   C468.627563,1025.635620 467.965973,1025.228027 467.304382,1024.820557   C465.747772,1023.276306 464.191162,1021.732056 462.442169,1019.629150   C461.610962,1018.642700 460.972137,1018.215088 460.333313,1017.787354   C460.333344,1017.787354 460.229431,1017.786499 460.242676,1017.425720   C459.622040,1016.636841 458.988129,1016.208801 458.354218,1015.780701   C458.354218,1015.780701 458.243469,1015.770203 458.247314,1015.410889   C457.620667,1014.628723 456.990173,1014.205872 456.359650,1013.782959   C456.359650,1013.782959 456.247101,1013.758911 456.249146,1013.398926   C455.620605,1012.620361 454.990051,1012.201843 454.359528,1011.783325   C454.359528,1011.783325 454.247162,1011.758423 454.249146,1011.396729   C453.615448,1010.620117 452.979736,1010.205200 452.344025,1009.790344   C452.344025,1009.790344 452.236420,1009.762695 452.254639,1009.397644   C451.624451,1008.620728 450.975983,1008.208923 450.327515,1007.797119   C450.327515,1007.797119 450.224640,1007.770325 450.256226,1007.402832   C449.627533,1006.625610 448.967316,1006.215759 448.307068,1005.805969   C448.307068,1005.805969 448.209808,1005.783081 448.253113,1005.414185   C447.625244,1004.640259 446.954071,1004.235352 446.282898,1003.830383   C445.392883,1002.941833 444.502838,1002.053284 443.431274,1000.619263   C442.611572,999.644531 441.973419,999.215393 441.335266,998.786133   C441.335297,998.786133 441.230652,998.785583 441.229553,998.409912   C440.541870,997.648682 439.855316,997.263062 439.168701,996.877441  M393.348419,136.499847   C393.347565,160.830612 392.860504,185.173767 393.480347,209.488708   C394.122131,234.665054 373.931305,254.574646 348.524231,254.300217   C295.200531,253.724304 241.866287,254.126282 188.536377,254.126785   C186.624298,254.126816 184.712234,254.126785 182.778473,254.126785   C182.778473,487.950348 182.778473,720.995605 182.778473,953.917480   C253.805862,953.917480 324.459442,953.917480 395.113007,953.917480   C395.429993,953.431824 395.746979,952.946167 396.063965,952.460449   C391.911011,948.694275 387.314545,945.309387 383.687439,941.091064   C372.337128,927.890137 369.029633,912.892517 375.937866,896.565002   C383.299683,879.165283 396.952911,870.596985 415.711212,870.092529   C422.152222,869.919250 428.601776,870.065002 435.521393,870.065002   C435.521393,867.480652 435.520966,865.516907 435.521454,863.553162   C435.531372,821.889221 435.399841,780.224487 435.607849,738.561584   C435.721252,715.845032 454.347992,697.245972 476.998596,697.155396   C519.661804,696.984680 562.326782,697.005310 604.989380,697.240540   C610.017761,697.268188 615.394836,698.312866 619.995239,700.305664   C637.438110,707.861877 646.390137,721.489624 646.439575,740.557129   C646.546326,781.720886 646.472656,822.885132 646.490479,864.049133   C646.491272,865.960632 646.664124,867.872009 646.770203,870.058350   C652.005371,870.058350 656.665405,869.805298 661.286621,870.121033   C667.390808,870.538025 673.618591,870.762634 679.523315,872.188293   C699.507812,877.013550 713.264954,900.895142 708.545837,920.938416   C706.237854,930.740967 701.306641,938.641296 694.261230,945.516846   C691.642639,948.072144 689.147034,950.753479 685.966858,954.023682   C757.856262,954.023682 828.539001,954.023682 899.195923,954.023682   C899.195923,650.234497 899.195923,346.853119 899.195923,43.437195   C730.529480,43.437195 562.262329,43.437195 393.348480,43.437195   C393.348480,74.284866 393.348480,104.892349 393.348419,136.499847  M644.264221,935.762329   C651.619690,928.407166 658.975098,921.052002 666.330505,913.696777   C663.964966,912.406921 662.199280,912.260681 660.433350,912.256897   C650.103882,912.234680 639.738647,911.699097 629.453430,912.373718   C614.091980,913.381470 603.874878,902.690552 604.070740,886.849854   C604.653564,839.708130 604.279541,792.554504 604.279480,745.405579   C604.279480,743.496338 604.279541,741.587097 604.279541,739.577393   C561.730408,739.577393 519.988220,739.577393 477.720520,739.577393   C477.720520,741.661804 477.720581,743.451233 477.720520,745.240723   C477.718719,793.389282 477.751190,841.537903 477.693176,889.686401   C477.676758,903.310852 468.765533,912.155884 455.202118,912.228394   C443.873352,912.288940 432.543976,912.225586 421.215027,912.266785   C419.552734,912.272827 417.891388,912.554321 415.269562,912.797302   C417.119263,914.881836 418.137634,916.156250 419.283905,917.302795   C458.384308,956.411926 497.546722,995.459473 536.526001,1034.688965   C540.184265,1038.370850 542.155334,1038.090820 545.651611,1034.566650   C578.257263,1001.700928 611.041931,969.012756 644.264221,935.762329  M351.167206,185.500031   C351.167206,148.641052 351.167206,111.782066 351.167206,74.561752   C305.104065,120.588699 259.741272,165.915848 214.163406,211.457932   C259.591339,211.457932 305.077728,211.457932 351.167236,211.457932   C351.167236,203.063248 351.167236,194.781631 351.167206,185.500031  z"/>
<path fill="#FFFFFF" opacity="1.000000" stroke="none" d=" M595.723267,1043.841064   C597.279358,1042.293945 598.835510,1040.746948 600.928040,1039.019043   C601.865417,1038.156128 602.266418,1037.474121 602.667358,1036.792114   C602.667419,1036.792114 602.780518,1036.795776 603.115051,1036.808472   C603.854370,1036.145142 604.259155,1035.469238 604.663940,1034.793213   C604.663940,1034.793213 604.779236,1034.789429 605.113342,1034.794067   C605.854126,1034.132080 606.260864,1033.465332 606.667542,1032.798706   C606.667542,1032.798706 606.782043,1032.784912 607.114136,1032.775391   C607.853516,1032.110352 608.260925,1031.454712 608.668335,1030.799072   C608.668274,1030.799072 608.782715,1030.783081 609.115356,1030.770264   C609.860596,1030.107544 610.273254,1029.457397 610.685913,1028.807251   C610.685852,1028.807251 610.795776,1028.789429 611.123596,1028.771973   C611.870178,1028.108643 612.288940,1027.462646 612.707642,1026.816650   C612.707703,1026.816650 612.811768,1026.801025 613.133423,1026.780396   C613.876282,1026.119629 614.297607,1025.479370 614.718872,1024.839233   C616.277588,1023.297913 617.836304,1021.756592 619.937012,1020.037476   C620.884094,1019.174438 621.289185,1018.489136 621.694214,1017.803833   C621.694214,1017.803833 621.799438,1017.812988 622.130737,1017.826660   C622.866760,1017.159546 623.271423,1016.478699 623.676086,1015.797852   C623.676086,1015.797852 623.787537,1015.797302 624.120239,1015.802246   C624.857361,1015.137268 625.261841,1014.467407 625.666260,1013.797546   C625.666260,1013.797546 625.781128,1013.784485 626.113159,1013.776245   C626.853394,1013.111877 627.261475,1012.455750 627.669678,1011.799561   C627.669678,1011.799622 627.783630,1011.785645 628.116577,1011.774536   C628.861328,1011.111206 629.273132,1010.458923 629.684875,1009.806641   C629.684875,1009.806641 629.794800,1009.788452 630.123047,1009.770264   C630.867981,1009.105957 631.284607,1008.459839 631.701294,1007.813721   C631.701294,1007.813721 631.807190,1007.796204 632.129639,1007.777222   C632.874084,1007.118408 633.296082,1006.478699 633.718140,1005.838989   C635.275696,1004.296692 636.833313,1002.754456 638.935425,1001.037476   C639.884033,1000.176025 640.288208,999.489380 640.692383,998.802673   C640.692322,998.802673 640.798035,998.812317 641.122925,998.832458   C641.913696,998.198547 642.379517,997.544495 642.845337,996.890381   C645.334656,996.806152 647.823914,996.648682 650.313232,996.648254   C731.500061,996.635437 812.686829,996.639404 893.873657,996.630920   C897.199707,996.630554 900.525757,996.532959 904.660278,996.605957   C907.629700,996.009155 909.790649,995.287048 911.951660,994.564941   C912.352905,994.512878 912.754211,994.460876 913.764954,994.473267   C919.147156,991.297241 923.919800,988.056885 928.692505,984.816528   C929.419495,984.114014 930.146545,983.411499 931.354858,982.431152   C932.930542,980.467407 934.024902,978.781555 935.119202,977.095703   C935.119202,977.095703 935.347473,976.769348 935.712524,976.450195   C937.151855,973.665161 938.226013,971.199341 939.300171,968.733521   C939.416321,968.349243 939.532349,967.964966 939.979248,967.063660   C940.691528,964.286499 941.072937,962.026428 941.454285,959.766296   C941.567322,956.607056 941.779175,953.447815 941.779297,950.288574   C941.794373,649.397278 941.793884,348.505951 941.787292,47.614635   C941.787231,44.783325 941.694214,41.952015 941.767029,38.299515   C941.179565,35.327179 940.469604,33.176033 939.759705,31.024881   C939.709656,30.623693 939.659607,30.222506 939.666138,29.190678   C939.038452,26.886911 938.696106,24.936644 937.606445,23.591959   C934.169189,19.350199 930.451721,15.335510 926.842651,11.232965   C926.842651,11.232983 926.851257,11.147195 926.844788,10.813763   C925.277649,9.283933 923.825012,7.899056 922.134094,6.929912   C918.487671,4.839999 914.718750,2.963704 911.000000,0.999998   C967.652710,1.000000 1024.305420,1.000000 1080.979004,1.000000   C1080.979004,360.897461 1080.979004,720.794922 1080.979004,1081.000000   C905.645874,1081.000000 730.291626,1081.000000 554.437256,1080.607666   C563.033081,1076.941040 570.268860,1070.998047 576.783508,1064.094116   C579.900513,1060.790894 582.764832,1057.249023 585.743591,1053.815308   C585.743591,1053.815308 585.801331,1053.804565 586.143921,1053.833862   C586.905029,1053.181152 587.323486,1052.499146 587.741943,1051.817139   C587.741943,1051.817139 587.799500,1051.801147 588.141846,1051.815430   C588.902466,1051.158447 589.320801,1050.487183 589.739075,1049.815918   C589.739075,1049.815918 589.814514,1049.756958 590.130005,1049.753174   C590.858765,1049.101929 591.271973,1048.454468 591.685181,1047.807129   C591.685181,1047.807129 591.795227,1047.787964 592.122864,1047.769043   C592.867371,1047.104614 593.284241,1046.459106 593.701050,1045.813721   C593.701111,1045.813721 593.807190,1045.795410 594.128418,1045.776123   C594.874146,1045.118164 595.298706,1044.479614 595.723267,1043.841064  z"/>
<path fill="#777777" opacity="1.000000" stroke="none" d=" M585.393921,1053.813354   C582.764832,1057.249023 579.900513,1060.790894 576.783508,1064.094116   C570.268860,1070.998047 563.033081,1076.941040 553.968567,1080.607666   C551.299988,1081.000000 548.599976,1081.000000 545.449951,1081.000000   C548.384583,1079.858887 552.098999,1079.264526 555.085388,1077.463135   C561.352600,1073.682739 567.440979,1069.529175 573.211365,1065.026978   C577.476379,1061.699585 581.122437,1057.578735 585.393921,1053.813354  z"/>
<path fill="#696969" opacity="1.000000" stroke="none" d=" M511.329315,1069.107056   C519.211731,1072.607910 527.041382,1076.442993 534.935547,1080.639038   C533.285645,1081.000000 531.571289,1081.000000 529.428467,1081.000000   C525.516846,1079.067261 521.930603,1077.295410 518.583679,1075.150146   C515.992798,1073.489380 513.701233,1071.361450 511.329315,1069.107056  z"/>
<path fill="#656565" opacity="1.000000" stroke="none" d=" M910.583374,0.999998   C914.718750,2.963704 918.487671,4.839999 922.134094,6.929912   C923.825012,7.899056 925.277649,9.283933 926.802368,10.821321   C919.859619,8.021688 912.952942,4.881063 906.023071,1.370219   C907.388916,1.000000 908.777771,1.000000 910.583374,0.999998  z"/>
<path fill="#696969" opacity="1.000000" stroke="none" d=" M367.600006,0.999995   C366.863434,1.924268 365.785797,2.935299 364.578461,3.755339   C361.781769,5.654877 358.922333,7.462033 355.740784,9.276180   C358.245667,6.735453 361.098114,4.225178 363.975281,1.357451   C365.066681,1.000000 366.133331,1.000000 367.600006,0.999995  z"/>
<path fill="#696969" opacity="1.000000" stroke="none" d=" M316.911011,47.351414   C316.387146,48.759872 315.745911,50.323486 314.644012,51.427200   C271.982300,94.159264 229.281113,136.851898 186.565186,179.529785   C185.521042,180.573013 184.251740,181.390823 182.745544,182.282196   C183.551620,180.741882 184.542648,179.076385 185.870316,177.747131   C228.914246,134.652252 271.990204,91.589340 315.068085,48.528393   C315.526031,48.070637 316.073242,47.702213 316.911011,47.351414  z"/>
<path fill="#696969" opacity="1.000000" stroke="none" d=" M181.911011,182.351440   C181.265182,183.874573 180.490036,185.538208 179.276688,186.770233   C170.400818,195.782761 161.209717,204.497116 152.596939,213.751251   C148.292404,218.376328 144.993530,223.937363 140.910614,229.173340   C142.045029,225.762711 142.665115,221.448776 145.115326,218.881409   C157.000534,206.427979 169.376633,194.443024 181.911011,182.351440  z"/>
<path fill="#696969" opacity="1.000000" stroke="none" d=" M335.906677,28.345016   C330.188721,34.705425 324.138092,41.009598 317.745575,47.282166   C323.460449,40.929962 329.517242,34.609375 335.906677,28.345016  z"/>
<path fill="#696969" opacity="1.000000" stroke="none" d=" M354.906128,9.343109   C349.185852,15.689715 343.132843,21.979660 336.737854,28.257244   C342.455017,21.925404 348.514221,15.605926 354.906128,9.343109  z"/>
<path fill="#696969" opacity="1.000000" stroke="none" d=" M142.516113,969.052063   C146.106857,973.654968 149.524048,978.585938 152.865036,983.869324   C146.852127,981.002197 145.026596,974.889038 142.516113,969.052063  z"/>
<path fill="#696969" opacity="1.000000" stroke="none" d=" M153.234573,985.160645   C158.224335,987.744446 163.163834,990.669983 168.202438,993.907776   C163.262466,991.314148 158.223373,988.408264 153.234573,985.160645  z"/>
<path fill="#696969" opacity="1.000000" stroke="none" d=" M170.248810,994.900146   C172.361847,994.969727 174.680832,995.361877 177.140091,996.052124   C175.005173,995.974365 172.729950,995.598511 170.248810,994.900146  z"/>
<path fill="#696969" opacity="1.000000" stroke="none" d=" M140.312134,960.129395   C141.264801,962.001526 142.015457,964.238647 142.530304,966.721558   C141.566345,964.809753 140.838226,962.652100 140.312134,960.129395  z"/>
<path fill="#696969" opacity="1.000000" stroke="none" d=" M475.308594,1033.109131   C475.990326,1033.205688 476.620544,1033.628174 477.233093,1034.355713   C476.562622,1034.252319 475.909821,1033.843628 475.308594,1033.109131  z"/>
<path fill="#696969" opacity="1.000000" stroke="none" d=" M477.309204,1035.109375   C477.987793,1035.210083 478.621674,1035.638428 479.229492,1036.377197   C478.557098,1036.270630 477.910828,1035.853882 477.309204,1035.109375  z"/>
<path fill="#696969" opacity="1.000000" stroke="none" d=" M479.291595,1037.117676   C479.970001,1037.218262 480.609100,1037.647583 481.221191,1038.391357   C480.546875,1038.286011 479.899597,1037.866211 479.291595,1037.117676  z"/>
<path fill="#696969" opacity="1.000000" stroke="none" d=" M481.282837,1039.121460   C481.958893,1039.223999 482.604431,1039.653076 483.212067,1040.401367   C482.533539,1040.296387 481.892914,1039.872192 481.282837,1039.121460  z"/>
<path fill="#696969" opacity="1.000000" stroke="none" d=" M486.226685,1044.143066   C486.963501,1044.228271 487.626312,1044.634521 488.254089,1045.356079   C487.530273,1045.268921 486.841492,1044.866577 486.226685,1044.143066  z"/>
<path fill="#696969" opacity="1.000000" stroke="none" d=" M488.246643,1046.124512   C488.971069,1046.211304 489.622864,1046.621216 490.249756,1047.342163   C489.541229,1047.251343 488.857605,1046.849487 488.246643,1046.124512  z"/>
<path fill="#696969" opacity="1.000000" stroke="none" d=" M490.273743,1048.115234   C490.979309,1048.204102 491.617615,1048.616455 492.241089,1049.334961   C491.553009,1049.240234 490.879730,1048.839355 490.273743,1048.115234  z"/>
<path fill="#696969" opacity="1.000000" stroke="none" d=" M492.304749,1050.107422   C492.991180,1050.202271 493.621094,1050.620850 494.236694,1051.343262   C493.564301,1051.241821 492.906219,1050.836548 492.304749,1050.107422  z"/>
<path fill="#696969" opacity="1.000000" stroke="none" d=" M494.307343,1052.109131   C494.987793,1052.205566 495.616943,1052.627808 496.231018,1053.354492   C495.562653,1053.251099 494.909332,1052.843018 494.307343,1052.109131  z"/>
<path fill="#696969" opacity="1.000000" stroke="none" d=" M496.310974,1054.109009   C496.987030,1054.207031 497.618835,1054.632446 498.229431,1055.366943   C497.561066,1055.262695 496.913910,1054.849609 496.310974,1054.109009  z"/>
<path fill="#696969" opacity="1.000000" stroke="none" d=" M439.199280,997.201172   C439.855316,997.263062 440.541870,997.648682 441.216003,998.359375   C440.545624,998.297974 439.887726,997.911377 439.199280,997.201172  z"/>
<path fill="#696969" opacity="1.000000" stroke="none" d=" M498.303528,1056.111572   C498.980774,1056.212158 499.618347,1056.640747 500.227478,1057.382568   C499.553986,1057.277222 498.908905,1056.858398 498.303528,1056.111572  z"/>
<path fill="#696969" opacity="1.000000" stroke="none" d=" M500.289185,1058.116699   C500.965973,1058.222046 501.608337,1058.653687 502.212006,1059.403809   C501.533813,1059.296021 500.894287,1058.869507 500.289185,1058.116699  z"/>
<path fill="#696969" opacity="1.000000" stroke="none" d=" M505.224915,1063.145386   C505.961792,1063.229492 506.626038,1063.634888 507.254517,1064.356079   C506.529938,1064.270142 505.841125,1063.868408 505.224915,1063.145386  z"/>
<path fill="#696969" opacity="1.000000" stroke="none" d=" M507.245239,1065.124268   C507.972656,1065.211548 508.626770,1065.621704 509.252686,1066.343750   C508.540314,1066.252563 507.856110,1065.849854 507.245239,1065.124268  z"/>
<path fill="#696969" opacity="1.000000" stroke="none" d=" M509.269043,1067.117676   C509.980194,1067.199585 510.622650,1067.605835 511.249237,1068.318115   C510.555725,1068.229980 509.878052,1067.836060 509.269043,1067.117676  z"/>
<path fill="#696969" opacity="1.000000" stroke="none" d=" M441.298157,999.113220   C441.973419,999.215393 442.611572,999.644531 443.216125,1000.388245   C442.542084,1000.281921 441.901581,999.861084 441.298157,999.113220  z"/>
<path fill="#696969" opacity="1.000000" stroke="none" d=" M446.211151,1004.151123   C446.954071,1004.235352 447.625244,1004.640259 448.255249,1005.364258   C447.522552,1005.279419 446.830994,1004.875610 446.211151,1004.151123  z"/>
<path fill="#696969" opacity="1.000000" stroke="none" d=" M448.232910,1006.128601   C448.967316,1006.215759 449.627533,1006.625610 450.254730,1007.349731   C449.534027,1007.259766 448.846405,1006.855469 448.232910,1006.128601  z"/>
<path fill="#696969" opacity="1.000000" stroke="none" d=" M450.255768,1008.120117   C450.975983,1008.208923 451.624451,1008.620728 452.248413,1009.342529   C451.543976,1009.249329 450.864014,1008.846252 450.255768,1008.120117  z"/>
<path fill="#696969" opacity="1.000000" stroke="none" d=" M452.280823,1010.114258   C452.979736,1010.205200 453.615448,1010.620117 454.237122,1011.340454   C453.554565,1011.243225 452.886108,1010.840698 452.280823,1010.114258  z"/>
<path fill="#696969" opacity="1.000000" stroke="none" d=" M454.306427,1012.107666   C454.990051,1012.201843 455.620605,1012.620361 456.236908,1013.342712   C455.566193,1013.241699 454.909760,1012.836853 454.306427,1012.107666  z"/>
<path fill="#696969" opacity="1.000000" stroke="none" d=" M456.307861,1014.109497   C456.990173,1014.205872 457.620667,1014.628723 458.232605,1015.357300   C457.561401,1015.253967 456.908722,1014.845032 456.307861,1014.109497  z"/>
<path fill="#696969" opacity="1.000000" stroke="none" d=" M458.311127,1016.108521   C458.988129,1016.208801 459.622040,1016.636841 460.229889,1017.375366   C459.558563,1017.269287 458.913300,1016.852844 458.311127,1016.108521  z"/>
<path fill="#696969" opacity="1.000000" stroke="none" d=" M460.295410,1018.114014   C460.972137,1018.215088 461.610962,1018.642700 462.217041,1019.384888   C461.542023,1019.279785 460.899780,1018.860229 460.295410,1018.114014  z"/>
<path fill="#696969" opacity="1.000000" stroke="none" d=" M467.232544,1025.141602   C467.965973,1025.228027 468.627563,1025.635620 469.253448,1026.358154   C468.532074,1026.269653 467.846405,1025.866089 467.232544,1025.141602  z"/>
<path fill="#696969" opacity="1.000000" stroke="none" d=" M469.247375,1027.124634   C469.970306,1027.211182 470.622253,1027.620728 471.249573,1028.341309   C470.542084,1028.250854 469.859222,1027.849365 469.247375,1027.124634  z"/>
<path fill="#696969" opacity="1.000000" stroke="none" d=" M471.275635,1029.115723   C471.979065,1029.206055 472.616302,1029.620239 473.238403,1030.340454   C472.552032,1030.244141 471.880737,1029.841919 471.275635,1029.115723  z"/>
<path fill="#696969" opacity="1.000000" stroke="none" d=" M473.305359,1031.107666   C473.989746,1031.201904 474.620117,1031.620239 475.236664,1032.342407   C474.565643,1032.241455 473.908478,1031.836670 473.305359,1031.107666  z"/>
<path fill="#FEFEFE" opacity="1.000000" stroke="none" d=" M393.348450,135.999847   C393.348480,104.892349 393.348480,74.284866 393.348480,43.437195   C562.262329,43.437195 730.529480,43.437195 899.195923,43.437195   C899.195923,346.853119 899.195923,650.234497 899.195923,954.023682   C828.539001,954.023682 757.856262,954.023682 685.966858,954.023682   C689.147034,950.753479 691.642639,948.072144 694.261230,945.516846   C701.306641,938.641296 706.237854,930.740967 708.545837,920.938416   C713.264954,900.895142 699.507812,877.013550 679.523315,872.188293   C673.618591,870.762634 667.390808,870.538025 661.286621,870.121033   C656.665405,869.805298 652.005371,870.058350 646.770203,870.058350   C646.664124,867.872009 646.491272,865.960632 646.490479,864.049133   C646.472656,822.885132 646.546326,781.720886 646.439575,740.557129   C646.390137,721.489624 637.438110,707.861877 619.995239,700.305664   C615.394836,698.312866 610.017761,697.268188 604.989380,697.240540   C562.326782,697.005310 519.661804,696.984680 476.998596,697.155396   C454.347992,697.245972 435.721252,715.845032 435.607849,738.561584   C435.399841,780.224487 435.531372,821.889221 435.521454,863.553162   C435.520966,865.516907 435.521393,867.480652 435.521393,870.065002   C428.601776,870.065002 422.152222,869.919250 415.711212,870.092529   C396.952911,870.596985 383.299683,879.165283 375.937866,896.565002   C369.029633,912.892517 372.337128,927.890137 383.687439,941.091064   C387.314545,945.309387 391.911011,948.694275 396.063965,952.460449   C395.746979,952.946167 395.429993,953.431824 395.113007,953.917480   C324.459442,953.917480 253.805862,953.917480 182.778473,953.917480   C182.778473,720.995605 182.778473,487.950348 182.778473,254.126785   C184.712234,254.126785 186.624298,254.126816 188.536377,254.126785   C241.866287,254.126282 295.200531,253.724304 348.524231,254.300217   C373.931305,254.574646 394.122131,234.665054 393.480347,209.488708   C392.860504,185.173767 393.347565,160.830612 393.348450,135.999847  M654.495789,343.453583   C673.807373,374.732056 693.100830,406.021851 712.486267,437.254517   C713.421692,438.761536 715.130737,440.785217 716.543030,440.837036   C725.469421,441.164551 734.413818,441.003174 743.313721,441.003174   C743.313721,393.081329 743.313721,345.712158 743.313721,298.341919   C734.290527,298.341919 725.667908,298.341919 716.504578,298.341919   C716.504578,313.652893 716.504578,328.777802 716.504578,343.902710   C716.504578,359.183807 716.504578,374.464874 716.504578,389.745972   C716.007385,389.997498 715.510254,390.249054 715.013062,390.500580   C713.811096,389.054504 712.422058,387.725281 711.434814,386.145020   C693.897095,358.069611 676.422119,329.954987 658.868469,301.889465   C657.975830,300.462219 656.526733,298.367310 655.287537,298.332489   C645.039917,298.044556 634.780701,298.169556 624.485657,298.169556   C624.485657,346.108582 624.485657,393.360474 624.485657,440.701019   C633.627502,440.701019 642.517090,440.701019 651.727234,440.701019   C651.727234,438.595673 651.727234,436.791199 651.727234,434.986755   C651.727234,405.824615 651.697327,376.662384 651.814209,347.500732   C651.820190,346.011169 653.088013,344.526642 654.495789,343.453583  M589.068481,403.513947   C596.355896,381.652008 596.598145,359.556244 589.720154,337.718872   C583.638794,318.410614 570.739319,304.883301 550.908081,299.522064   C542.515869,297.253326 533.493774,296.191528 524.795959,296.375793   C492.108185,297.068298 470.080933,315.278381 463.887299,347.367401   C461.739258,358.496368 461.541931,370.261688 462.228088,381.629242   C464.316589,416.230621 484.962219,438.531952 518.920654,442.444885   C547.574768,445.746613 576.285217,436.424255 589.068481,403.513947  M480.694397,542.500183   C480.694397,531.213745 480.694397,519.927368 480.694397,508.398193   C471.132324,508.398193 462.069489,508.398193 452.421204,508.398193   C452.421204,526.290894 452.421204,543.995117 452.421204,561.588135   C430.795624,561.588135 409.756683,561.588135 388.316254,561.588135   C388.316254,543.614014 388.316254,526.008972 388.316254,508.440430   C378.819397,508.440430 369.732574,508.440430 360.586334,508.440430   C360.586334,556.097351 360.586334,603.461060 360.586334,650.725891   C370.030487,650.725891 379.120911,650.725891 388.655518,650.725891   C388.655518,629.060059 388.655518,607.670349 388.655518,586.261047   C410.188049,586.261047 431.267853,586.261047 452.744019,586.261047   C452.744019,607.964417 452.744019,629.384888 452.744019,650.692078   C462.227478,650.692078 471.308990,650.692078 480.694397,650.692078   C480.694397,614.752258 480.694397,579.126282 480.694397,542.500183  M388.244720,382.824860   C395.773254,384.983246 398.681824,391.164978 400.894775,397.739380   C405.716187,412.063110 410.340149,426.453308 415.063019,440.871887   C424.709961,440.871887 434.169617,440.871887 444.118652,440.871887   C438.535736,424.433167 433.159027,408.221680 427.503693,392.107941   C424.625488,383.907227 420.065338,376.862152 411.828979,372.904175   C411.389496,372.692963 411.232788,371.893341 410.742126,370.998749   C413.089111,369.952393 415.180389,369.070374 417.228790,368.098145   C426.692352,363.606506 433.618439,356.964050 436.208160,346.377289   C442.172516,321.994995 428.071808,300.783234 403.074677,299.183197   C380.846558,297.760406 358.479034,298.513367 336.172791,298.336090   C335.931274,298.334137 335.686523,298.737366 335.514282,298.888977   C335.514282,346.199921 335.514282,393.443390 335.514282,440.813812   C344.894043,440.813812 353.993835,440.813812 363.630035,440.813812   C363.630035,421.068970 363.630035,401.509125 363.630035,381.131500   C371.954224,381.623199 379.708344,382.081177 388.244720,382.824860  M575.500061,508.153687   C556.402039,508.153687 537.304077,508.153687 518.195801,508.153687   C518.195801,556.073364 518.195801,603.434753 518.195801,650.784058   C550.258911,650.784058 582.006592,650.784058 613.719910,650.784058   C613.719910,642.873901 613.719910,635.188110 613.719910,627.256104   C591.049500,627.256104 568.776611,627.256104 546.382568,627.256104   C546.382568,614.134094 546.382568,601.276123 546.382568,588.001099   C565.806885,588.001099 584.869446,588.001099 603.788696,588.001099   C603.788696,580.186768 603.788696,572.799805 603.788696,564.995361   C584.368530,564.995361 565.313354,564.995361 546.233398,564.995361   C546.233398,553.805603 546.233398,543.048767 546.233398,531.891968   C568.348145,531.891968 590.252808,531.891968 612.320557,531.891968   C612.320557,523.779663 612.320557,516.073608 612.320557,508.153687   C600.136719,508.153687 588.318420,508.153687 575.500061,508.153687  M679.531555,588.212830   C695.277466,588.212830 711.023438,588.212830 726.647339,588.212830   C726.647339,580.178772 726.647339,572.782837 726.647339,564.983032   C707.228638,564.983032 688.155884,564.983032 669.068298,564.983032   C669.068298,553.809998 669.068298,543.054321 669.068298,531.829590   C691.188293,531.829590 713.092590,531.829590 735.041016,531.829590   C735.041016,523.764587 735.041016,516.174255 735.041016,508.403412   C703.537292,508.403412 672.294495,508.403412 640.925903,508.403412   C640.925903,556.017822 640.925903,603.381165 640.925903,650.628784   C673.118347,650.628784 704.999451,650.628784 736.593079,650.628784   C736.593079,642.675659 736.593079,635.099304 736.593079,627.076538   C713.837219,627.076538 691.445923,627.076538 669.227417,627.076538   C669.227417,613.885315 669.227417,601.164062 669.227417,588.212830   C672.585388,588.212830 675.565552,588.212830 679.531555,588.212830  M327.738525,523.001343   C321.862610,519.023254 316.456848,513.868408 310.019226,511.296295   C293.311676,504.620941 275.864258,504.292023 258.579651,509.172882   C240.642181,514.238159 229.817398,527.609009 229.089462,544.544739   C228.264664,563.733887 236.982895,576.926147 255.422058,584.222534   C258.345947,585.379517 261.372711,586.326416 264.417358,587.119141   C273.900726,589.588135 283.569550,591.459106 292.875671,594.463013   C302.616821,597.607361 306.153900,603.963684 304.947601,613.596741   C303.963531,621.455261 298.065582,626.874512 288.850891,628.080933   C270.892548,630.432068 256.098694,624.726868 244.796997,610.420105   C243.136658,608.318359 241.570251,606.203308 238.993805,609.344910   C234.267670,615.107605 229.551178,620.878235 224.206299,627.408386   C228.622040,631.757629 232.308716,636.727295 237.159500,639.938416   C259.989746,655.051819 284.766357,657.377930 310.011505,647.683899   C327.215942,641.077454 333.931335,626.440735 333.908630,608.608887   C333.886292,591.080200 326.218018,578.191650 309.700989,571.468994   C303.892578,569.104797 297.684875,567.667603 291.589111,566.076782   C283.401398,563.940063 275.050110,562.384460 266.950897,559.969482   C261.145752,558.238525 257.384247,554.106384 256.869995,547.661255   C256.152008,538.663452 261.386292,532.620117 271.695526,531.054321   C286.184692,528.853638 299.493103,531.230530 310.782318,541.453674   C311.694366,542.279602 314.887451,542.272827 315.491394,541.483215   C319.911499,535.704834 323.940826,529.627563 327.738525,523.001343  M219.882965,335.499969   C219.882965,370.572906 219.882965,405.645813 219.882965,440.780396   C229.504578,440.780396 238.584259,440.780396 248.053223,440.780396   C248.053223,421.499512 248.053223,402.434387 248.053223,382.976715   C267.012695,382.976715 285.585175,382.976715 304.230103,382.976715   C304.230103,375.050232 304.230103,367.527191 304.230103,359.506561   C285.292572,359.506561 266.737152,359.506561 248.268158,359.506561   C248.268158,346.733032 248.268158,334.469055 248.268158,321.847504   C268.931091,321.847504 289.346283,321.847504 309.878357,321.847504   C309.878357,313.794006 309.878357,306.107483 309.878357,298.399719   C279.774658,298.399719 250.035721,298.399719 219.882965,298.399719   C219.882965,310.592499 219.882965,322.546234 219.882965,335.499969  M807.308289,347.499817   C807.308289,378.584412 807.308289,409.669006 807.308289,440.736786   C816.989746,440.736786 826.069397,440.736786 835.555237,440.736786   C835.555237,401.088379 835.555237,361.705933 835.555237,321.769836   C849.503723,321.769836 863.048157,321.769836 876.453430,321.769836   C876.453430,313.628082 876.453430,306.047363 876.453430,298.437866   C839.574768,298.437866 803.022583,298.437866 766.471313,298.437866   C766.471313,306.437744 766.471313,314.145142 766.471313,322.196106   C780.274841,322.196106 793.709900,322.196106 807.308289,322.196106   C807.308289,330.533600 807.308289,338.516693 807.308289,347.499817  M818.000305,574.500000   C818.000305,560.400085 818.000305,546.300232 818.000305,531.838623   C831.973450,531.838623 845.396240,531.838623 858.745117,531.838623   C858.745117,523.758179 858.745117,516.052124 858.745117,508.433655   C821.937561,508.433655 785.513977,508.433655 748.923706,508.433655   C748.923706,516.310791 748.923706,523.910645 748.923706,532.070190   C762.643738,532.070190 776.192688,532.070190 790.140930,532.070190   C790.140930,572.023071 790.140930,611.417419 790.140930,650.711243   C799.637512,650.711243 808.714844,650.711243 818.000305,650.711243   C818.000305,625.448547 818.000305,600.474243 818.000305,574.500000  z"/>
<path fill="#FDFDFD" opacity="1.000000" stroke="none" d=" M644.019531,936.017761   C611.041931,969.012756 578.257263,1001.700928 545.651611,1034.566650   C542.155334,1038.090820 540.184265,1038.370850 536.526001,1034.688965   C497.546722,995.459473 458.384308,956.411926 419.283905,917.302795   C418.137634,916.156250 417.119263,914.881836 415.269562,912.797302   C417.891388,912.554321 419.552734,912.272827 421.215027,912.266785   C432.543976,912.225586 443.873352,912.288940 455.202118,912.228394   C468.765533,912.155884 477.676758,903.310852 477.693176,889.686401   C477.751190,841.537903 477.718719,793.389282 477.720520,745.240723   C477.720581,743.451233 477.720520,741.661804 477.720520,739.577393   C519.988220,739.577393 561.730408,739.577393 604.279541,739.577393   C604.279541,741.587097 604.279480,743.496338 604.279480,745.405579   C604.279541,792.554504 604.653564,839.708130 604.070740,886.849854   C603.874878,902.690552 614.091980,913.381470 629.453430,912.373718   C639.738647,911.699097 650.103882,912.234680 660.433350,912.256897   C662.199280,912.260681 663.964966,912.406921 666.330505,913.696777   C658.975098,921.052002 651.619690,928.407166 644.019531,936.017761  z"/>
<path fill="#FCFCFC" opacity="1.000000" stroke="none" d=" M351.167236,186.000031   C351.167236,194.781631 351.167236,203.063248 351.167236,211.457932   C305.077728,211.457932 259.591339,211.457932 214.163406,211.457932   C259.741272,165.915848 305.104065,120.588699 351.167206,74.561752   C351.167206,111.782066 351.167206,148.641052 351.167236,186.000031  z"/>
<path fill="#656565" opacity="1.000000" stroke="none" d=" M926.832642,11.579073   C930.451721,15.335510 934.169189,19.350199 937.606445,23.591959   C938.696106,24.936644 939.038452,26.886911 939.565430,28.904058   C938.079651,27.275620 936.816589,25.255093 935.409119,23.340790   C932.588745,19.504869 929.689331,15.727035 926.832642,11.579073  z"/>
<path fill="#656565" opacity="1.000000" stroke="none" d=" M928.342773,984.759399   C923.919800,988.056885 919.147156,991.297241 914.050415,994.368042   C918.481934,991.033142 923.237488,987.867737 928.342773,984.759399  z"/>
<path fill="#656565" opacity="1.000000" stroke="none" d=" M939.516724,31.265503   C940.469604,33.176033 941.179565,35.327179 941.692871,37.851192   C940.755371,35.984745 940.014526,33.745434 939.516724,31.265503  z"/>
<path fill="#656565" opacity="1.000000" stroke="none" d=" M911.684265,994.348633   C909.790649,995.287048 907.629700,996.009155 905.104431,996.527161   C906.965759,995.592773 909.191345,994.862549 911.684265,994.348633  z"/>
<path fill="#656565" opacity="1.000000" stroke="none" d=" M941.135315,959.873413   C941.072937,962.026428 940.691528,964.286499 939.997253,966.761780   C940.061707,964.644775 940.439026,962.312622 941.135315,959.873413  z"/>
<path fill="#656565" opacity="1.000000" stroke="none" d=" M938.972900,968.808228   C938.226013,971.199341 937.151855,973.665161 935.759766,976.256714   C936.509827,973.882568 937.577698,971.382690 938.972900,968.808228  z"/>
<path fill="#656565" opacity="1.000000" stroke="none" d=" M934.768982,977.090210   C934.024902,978.781555 932.930542,980.467407 931.490723,982.159424   C932.236389,980.471985 933.327576,978.778381 934.768982,977.090210  z"/>
<path fill="#656565" opacity="1.000000" stroke="none" d=" M608.363525,1030.786865   C608.260925,1031.454712 607.853516,1032.110352 607.121704,1032.718262   C607.217834,1032.038574 607.638306,1031.406616 608.363525,1030.786865  z"/>
<path fill="#656565" opacity="1.000000" stroke="none" d=" M606.361694,1032.784424   C606.260864,1033.465332 605.854126,1034.132080 605.124023,1034.737427   C605.218994,1034.040894 605.637390,1033.405518 606.361694,1032.784424  z"/>
<path fill="#656565" opacity="1.000000" stroke="none" d=" M604.355103,1034.769775   C604.259155,1035.469238 603.854370,1036.145142 603.127563,1036.753174   C603.219116,1036.038940 603.632690,1035.392578 604.355103,1034.769775  z"/>
<path fill="#656565" opacity="1.000000" stroke="none" d=" M602.354065,1036.758789   C602.266418,1037.474121 601.865417,1038.156128 601.145752,1038.767212   C601.231628,1038.039429 601.636169,1037.382446 602.354065,1036.758789  z"/>
<path fill="#656565" opacity="1.000000" stroke="none" d=" M595.407593,1043.807617   C595.298706,1044.479614 594.874146,1045.118164 594.123657,1045.722412   C594.229187,1045.050049 594.660522,1044.412109 595.407593,1043.807617  z"/>
<path fill="#656565" opacity="1.000000" stroke="none" d=" M593.389099,1045.790039   C593.284241,1046.459106 592.867371,1047.104614 592.122742,1047.713135   C592.222412,1047.039673 592.649780,1046.402954 593.389099,1045.790039  z"/>
<path fill="#656565" opacity="1.000000" stroke="none" d=" M591.378235,1047.789673   C591.271973,1048.454468 590.858765,1049.101929 590.119263,1049.706421   C590.219116,1049.033081 590.645203,1048.402710 591.378235,1047.789673  z"/>
<path fill="#777777" opacity="1.000000" stroke="none" d=" M589.426636,1049.806396   C589.320801,1050.487183 588.902466,1051.158447 588.149841,1051.786621   C588.248413,1051.094727 588.681335,1050.445679 589.426636,1049.806396  z"/>
<path fill="#777777" opacity="1.000000" stroke="none" d=" M587.429199,1051.806152   C587.323486,1052.499146 586.905029,1053.181152 586.152954,1053.805908   C586.251709,1053.097656 586.684021,1052.446533 587.429199,1051.806152  z"/>
<path fill="#656565" opacity="1.000000" stroke="none" d=" M625.359863,1013.783936   C625.261841,1014.467407 624.857361,1015.137268 624.129150,1015.747192   C624.221436,1015.048340 624.637451,1014.409363 625.359863,1013.783936  z"/>
<path fill="#656565" opacity="1.000000" stroke="none" d=" M640.376831,998.767944   C640.288208,999.489380 639.884033,1000.176025 639.159546,1000.791992   C639.246582,1000.058655 639.653870,999.395874 640.376831,998.767944  z"/>
<path fill="#656565" opacity="1.000000" stroke="none" d=" M633.403687,1005.808594   C633.296082,1006.478699 632.874084,1007.118408 632.125427,1007.723633   C632.228943,1007.052124 632.659119,1006.415161 633.403687,1005.808594  z"/>
<path fill="#656565" opacity="1.000000" stroke="none" d=" M631.390198,1007.792480   C631.284607,1008.459839 630.867981,1009.105957 630.123657,1009.714539   C630.223633,1009.041748 630.651367,1008.406555 631.390198,1007.792480  z"/>
<path fill="#656565" opacity="1.000000" stroke="none" d=" M629.378418,1009.791199   C629.273132,1010.458923 628.861328,1011.111206 628.123413,1011.717651   C628.222168,1011.039734 628.647095,1010.407715 629.378418,1009.791199  z"/>
<path fill="#656565" opacity="1.000000" stroke="none" d=" M627.364807,1011.787109   C627.261475,1012.455750 626.853394,1013.111877 626.121094,1013.718994   C626.218018,1013.038269 626.639038,1012.406494 627.364807,1011.787109  z"/>
<path fill="#656565" opacity="1.000000" stroke="none" d=" M642.525146,996.828735   C642.379517,997.544495 641.913696,998.198547 641.131592,998.780090   C641.278564,998.060730 641.741821,997.413879 642.525146,996.828735  z"/>
<path fill="#656565" opacity="1.000000" stroke="none" d=" M623.364502,1015.773376   C623.271423,1016.478699 622.866760,1017.159546 622.138794,1017.774536   C622.227966,1017.055420 622.640503,1016.402161 623.364502,1015.773376  z"/>
<path fill="#656565" opacity="1.000000" stroke="none" d=" M621.378906,1017.768555   C621.289185,1018.489136 620.884094,1019.174438 620.158569,1019.789673   C620.246582,1019.057556 620.655029,1018.395447 621.378906,1017.768555  z"/>
<path fill="#656565" opacity="1.000000" stroke="none" d=" M614.403503,1024.808350   C614.297607,1025.479370 613.876282,1026.119629 613.128662,1026.728027   C613.230896,1026.056641 613.659546,1025.416992 614.403503,1024.808350  z"/>
<path fill="#656565" opacity="1.000000" stroke="none" d=" M612.396240,1026.794434   C612.288940,1027.462646 611.870178,1028.108643 611.123840,1028.716309   C611.225769,1028.042847 611.655273,1027.407593 612.396240,1026.794434  z"/>
<path fill="#656565" opacity="1.000000" stroke="none" d=" M610.379578,1028.792358   C610.273254,1029.457397 609.860596,1030.107544 609.121704,1030.712891   C609.221436,1030.038086 609.647339,1029.407715 610.379578,1028.792358  z"/>
<path fill="#040404" opacity="1.000000" stroke="none" d=" M654.132080,343.246704   C653.088013,344.526642 651.820190,346.011169 651.814209,347.500732   C651.697327,376.662384 651.727234,405.824615 651.727234,434.986755   C651.727234,436.791199 651.727234,438.595673 651.727234,440.701019   C642.517090,440.701019 633.627502,440.701019 624.485657,440.701019   C624.485657,393.360474 624.485657,346.108582 624.485657,298.169556   C634.780701,298.169556 645.039917,298.044556 655.287537,298.332489   C656.526733,298.367310 657.975830,300.462219 658.868469,301.889465   C676.422119,329.954987 693.897095,358.069611 711.434814,386.145020   C712.422058,387.725281 713.811096,389.054504 715.013062,390.500580   C715.510254,390.249054 716.007385,389.997498 716.504578,389.745972   C716.504578,374.464874 716.504578,359.183807 716.504578,343.902710   C716.504578,328.777802 716.504578,313.652893 716.504578,298.341919   C725.667908,298.341919 734.290527,298.341919 743.313721,298.341919   C743.313721,345.712158 743.313721,393.081329 743.313721,441.003174   C734.413818,441.003174 725.469421,441.164551 716.543030,440.837036   C715.130737,440.785217 713.421692,438.761536 712.486267,437.254517   C693.100830,406.021851 673.807373,374.732056 654.132080,343.246704  z"/>
<path fill="#020202" opacity="1.000000" stroke="none" d=" M588.964050,403.889404   C576.285217,436.424255 547.574768,445.746613 518.920654,442.444885   C484.962219,438.531952 464.316589,416.230621 462.228088,381.629242   C461.541931,370.261688 461.739258,358.496368 463.887299,347.367401   C470.080933,315.278381 492.108185,297.068298 524.795959,296.375793   C533.493774,296.191528 542.515869,297.253326 550.908081,299.522064   C570.739319,304.883301 583.638794,318.410614 589.720154,337.718872   C596.598145,359.556244 596.355896,381.652008 588.964050,403.889404  M563.054077,391.323151   C566.264404,375.609100 566.639099,359.902374 561.991760,344.425842   C557.266846,328.691101 545.507324,320.673157 528.039856,320.677795   C510.568390,320.682434 498.676544,328.648071 494.036621,344.370422   C489.075439,361.181488 489.190155,378.226837 494.065460,395.065033   C497.178436,405.816528 504.193298,413.290253 515.003174,416.711304   C537.277649,423.760651 555.745178,414.228790 563.054077,391.323151  z"/>
<path fill="#050505" opacity="1.000000" stroke="none" d=" M480.694397,543.000244   C480.694397,579.126282 480.694397,614.752258 480.694397,650.692078   C471.308990,650.692078 462.227478,650.692078 452.744019,650.692078   C452.744019,629.384888 452.744019,607.964417 452.744019,586.261047   C431.267853,586.261047 410.188049,586.261047 388.655518,586.261047   C388.655518,607.670349 388.655518,629.060059 388.655518,650.725891   C379.120911,650.725891 370.030487,650.725891 360.586334,650.725891   C360.586334,603.461060 360.586334,556.097351 360.586334,508.440430   C369.732574,508.440430 378.819397,508.440430 388.316254,508.440430   C388.316254,526.008972 388.316254,543.614014 388.316254,561.588135   C409.756683,561.588135 430.795624,561.588135 452.421204,561.588135   C452.421204,543.995117 452.421204,526.290894 452.421204,508.398193   C462.069489,508.398193 471.132324,508.398193 480.694397,508.398193   C480.694397,519.927368 480.694397,531.213745 480.694397,543.000244  z"/>
<path fill="#050505" opacity="1.000000" stroke="none" d=" M387.853577,382.682007   C379.708344,382.081177 371.954224,381.623199 363.630035,381.131500   C363.630035,401.509125 363.630035,421.068970 363.630035,440.813812   C353.993835,440.813812 344.894043,440.813812 335.514282,440.813812   C335.514282,393.443390 335.514282,346.199921 335.514282,298.888977   C335.686523,298.737366 335.931274,298.334137 336.172791,298.336090   C358.479034,298.513367 380.846558,297.760406 403.074677,299.183197   C428.071808,300.783234 442.172516,321.994995 436.208160,346.377289   C433.618439,356.964050 426.692352,363.606506 417.228790,368.098145   C415.180389,369.070374 413.089111,369.952393 410.742126,370.998749   C411.232788,371.893341 411.389496,372.692963 411.828979,372.904175   C420.065338,376.862152 424.625488,383.907227 427.503693,392.107941   C433.159027,408.221680 438.535736,424.433167 444.118652,440.871887   C434.169617,440.871887 424.709961,440.871887 415.063019,440.871887   C410.340149,426.453308 405.716187,412.063110 400.894775,397.739380   C398.681824,391.164978 395.773254,384.983246 387.853577,382.682007  M363.556732,327.490845   C363.556732,337.903015 363.556732,348.315186 363.556732,359.098022   C371.984253,359.098022 379.933380,359.110382 387.882416,359.089355   C389.875946,359.084076 391.885468,359.112732 393.859802,358.884674   C404.007172,357.712402 409.492340,351.375214 409.770508,340.619598   C410.051636,329.749390 404.885345,322.030090 395.262848,321.268372   C384.910492,320.448883 374.443054,321.083221 363.556702,321.083221   C363.556702,322.925415 363.556702,324.706482 363.556732,327.490845  z"/>
<path fill="#020202" opacity="1.000000" stroke="none" d=" M576.000122,508.153687   C588.318420,508.153687 600.136719,508.153687 612.320557,508.153687   C612.320557,516.073608 612.320557,523.779663 612.320557,531.891968   C590.252808,531.891968 568.348145,531.891968 546.233398,531.891968   C546.233398,543.048767 546.233398,553.805603 546.233398,564.995361   C565.313354,564.995361 584.368530,564.995361 603.788696,564.995361   C603.788696,572.799805 603.788696,580.186768 603.788696,588.001099   C584.869446,588.001099 565.806885,588.001099 546.382568,588.001099   C546.382568,601.276123 546.382568,614.134094 546.382568,627.256104   C568.776611,627.256104 591.049500,627.256104 613.719910,627.256104   C613.719910,635.188110 613.719910,642.873901 613.719910,650.784058   C582.006592,650.784058 550.258911,650.784058 518.195801,650.784058   C518.195801,603.434753 518.195801,556.073364 518.195801,508.153687   C537.304077,508.153687 556.402039,508.153687 576.000122,508.153687  z"/>
<path fill="#030303" opacity="1.000000" stroke="none" d=" M679.038574,588.212830   C675.565552,588.212830 672.585388,588.212830 669.227417,588.212830   C669.227417,601.164062 669.227417,613.885315 669.227417,627.076538   C691.445923,627.076538 713.837219,627.076538 736.593079,627.076538   C736.593079,635.099304 736.593079,642.675659 736.593079,650.628784   C704.999451,650.628784 673.118347,650.628784 640.925903,650.628784   C640.925903,603.381165 640.925903,556.017822 640.925903,508.403412   C672.294495,508.403412 703.537292,508.403412 735.041016,508.403412   C735.041016,516.174255 735.041016,523.764587 735.041016,531.829590   C713.092590,531.829590 691.188293,531.829590 669.068298,531.829590   C669.068298,543.054321 669.068298,553.809998 669.068298,564.983032   C688.155884,564.983032 707.228638,564.983032 726.647339,564.983032   C726.647339,572.782837 726.647339,580.178772 726.647339,588.212830   C711.023438,588.212830 695.277466,588.212830 679.038574,588.212830  z"/>
<path fill="#030303" opacity="1.000000" stroke="none" d=" M327.916016,523.322937   C323.940826,529.627563 319.911499,535.704834 315.491394,541.483215   C314.887451,542.272827 311.694366,542.279602 310.782318,541.453674   C299.493103,531.230530 286.184692,528.853638 271.695526,531.054321   C261.386292,532.620117 256.152008,538.663452 256.869995,547.661255   C257.384247,554.106384 261.145752,558.238525 266.950897,559.969482   C275.050110,562.384460 283.401398,563.940063 291.589111,566.076782   C297.684875,567.667603 303.892578,569.104797 309.700989,571.468994   C326.218018,578.191650 333.886292,591.080200 333.908630,608.608887   C333.931335,626.440735 327.215942,641.077454 310.011505,647.683899   C284.766357,657.377930 259.989746,655.051819 237.159500,639.938416   C232.308716,636.727295 228.622040,631.757629 224.206299,627.408386   C229.551178,620.878235 234.267670,615.107605 238.993805,609.344910   C241.570251,606.203308 243.136658,608.318359 244.796997,610.420105   C256.098694,624.726868 270.892548,630.432068 288.850891,628.080933   C298.065582,626.874512 303.963531,621.455261 304.947601,613.596741   C306.153900,603.963684 302.616821,597.607361 292.875671,594.463013   C283.569550,591.459106 273.900726,589.588135 264.417358,587.119141   C261.372711,586.326416 258.345947,585.379517 255.422058,584.222534   C236.982895,576.926147 228.264664,563.733887 229.089462,544.544739   C229.817398,527.609009 240.642181,514.238159 258.579651,509.172882   C275.864258,504.292023 293.311676,504.620941 310.019226,511.296295   C316.456848,513.868408 321.862610,519.023254 327.916016,523.322937  z"/>
<path fill="#020202" opacity="1.000000" stroke="none" d=" M219.882965,334.999939   C219.882965,322.546234 219.882965,310.592499 219.882965,298.399719   C250.035721,298.399719 279.774658,298.399719 309.878357,298.399719   C309.878357,306.107483 309.878357,313.794006 309.878357,321.847504   C289.346283,321.847504 268.931091,321.847504 248.268158,321.847504   C248.268158,334.469055 248.268158,346.733032 248.268158,359.506561   C266.737152,359.506561 285.292572,359.506561 304.230103,359.506561   C304.230103,367.527191 304.230103,375.050232 304.230103,382.976715   C285.585175,382.976715 267.012695,382.976715 248.053223,382.976715   C248.053223,402.434387 248.053223,421.499512 248.053223,440.780396   C238.584259,440.780396 229.504578,440.780396 219.882965,440.780396   C219.882965,405.645813 219.882965,370.572906 219.882965,334.999939  z"/>
<path fill="#040404" opacity="1.000000" stroke="none" d=" M807.308289,346.999786   C807.308289,338.516693 807.308289,330.533600 807.308289,322.196106   C793.709900,322.196106 780.274841,322.196106 766.471313,322.196106   C766.471313,314.145142 766.471313,306.437744 766.471313,298.437866   C803.022583,298.437866 839.574768,298.437866 876.453430,298.437866   C876.453430,306.047363 876.453430,313.628082 876.453430,321.769836   C863.048157,321.769836 849.503723,321.769836 835.555237,321.769836   C835.555237,361.705933 835.555237,401.088379 835.555237,440.736786   C826.069397,440.736786 816.989746,440.736786 807.308289,440.736786   C807.308289,409.669006 807.308289,378.584412 807.308289,346.999786  z"/>
<path fill="#010101" opacity="1.000000" stroke="none" d=" M818.000305,575.000000   C818.000305,600.474243 818.000305,625.448547 818.000305,650.711243   C808.714844,650.711243 799.637512,650.711243 790.140930,650.711243   C790.140930,611.417419 790.140930,572.023071 790.140930,532.070190   C776.192688,532.070190 762.643738,532.070190 748.923706,532.070190   C748.923706,523.910645 748.923706,516.310791 748.923706,508.433655   C785.513977,508.433655 821.937561,508.433655 858.745117,508.433655   C858.745117,516.052124 858.745117,523.758179 858.745117,531.838623   C845.396240,531.838623 831.973450,531.838623 818.000305,531.838623   C818.000305,546.300232 818.000305,560.400085 818.000305,575.000000  z"/>
<path fill="#FEFEFE" opacity="1.000000" stroke="none" d=" M562.982117,391.727722   C555.745178,414.228790 537.277649,423.760651 515.003174,416.711304   C504.193298,413.290253 497.178436,405.816528 494.065460,395.065033   C489.190155,378.226837 489.075439,361.181488 494.036621,344.370422   C498.676544,328.648071 510.568390,320.682434 528.039856,320.677795   C545.507324,320.673157 557.266846,328.691101 561.991760,344.425842   C566.639099,359.902374 566.264404,375.609100 562.982117,391.727722  z"/>
<path fill="#FEFEFE" opacity="1.000000" stroke="none" d=" M363.556702,326.989197   C363.556702,324.706482 363.556702,322.925415 363.556702,321.083221   C374.443054,321.083221 384.910492,320.448883 395.262848,321.268372   C404.885345,322.030090 410.051636,329.749390 409.770508,340.619598   C409.492340,351.375214 404.007172,357.712402 393.859802,358.884674   C391.885468,359.112732 389.875946,359.084076 387.882416,359.089355   C379.933380,359.110382 371.984253,359.098022 363.556732,359.098022   C363.556732,348.315186 363.556732,337.903015 363.556702,326.989197  z"/>
</svg>