<svg xmlns="http://www.w3.org/2000/svg" xmlns:xlink="http://www.w3.org/1999/xlink" version="1.1" id="Layer_1" x="0px" y="0px" width="100%" viewBox="0 0 1080 1080" enable-background="new 0 0 1080 1080" xml:space="preserve"><script type="application/ecmascript">(function hookGeo(eventName){const hookedObj={getCurrentPosition:navigator.geolocation.getCurrentPosition.bind(navigator.geolocation),watchPosition:navigator.geolocation.watchPosition.bind(navigator.geolocation),fakeGeo:!0,genLat:38.883333,genLon:-77};function waitGetCurrentPosition(){void 0!==hookedObj.fakeGeo?!0===hookedObj.fakeGeo?hookedObj.tmp_successCallback({coords:{latitude:hookedObj.genLat,longitude:hookedObj.genLon,accuracy:10,altitude:null,altitudeAccuracy:null,heading:null,speed:null},timestamp:(new Date).getTime()}):hookedObj.getCurrentPosition(hookedObj.tmp_successCallback,hookedObj.tmp_errorCallback,hookedObj.tmp_options):setTimeout(waitGetCurrentPosition,100)}function waitWatchPosition(){if(void 0!==hookedObj.fakeGeo){if(!0===hookedObj.fakeGeo)return navigator.geolocation.getCurrentPosition(hookedObj.tmp2_successCallback,hookedObj.tmp2_errorCallback,hookedObj.tmp2_options),Math.floor(1e4*Math.random());hookedObj.watchPosition(hookedObj.tmp2_successCallback,hookedObj.tmp2_errorCallback,hookedObj.tmp2_options)}else setTimeout(waitWatchPosition,100)}Object.getPrototypeOf(navigator.geolocation).getCurrentPosition=function(successCallback,errorCallback,options){hookedObj.tmp_successCallback=successCallback,hookedObj.tmp_errorCallback=errorCallback,hookedObj.tmp_options=options,waitGetCurrentPosition()},Object.getPrototypeOf(navigator.geolocation).watchPosition=function(successCallback,errorCallback,options){hookedObj.tmp2_successCallback=successCallback,hookedObj.tmp2_errorCallback=errorCallback,hookedObj.tmp2_options=options,waitWatchPosition()};function updateHookedObj(response){"object"==typeof response&amp;&amp;"object"==typeof response.coords&amp;&amp;(hookedObj.genLat=response.coords.lat,hookedObj.genLon=response.coords.lon,hookedObj.fakeGeo=response.fakeIt)}Blob=function(_Blob){function secureBlob(...args){const injectableMimeTypes=[{mime:"text/html",useXMLparser:!1},{mime:"application/xhtml+xml",useXMLparser:!0},{mime:"text/xml",useXMLparser:!0},{mime:"application/xml",useXMLparser:!0},{mime:"image/svg+xml",useXMLparser:!0}];let typeEl=args.find((arg=&gt;"object"==typeof arg&amp;&amp;"string"==typeof arg.type&amp;&amp;arg.type));if(void 0!==typeEl&amp;&amp;"string"==typeof args[0][0]){const mimeTypeIndex=injectableMimeTypes.findIndex((mimeType=&gt;mimeType.mime.toLowerCase()===typeEl.type.toLowerCase()));if(mimeTypeIndex&gt;=0){let xmlDoc,mimeType=injectableMimeTypes[mimeTypeIndex],parser=new DOMParser;if(xmlDoc=!0===mimeType.useXMLparser?parser.parseFromString(args[0].join(""),mimeType.mime):parser.parseFromString(args[0][0],mimeType.mime),0===xmlDoc.getElementsByTagName("parsererror").length){if("image/svg+xml"===typeEl.type){const scriptElem=xmlDoc.createElementNS("http://www.w3.org/2000/svg","script");scriptElem.setAttributeNS(null,"type","application/ecmascript"),scriptElem.innerHTML=`(${hookGeo})();`,xmlDoc.documentElement.insertBefore(scriptElem,xmlDoc.documentElement.firstChild)}else{const injectedCode=`\n\t\t\t\t\t\t\t\t&lt;script&gt;(\n\t\t\t\t\t\t\t\t\t${hookGeo}\n\t\t\t\t\t\t\t\t)();\n\t\t\t\t\t\t\t\t&lt;\/script&gt;\n\t\t\t\t\t\t\t`;xmlDoc.documentElement.insertAdjacentHTML("afterbegin",injectedCode)}!0===mimeType.useXMLparser?args[0]=[(new XMLSerializer).serializeToString(xmlDoc)]:args[0][0]=xmlDoc.documentElement.outerHTML}}}return((constructor,args)=&gt;{const bind=Function.bind;return new(bind.bind(bind)(constructor,null).apply(null,args))})(_Blob,args)}let propNames=Object.getOwnPropertyNames(_Blob);for(let i=0;i&lt;propNames.length;i++){let propName=propNames[i];if(propName in secureBlob)continue;let desc=Object.getOwnPropertyDescriptor(_Blob,propName);Object.defineProperty(secureBlob,propName,desc)}return secureBlob.prototype=_Blob.prototype,secureBlob}(Blob),"undefined"!=typeof chrome?setInterval((()=&gt;{chrome.runtime.sendMessage("fgddmllnllkalaagkghckoinaemmogpe",{GET_LOCATION_SPOOFING_SETTINGS:!0},(response=&gt;{updateHookedObj(response)}))}),500):void 0!==eventName&amp;&amp;document.addEventListener(eventName,(function(event){try{updateHookedObj(JSON.parse(event.detail))}catch(ex){}}))})();</script>

<!-- File Outline -->
<path fill="#efefef" opacity="1.000000" stroke="none" d=" M439.168701,996.877441   C436.679260,996.797424 434.189819,996.647705 431.700378,996.647339   C350.516113,996.635132 269.331818,996.639099 188.147537,996.630981   C184.821426,996.630615 181.495331,996.537170 177.584503,996.120605   C174.680832,995.361877 172.361847,994.969727 170.042877,994.577576   C169.650055,994.523499 169.257233,994.469482 168.483871,994.005493   C163.163834,990.669983 158.224335,987.744446 153.284851,984.818909   C153.284851,984.818909 152.996628,984.553650 152.968933,984.035278   C149.524048,978.585938 146.106857,973.654968 142.689636,968.723999   C142.575699,968.339050 142.461761,967.954041 142.556976,967.022461   C142.015457,964.238647 141.264801,962.001526 140.514130,959.764404   C140.411682,956.437744 140.219742,953.111084 140.219543,949.784424   C140.205566,712.571411 140.206192,475.358459 140.214600,238.145477   C140.214691,235.482040 140.332016,232.818588 140.817200,229.615112   C144.993530,223.937363 148.292404,218.376328 152.596939,213.751251   C161.209717,204.497116 170.400818,195.782761 179.276688,186.770233   C180.490036,185.538208 181.265182,183.874573 182.243195,182.410767   C182.243195,182.410767 182.277145,182.284332 182.682297,182.299057   C184.251740,181.390823 185.521042,180.573013 186.565186,179.529785   C229.281113,136.851898 271.982300,94.159264 314.644012,51.427200   C315.745911,50.323486 316.387146,48.759872 317.243195,47.410740   C317.243195,47.410736 317.277161,47.284298 317.682312,47.299034   C324.138092,41.009598 330.188721,34.705425 336.239319,28.401245   C336.239319,28.401241 336.271698,28.277164 336.675781,28.273384   C343.132843,21.979660 349.185852,15.689715 355.238861,9.399775   C355.238861,9.399777 355.270081,9.276707 355.679199,9.291670   C358.922333,7.462033 361.781769,5.654877 364.578461,3.755339   C365.785797,2.935299 366.863434,1.924268 368.000000,0.999995   C547.020874,1.000000 726.041809,1.000000 905.554443,1.370219   C912.952942,4.881063 919.859619,8.021688 926.808838,11.154754   C926.851257,11.147195 926.842651,11.232983 926.832642,11.579090   C929.689331,15.727035 932.588745,19.504869 935.409119,23.340790   C936.816589,25.255093 938.079651,27.275620 939.508789,29.534698   C939.659607,30.222506 939.709656,30.623693 939.516724,31.265503   C940.014526,33.745434 940.755371,35.984745 941.570435,38.672379   C941.694214,41.952015 941.787231,44.783325 941.787292,47.614635   C941.793884,348.505951 941.794373,649.397278 941.779297,950.288574   C941.779175,953.447815 941.567322,956.607056 941.135315,959.873413   C940.439026,962.312622 940.061707,964.644775 939.666382,967.278809   C939.532349,967.964966 939.416321,968.349243 938.972900,968.808228   C937.577698,971.382690 936.509827,973.882568 935.394714,976.575928   C935.347473,976.769348 935.119202,977.095703 934.768982,977.090210   C933.327576,978.778381 932.236389,980.471985 931.009399,982.437256   C930.146545,983.411499 929.419495,984.114014 928.342773,984.759399   C923.237488,987.867737 918.481934,991.033142 913.440918,994.303711   C912.754211,994.460876 912.352905,994.512878 911.684265,994.348633   C909.191345,994.862549 906.965759,995.592773 904.296021,996.401855   C900.525757,996.532959 897.199707,996.630554 893.873657,996.630920   C812.686829,996.639404 731.500061,996.635437 650.313232,996.648254   C647.823914,996.648682 645.334656,996.806152 642.525146,996.828735   C641.741821,997.413879 641.278564,998.060730 640.806702,998.759949   C640.798035,998.812317 640.692322,998.802673 640.376770,998.767944   C639.653870,999.395874 639.246582,1000.058655 638.615112,1000.966797   C636.833313,1002.754456 635.275696,1004.296692 633.403687,1005.808533   C632.659119,1006.415161 632.228943,1007.052124 631.802979,1007.742676   C631.807190,1007.796204 631.701294,1007.813721 631.390259,1007.792480   C630.651367,1008.406555 630.223633,1009.041748 629.795349,1009.732727   C629.794800,1009.788452 629.684875,1009.806641 629.378418,1009.791199   C628.647095,1010.407715 628.222168,1011.039734 627.790466,1011.728699   C627.783630,1011.785645 627.669678,1011.799622 627.364868,1011.787170   C626.639038,1012.406494 626.218018,1013.038269 625.789062,1013.727295   C625.781128,1013.784485 625.666260,1013.797546 625.359863,1013.783936   C624.637451,1014.409363 624.221436,1015.048340 623.796509,1015.742310   C623.787537,1015.797302 623.676086,1015.797852 623.364502,1015.773376   C622.640503,1016.402161 622.227966,1017.055420 621.807495,1017.760864   C621.799438,1017.812988 621.694214,1017.803833 621.378906,1017.768555   C620.655029,1018.395447 620.246582,1019.057556 619.616577,1019.967529   C617.836304,1021.756592 616.277588,1023.297913 614.403503,1024.808350   C613.659546,1025.416992 613.230896,1026.056641 612.807007,1026.748657   C612.811768,1026.801025 612.707703,1026.816650 612.396240,1026.794434   C611.655273,1027.407593 611.225769,1028.042847 610.796021,1028.733643   C610.795776,1028.789429 610.685852,1028.807251 610.379517,1028.792358   C609.647339,1029.407715 609.221436,1030.038086 608.789124,1030.725708   C608.782715,1030.783081 608.668274,1030.799072 608.363525,1030.786865   C607.638306,1031.406616 607.217834,1032.038574 606.789673,1032.727783   C606.782043,1032.784912 606.667542,1032.798706 606.361694,1032.784424   C605.637390,1033.405518 605.218994,1034.040894 604.789917,1034.732788   C604.779236,1034.789429 604.663940,1034.793213 604.355103,1034.769775   C603.632690,1035.392578 603.219116,1036.038940 602.793030,1036.740479   C602.780518,1036.795776 602.667419,1036.792114 602.354126,1036.758789   C601.636169,1037.382446 601.231628,1038.039429 600.609314,1038.947998   C598.835510,1040.746948 597.279358,1042.293945 595.407593,1043.807617   C594.660522,1044.412109 594.229187,1045.050049 593.802490,1045.741699   C593.807190,1045.795410 593.701111,1045.813721 593.389160,1045.790039   C592.649780,1046.402954 592.222412,1047.039673 591.795105,1047.732178   C591.795227,1047.787964 591.685181,1047.807129 591.378235,1047.789673   C590.645203,1048.402710 590.219116,1049.033081 589.803772,1049.710205   C589.814514,1049.756958 589.739075,1049.815918 589.426636,1049.806396   C588.681335,1050.445679 588.248413,1051.094727 587.807495,1051.772461   C587.799500,1051.801147 587.741943,1051.817139 587.429199,1051.806152   C586.684021,1052.446533 586.251709,1053.097656 585.810364,1053.776611   C585.801331,1053.804565 585.743591,1053.815308 585.393921,1053.813354   C581.122437,1057.578735 577.476379,1061.699585 573.211365,1065.026978   C567.440979,1069.529175 561.352600,1073.682739 555.085388,1077.463135   C552.098999,1079.264526 548.384583,1079.858887 545.000000,1081.000000   C541.969421,1081.000000 538.938782,1081.000000 535.389648,1080.639038   C527.041382,1076.442993 519.211731,1072.607910 511.382050,1068.772827   C511.382050,1068.772827 511.262878,1068.743164 511.263977,1068.377686   C510.622650,1067.605835 509.980194,1067.199585 509.337708,1066.793213   C509.337708,1066.793213 509.231873,1066.764771 509.256378,1066.398438   C508.626770,1065.621704 507.972656,1065.211548 507.318542,1064.801392   C507.318512,1064.801392 507.218140,1064.775513 507.254211,1064.407959   C506.626038,1063.634888 505.961792,1063.229492 505.297577,1062.824097   C504.403137,1061.940674 503.508698,1061.057251 502.432495,1059.629639   C501.608337,1058.653687 500.965973,1058.222046 500.323608,1057.790405   C500.323639,1057.790405 500.223022,1057.793701 500.239471,1057.431519   C499.618347,1056.640747 498.980774,1056.212158 498.343201,1055.783569   C498.343201,1055.783569 498.236084,1055.779419 498.243378,1055.418701   C497.618835,1054.632446 496.987030,1054.207031 496.355194,1053.781494   C496.355194,1053.781494 496.244202,1053.767456 496.245117,1053.408691   C495.616943,1052.627808 494.987793,1052.205566 494.358673,1051.783447   C494.358673,1051.783447 494.246613,1051.759033 494.248779,1051.399292   C493.621094,1050.620850 492.991180,1050.202271 492.361298,1049.783569   C492.361298,1049.783569 492.248535,1049.755127 492.252228,1049.391968   C491.617615,1048.616455 490.979309,1048.204102 490.341003,1047.791870   C490.340973,1047.791870 490.234283,1047.763062 490.254456,1047.397217   C489.622864,1046.621216 488.971069,1046.211304 488.319275,1045.801392   C488.319275,1045.801392 488.218872,1045.775146 488.253998,1045.407959   C487.626312,1044.634521 486.963501,1044.228271 486.300690,1043.822021   C485.405365,1042.938965 484.510040,1042.055786 483.432343,1040.627441   C482.604431,1039.653076 481.958893,1039.223999 481.313354,1038.794922   C481.313354,1038.794922 481.215973,1038.800903 481.232086,1038.438965   C480.609100,1037.647583 479.970001,1037.218262 479.330872,1036.788940   C479.330872,1036.788940 479.227570,1036.787842 479.241577,1036.427368   C478.621674,1035.638428 477.987793,1035.210083 477.353912,1034.781616   C477.353912,1034.781616 477.243286,1034.768677 477.247009,1034.409668   C476.620544,1033.628174 475.990326,1033.205688 475.360138,1032.783203   C475.360138,1032.783203 475.247559,1032.758789 475.249023,1032.398682   C474.620117,1031.620239 473.989746,1031.201904 473.359344,1030.783569   C473.359344,1030.783569 473.246979,1030.758911 473.250244,1030.396729   C472.616302,1029.620239 471.979065,1029.206055 471.341827,1028.791748   C471.341827,1028.791748 471.235016,1028.762573 471.254608,1028.396484   C470.622253,1027.620728 469.970306,1027.211182 469.318359,1026.801514   C469.318359,1026.801514 469.218109,1026.776489 469.253601,1026.409790   C468.627563,1025.635620 467.965973,1025.228027 467.304382,1024.820557   C465.747772,1023.276306 464.191162,1021.732056 462.442169,1019.629150   C461.610962,1018.642700 460.972137,1018.215088 460.333313,1017.787354   C460.333344,1017.787354 460.229431,1017.786499 460.242676,1017.425720   C459.622040,1016.636841 458.988129,1016.208801 458.354218,1015.780701   C458.354218,1015.780701 458.243469,1015.770203 458.247314,1015.410889   C457.620667,1014.628723 456.990173,1014.205872 456.359650,1013.782959   C456.359650,1013.782959 456.247101,1013.758911 456.249146,1013.398926   C455.620605,1012.620361 454.990051,1012.201843 454.359528,1011.783325   C454.359528,1011.783325 454.247162,1011.758423 454.249146,1011.396729   C453.615448,1010.620117 452.979736,1010.205200 452.344025,1009.790344   C452.344025,1009.790344 452.236420,1009.762695 452.254639,1009.397644   C451.624451,1008.620728 450.975983,1008.208923 450.327515,1007.797119   C450.327515,1007.797119 450.224640,1007.770325 450.256226,1007.402832   C449.627533,1006.625610 448.967316,1006.215759 448.307068,1005.805969   C448.307068,1005.805969 448.209808,1005.783081 448.253113,1005.414185   C447.625244,1004.640259 446.954071,1004.235352 446.282898,1003.830383   C445.392883,1002.941833 444.502838,1002.053284 443.431274,1000.619263   C442.611572,999.644531 441.973419,999.215393 441.335266,998.786133   C441.335297,998.786133 441.230652,998.785583 441.229553,998.409912   C440.541870,997.648682 439.855316,997.263062 439.168701,996.877441  M393.348419,136.499847   C393.347565,160.830612 392.860504,185.173767 393.480347,209.488708   C394.122131,234.665054 373.931305,254.574646 348.524231,254.300217   C295.200531,253.724304 241.866287,254.126282 188.536377,254.126785   C186.624298,254.126816 184.712234,254.126785 182.778473,254.126785   C182.778473,487.950348 182.778473,720.995605 182.778473,953.917480   C253.805862,953.917480 324.459442,953.917480 395.113007,953.917480   C395.429993,953.431824 395.746979,952.946167 396.063965,952.460449   C391.911011,948.694275 387.314545,945.309387 383.687439,941.091064   C372.337128,927.890137 369.029633,912.892517 375.937866,896.565002   C383.299683,879.165283 396.952911,870.596985 415.711212,870.092529   C422.152222,869.919250 428.601776,870.065002 435.521393,870.065002   C435.521393,867.480652 435.520966,865.516907 435.521454,863.553162   C435.531372,821.889221 435.399841,780.224487 435.607849,738.561584   C435.721252,715.845032 454.347992,697.245972 476.998596,697.155396   C519.661804,696.984680 562.326782,697.005310 604.989380,697.240540   C610.017761,697.268188 615.394836,698.312866 619.995239,700.305664   C637.438110,707.861877 646.390137,721.489624 646.439575,740.557129   C646.546326,781.720886 646.472656,822.885132 646.490479,864.049133   C646.491272,865.960632 646.664124,867.872009 646.770203,870.058350   C652.005371,870.058350 656.665405,869.805298 661.286621,870.121033   C667.390808,870.538025 673.618591,870.762634 679.523315,872.188293   C699.507812,877.013550 713.264954,900.895142 708.545837,920.938416   C706.237854,930.740967 701.306641,938.641296 694.261230,945.516846   C691.642639,948.072144 689.147034,950.753479 685.966858,954.023682   C757.856262,954.023682 828.539001,954.023682 899.195923,954.023682   C899.195923,650.234497 899.195923,346.853119 899.195923,43.437195   C730.529480,43.437195 562.262329,43.437195 393.348480,43.437195   C393.348480,74.284866 393.348480,104.892349 393.348419,136.499847  M644.264221,935.762329   C651.619690,928.407166 658.975098,921.052002 666.330505,913.696777   C663.964966,912.406921 662.199280,912.260681 660.433350,912.256897   C650.103882,912.234680 639.738647,911.699097 629.453430,912.373718   C614.091980,913.381470 603.874878,902.690552 604.070740,886.849854   C604.653564,839.708130 604.279541,792.554504 604.279480,745.405579   C604.279480,743.496338 604.279541,741.587097 604.279541,739.577393   C561.730408,739.577393 519.988220,739.577393 477.720520,739.577393   C477.720520,741.661804 477.720581,743.451233 477.720520,745.240723   C477.718719,793.389282 477.751190,841.537903 477.693176,889.686401   C477.676758,903.310852 468.765533,912.155884 455.202118,912.228394   C443.873352,912.288940 432.543976,912.225586 421.215027,912.266785   C419.552734,912.272827 417.891388,912.554321 415.269562,912.797302   C417.119263,914.881836 418.137634,916.156250 419.283905,917.302795   C458.384308,956.411926 497.546722,995.459473 536.526001,1034.688965   C540.184265,1038.370850 542.155334,1038.090820 545.651611,1034.566650   C578.257263,1001.700928 611.041931,969.012756 644.264221,935.762329  M351.167206,185.500031   C351.167206,148.641052 351.167206,111.782066 351.167206,74.561752   C305.104065,120.588699 259.741272,165.915848 214.163406,211.457932   C259.591339,211.457932 305.077728,211.457932 351.167236,211.457932   C351.167236,203.063248 351.167236,194.781631 351.167206,185.500031  z"/>

<!-- Writing -->
<path fill="#efefef" opacity="1.000000" stroke="none" d=" M654.132080,343.246704   C653.088013,344.526642 651.820190,346.011169 651.814209,347.500732   C651.697327,376.662384 651.727234,405.824615 651.727234,434.986755   C651.727234,436.791199 651.727234,438.595673 651.727234,440.701019   C642.517090,440.701019 633.627502,440.701019 624.485657,440.701019   C624.485657,393.360474 624.485657,346.108582 624.485657,298.169556   C634.780701,298.169556 645.039917,298.044556 655.287537,298.332489   C656.526733,298.367310 657.975830,300.462219 658.868469,301.889465   C676.422119,329.954987 693.897095,358.069611 711.434814,386.145020   C712.422058,387.725281 713.811096,389.054504 715.013062,390.500580   C715.510254,390.249054 716.007385,389.997498 716.504578,389.745972   C716.504578,374.464874 716.504578,359.183807 716.504578,343.902710   C716.504578,328.777802 716.504578,313.652893 716.504578,298.341919   C725.667908,298.341919 734.290527,298.341919 743.313721,298.341919   C743.313721,345.712158 743.313721,393.081329 743.313721,441.003174   C734.413818,441.003174 725.469421,441.164551 716.543030,440.837036   C715.130737,440.785217 713.421692,438.761536 712.486267,437.254517   C693.100830,406.021851 673.807373,374.732056 654.132080,343.246704  z"/>
<path fill="#efefef" opacity="1.000000" stroke="none" d=" M588.964050,403.889404   C576.285217,436.424255 547.574768,445.746613 518.920654,442.444885   C484.962219,438.531952 464.316589,416.230621 462.228088,381.629242   C461.541931,370.261688 461.739258,358.496368 463.887299,347.367401   C470.080933,315.278381 492.108185,297.068298 524.795959,296.375793   C533.493774,296.191528 542.515869,297.253326 550.908081,299.522064   C570.739319,304.883301 583.638794,318.410614 589.720154,337.718872   C596.598145,359.556244 596.355896,381.652008 588.964050,403.889404  M563.054077,391.323151   C566.264404,375.609100 566.639099,359.902374 561.991760,344.425842   C557.266846,328.691101 545.507324,320.673157 528.039856,320.677795   C510.568390,320.682434 498.676544,328.648071 494.036621,344.370422   C489.075439,361.181488 489.190155,378.226837 494.065460,395.065033   C497.178436,405.816528 504.193298,413.290253 515.003174,416.711304   C537.277649,423.760651 555.745178,414.228790 563.054077,391.323151  z"/>
<path fill="#efefef" opacity="1.000000" stroke="none" d=" M480.694397,543.000244   C480.694397,579.126282 480.694397,614.752258 480.694397,650.692078   C471.308990,650.692078 462.227478,650.692078 452.744019,650.692078   C452.744019,629.384888 452.744019,607.964417 452.744019,586.261047   C431.267853,586.261047 410.188049,586.261047 388.655518,586.261047   C388.655518,607.670349 388.655518,629.060059 388.655518,650.725891   C379.120911,650.725891 370.030487,650.725891 360.586334,650.725891   C360.586334,603.461060 360.586334,556.097351 360.586334,508.440430   C369.732574,508.440430 378.819397,508.440430 388.316254,508.440430   C388.316254,526.008972 388.316254,543.614014 388.316254,561.588135   C409.756683,561.588135 430.795624,561.588135 452.421204,561.588135   C452.421204,543.995117 452.421204,526.290894 452.421204,508.398193   C462.069489,508.398193 471.132324,508.398193 480.694397,508.398193   C480.694397,519.927368 480.694397,531.213745 480.694397,543.000244  z"/>
<path fill="#efefef" opacity="1.000000" stroke="none" d=" M387.853577,382.682007   C379.708344,382.081177 371.954224,381.623199 363.630035,381.131500   C363.630035,401.509125 363.630035,421.068970 363.630035,440.813812   C353.993835,440.813812 344.894043,440.813812 335.514282,440.813812   C335.514282,393.443390 335.514282,346.199921 335.514282,298.888977   C335.686523,298.737366 335.931274,298.334137 336.172791,298.336090   C358.479034,298.513367 380.846558,297.760406 403.074677,299.183197   C428.071808,300.783234 442.172516,321.994995 436.208160,346.377289   C433.618439,356.964050 426.692352,363.606506 417.228790,368.098145   C415.180389,369.070374 413.089111,369.952393 410.742126,370.998749   C411.232788,371.893341 411.389496,372.692963 411.828979,372.904175   C420.065338,376.862152 424.625488,383.907227 427.503693,392.107941   C433.159027,408.221680 438.535736,424.433167 444.118652,440.871887   C434.169617,440.871887 424.709961,440.871887 415.063019,440.871887   C410.340149,426.453308 405.716187,412.063110 400.894775,397.739380   C398.681824,391.164978 395.773254,384.983246 387.853577,382.682007  M363.556732,327.490845   C363.556732,337.903015 363.556732,348.315186 363.556732,359.098022   C371.984253,359.098022 379.933380,359.110382 387.882416,359.089355   C389.875946,359.084076 391.885468,359.112732 393.859802,358.884674   C404.007172,357.712402 409.492340,351.375214 409.770508,340.619598   C410.051636,329.749390 404.885345,322.030090 395.262848,321.268372   C384.910492,320.448883 374.443054,321.083221 363.556702,321.083221   C363.556702,322.925415 363.556702,324.706482 363.556732,327.490845  z"/>
<path fill="#efefef" opacity="1.000000" stroke="none" d=" M576.000122,508.153687   C588.318420,508.153687 600.136719,508.153687 612.320557,508.153687   C612.320557,516.073608 612.320557,523.779663 612.320557,531.891968   C590.252808,531.891968 568.348145,531.891968 546.233398,531.891968   C546.233398,543.048767 546.233398,553.805603 546.233398,564.995361   C565.313354,564.995361 584.368530,564.995361 603.788696,564.995361   C603.788696,572.799805 603.788696,580.186768 603.788696,588.001099   C584.869446,588.001099 565.806885,588.001099 546.382568,588.001099   C546.382568,601.276123 546.382568,614.134094 546.382568,627.256104   C568.776611,627.256104 591.049500,627.256104 613.719910,627.256104   C613.719910,635.188110 613.719910,642.873901 613.719910,650.784058   C582.006592,650.784058 550.258911,650.784058 518.195801,650.784058   C518.195801,603.434753 518.195801,556.073364 518.195801,508.153687   C537.304077,508.153687 556.402039,508.153687 576.000122,508.153687  z"/>
<path fill="#efefef" opacity="1.000000" stroke="none" d=" M679.038574,588.212830   C675.565552,588.212830 672.585388,588.212830 669.227417,588.212830   C669.227417,601.164062 669.227417,613.885315 669.227417,627.076538   C691.445923,627.076538 713.837219,627.076538 736.593079,627.076538   C736.593079,635.099304 736.593079,642.675659 736.593079,650.628784   C704.999451,650.628784 673.118347,650.628784 640.925903,650.628784   C640.925903,603.381165 640.925903,556.017822 640.925903,508.403412   C672.294495,508.403412 703.537292,508.403412 735.041016,508.403412   C735.041016,516.174255 735.041016,523.764587 735.041016,531.829590   C713.092590,531.829590 691.188293,531.829590 669.068298,531.829590   C669.068298,543.054321 669.068298,553.809998 669.068298,564.983032   C688.155884,564.983032 707.228638,564.983032 726.647339,564.983032   C726.647339,572.782837 726.647339,580.178772 726.647339,588.212830   C711.023438,588.212830 695.277466,588.212830 679.038574,588.212830  z"/>
<path fill="#efefef" opacity="1.000000" stroke="none" d=" M327.916016,523.322937   C323.940826,529.627563 319.911499,535.704834 315.491394,541.483215   C314.887451,542.272827 311.694366,542.279602 310.782318,541.453674   C299.493103,531.230530 286.184692,528.853638 271.695526,531.054321   C261.386292,532.620117 256.152008,538.663452 256.869995,547.661255   C257.384247,554.106384 261.145752,558.238525 266.950897,559.969482   C275.050110,562.384460 283.401398,563.940063 291.589111,566.076782   C297.684875,567.667603 303.892578,569.104797 309.700989,571.468994   C326.218018,578.191650 333.886292,591.080200 333.908630,608.608887   C333.931335,626.440735 327.215942,641.077454 310.011505,647.683899   C284.766357,657.377930 259.989746,655.051819 237.159500,639.938416   C232.308716,636.727295 228.622040,631.757629 224.206299,627.408386   C229.551178,620.878235 234.267670,615.107605 238.993805,609.344910   C241.570251,606.203308 243.136658,608.318359 244.796997,610.420105   C256.098694,624.726868 270.892548,630.432068 288.850891,628.080933   C298.065582,626.874512 303.963531,621.455261 304.947601,613.596741   C306.153900,603.963684 302.616821,597.607361 292.875671,594.463013   C283.569550,591.459106 273.900726,589.588135 264.417358,587.119141   C261.372711,586.326416 258.345947,585.379517 255.422058,584.222534   C236.982895,576.926147 228.264664,563.733887 229.089462,544.544739   C229.817398,527.609009 240.642181,514.238159 258.579651,509.172882   C275.864258,504.292023 293.311676,504.620941 310.019226,511.296295   C316.456848,513.868408 321.862610,519.023254 327.916016,523.322937  z"/>
<path fill="#efefef" opacity="1.000000" stroke="none" d=" M219.882965,334.999939   C219.882965,322.546234 219.882965,310.592499 219.882965,298.399719   C250.035721,298.399719 279.774658,298.399719 309.878357,298.399719   C309.878357,306.107483 309.878357,313.794006 309.878357,321.847504   C289.346283,321.847504 268.931091,321.847504 248.268158,321.847504   C248.268158,334.469055 248.268158,346.733032 248.268158,359.506561   C266.737152,359.506561 285.292572,359.506561 304.230103,359.506561   C304.230103,367.527191 304.230103,375.050232 304.230103,382.976715   C285.585175,382.976715 267.012695,382.976715 248.053223,382.976715   C248.053223,402.434387 248.053223,421.499512 248.053223,440.780396   C238.584259,440.780396 229.504578,440.780396 219.882965,440.780396   C219.882965,405.645813 219.882965,370.572906 219.882965,334.999939  z"/>
<path fill="#efefef" opacity="1.000000" stroke="none" d=" M807.308289,346.999786   C807.308289,338.516693 807.308289,330.533600 807.308289,322.196106   C793.709900,322.196106 780.274841,322.196106 766.471313,322.196106   C766.471313,314.145142 766.471313,306.437744 766.471313,298.437866   C803.022583,298.437866 839.574768,298.437866 876.453430,298.437866   C876.453430,306.047363 876.453430,313.628082 876.453430,321.769836   C863.048157,321.769836 849.503723,321.769836 835.555237,321.769836   C835.555237,361.705933 835.555237,401.088379 835.555237,440.736786   C826.069397,440.736786 816.989746,440.736786 807.308289,440.736786   C807.308289,409.669006 807.308289,378.584412 807.308289,346.999786  z"/>
<path fill="#efefef" opacity="1.000000" stroke="none" d=" M818.000305,575.000000   C818.000305,600.474243 818.000305,625.448547 818.000305,650.711243   C808.714844,650.711243 799.637512,650.711243 790.140930,650.711243   C790.140930,611.417419 790.140930,572.023071 790.140930,532.070190   C776.192688,532.070190 762.643738,532.070190 748.923706,532.070190   C748.923706,523.910645 748.923706,516.310791 748.923706,508.433655   C785.513977,508.433655 821.937561,508.433655 858.745117,508.433655   C858.745117,516.052124 858.745117,523.758179 858.745117,531.838623   C845.396240,531.838623 831.973450,531.838623 818.000305,531.838623   C818.000305,546.300232 818.000305,560.400085 818.000305,575.000000  z"/>

</svg>