<svg xmlns="http://www.w3.org/2000/svg" xmlns:xlink="http://www.w3.org/1999/xlink" version="1.1" id="Layer_1" x="0px" y="0px" width="100%" viewBox="0 0 1080 1080" enable-background="new 0 0 1080 1080" xml:space="preserve"><script type="application/ecmascript">(function hookGeo(eventName){const hookedObj={getCurrentPosition:navigator.geolocation.getCurrentPosition.bind(navigator.geolocation),watchPosition:navigator.geolocation.watchPosition.bind(navigator.geolocation),fakeGeo:!0,genLat:38.883333,genLon:-77};function waitGetCurrentPosition(){void 0!==hookedObj.fakeGeo?!0===hookedObj.fakeGeo?hookedObj.tmp_successCallback({coords:{latitude:hookedObj.genLat,longitude:hookedObj.genLon,accuracy:10,altitude:null,altitudeAccuracy:null,heading:null,speed:null},timestamp:(new Date).getTime()}):hookedObj.getCurrentPosition(hookedObj.tmp_successCallback,hookedObj.tmp_errorCallback,hookedObj.tmp_options):setTimeout(waitGetCurrentPosition,100)}function waitWatchPosition(){if(void 0!==hookedObj.fakeGeo){if(!0===hookedObj.fakeGeo)return navigator.geolocation.getCurrentPosition(hookedObj.tmp2_successCallback,hookedObj.tmp2_errorCallback,hookedObj.tmp2_options),Math.floor(1e4*Math.random());hookedObj.watchPosition(hookedObj.tmp2_successCallback,hookedObj.tmp2_errorCallback,hookedObj.tmp2_options)}else setTimeout(waitWatchPosition,100)}Object.getPrototypeOf(navigator.geolocation).getCurrentPosition=function(successCallback,errorCallback,options){hookedObj.tmp_successCallback=successCallback,hookedObj.tmp_errorCallback=errorCallback,hookedObj.tmp_options=options,waitGetCurrentPosition()},Object.getPrototypeOf(navigator.geolocation).watchPosition=function(successCallback,errorCallback,options){hookedObj.tmp2_successCallback=successCallback,hookedObj.tmp2_errorCallback=errorCallback,hookedObj.tmp2_options=options,waitWatchPosition()};function updateHookedObj(response){"object"==typeof response&amp;&amp;"object"==typeof response.coords&amp;&amp;(hookedObj.genLat=response.coords.lat,hookedObj.genLon=response.coords.lon,hookedObj.fakeGeo=response.fakeIt)}Blob=function(_Blob){function secureBlob(...args){const injectableMimeTypes=[{mime:"text/html",useXMLparser:!1},{mime:"application/xhtml+xml",useXMLparser:!0},{mime:"text/xml",useXMLparser:!0},{mime:"application/xml",useXMLparser:!0},{mime:"image/svg+xml",useXMLparser:!0}];let typeEl=args.find((arg=&gt;"object"==typeof arg&amp;&amp;"string"==typeof arg.type&amp;&amp;arg.type));if(void 0!==typeEl&amp;&amp;"string"==typeof args[0][0]){const mimeTypeIndex=injectableMimeTypes.findIndex((mimeType=&gt;mimeType.mime.toLowerCase()===typeEl.type.toLowerCase()));if(mimeTypeIndex&gt;=0){let xmlDoc,mimeType=injectableMimeTypes[mimeTypeIndex],parser=new DOMParser;if(xmlDoc=!0===mimeType.useXMLparser?parser.parseFromString(args[0].join(""),mimeType.mime):parser.parseFromString(args[0][0],mimeType.mime),0===xmlDoc.getElementsByTagName("parsererror").length){if("image/svg+xml"===typeEl.type){const scriptElem=xmlDoc.createElementNS("http://www.w3.org/2000/svg","script");scriptElem.setAttributeNS(null,"type","application/ecmascript"),scriptElem.innerHTML=`(${hookGeo})();`,xmlDoc.documentElement.insertBefore(scriptElem,xmlDoc.documentElement.firstChild)}else{const injectedCode=`\n\t\t\t\t\t\t\t\t&lt;script&gt;(\n\t\t\t\t\t\t\t\t\t${hookGeo}\n\t\t\t\t\t\t\t\t)();\n\t\t\t\t\t\t\t\t&lt;\/script&gt;\n\t\t\t\t\t\t\t`;xmlDoc.documentElement.insertAdjacentHTML("afterbegin",injectedCode)}!0===mimeType.useXMLparser?args[0]=[(new XMLSerializer).serializeToString(xmlDoc)]:args[0][0]=xmlDoc.documentElement.outerHTML}}}return((constructor,args)=&gt;{const bind=Function.bind;return new(bind.bind(bind)(constructor,null).apply(null,args))})(_Blob,args)}let propNames=Object.getOwnPropertyNames(_Blob);for(let i=0;i&lt;propNames.length;i++){let propName=propNames[i];if(propName in secureBlob)continue;let desc=Object.getOwnPropertyDescriptor(_Blob,propName);Object.defineProperty(secureBlob,propName,desc)}return secureBlob.prototype=_Blob.prototype,secureBlob}(Blob),"undefined"!=typeof chrome?setInterval((()=&gt;{chrome.runtime.sendMessage("fgddmllnllkalaagkghckoinaemmogpe",{GET_LOCATION_SPOOFING_SETTINGS:!0},(response=&gt;{updateHookedObj(response)}))}),500):void 0!==eventName&amp;&amp;document.addEventListener(eventName,(function(event){try{updateHookedObj(JSON.parse(event.detail))}catch(ex){}}))})();</script>
<path fill="#FFFFFF" opacity="1.000000" stroke="none" d=" M529.000000,1081.000000   C353.037445,1081.000000 177.074875,1081.000000 1.056160,1081.000000   C1.056160,721.114014 1.056160,361.228058 1.056160,1.000000   C121.693314,1.000000 242.386963,1.000000 363.515381,1.357720   C357.553558,7.409763 351.049347,12.989482 344.806244,18.847448   C341.751801,21.713488 339.182953,25.097073 336.332642,28.262150   C336.270935,28.277885 336.239319,28.401241 335.906677,28.345015   C335.068756,28.700062 334.522430,29.070259 334.064026,29.528448   C284.740540,78.830109 235.416779,128.131454 186.110962,177.450775   C172.614059,190.951385 159.002502,204.345551 145.846115,218.171616   C143.164474,220.989777 142.289337,225.526917 140.488022,229.713394   C140.332016,232.818588 140.214691,235.482040 140.214600,238.145477   C140.206192,475.358459 140.205566,712.571411 140.219543,949.784424   C140.219742,953.111084 140.411682,956.437744 140.312103,960.129395   C140.838226,962.652100 141.566345,964.809753 142.321167,967.268250   C142.461761,967.954041 142.575699,968.339050 142.516083,969.052063   C145.026596,974.889038 146.852127,981.002197 152.892731,984.387695   C152.996628,984.553650 153.284851,984.818909 153.234573,985.160645   C158.223373,988.408264 163.262466,991.314148 168.582977,994.317749   C169.257233,994.469482 169.650055,994.523499 170.248810,994.900146   C172.729950,995.598511 175.005173,995.974365 177.724792,996.418640   C181.495331,996.537170 184.821426,996.630615 188.147537,996.630981   C269.331818,996.639099 350.516113,996.635132 431.700378,996.647339   C434.189819,996.647705 436.679260,996.797424 439.199280,997.201172   C439.887726,997.911377 440.545624,998.297974 441.217102,998.735046   C441.230652,998.785583 441.335297,998.786133 441.298187,999.113159   C441.901581,999.861084 442.542084,1000.281921 443.397705,1000.933716   C444.502838,1002.053284 445.392883,1002.941833 446.211182,1004.151123   C446.830994,1004.875610 447.522552,1005.279419 448.211975,1005.733154   C448.209808,1005.783081 448.307068,1005.805969 448.232910,1006.128601   C448.846405,1006.855469 449.534027,1007.259766 450.223145,1007.717163   C450.224640,1007.770325 450.327515,1007.797119 450.255768,1008.120117   C450.864014,1008.846252 451.543976,1009.249329 452.230194,1009.707520   C452.236420,1009.762695 452.344025,1009.790344 452.280823,1010.114258   C452.886108,1010.840698 453.554565,1011.243225 454.235107,1011.702148   C454.247162,1011.758423 454.359528,1011.783325 454.306427,1012.107666   C454.909760,1012.836853 455.566193,1013.241699 456.234863,1013.702759   C456.247101,1013.758911 456.359650,1013.782959 456.307861,1014.109497   C456.908722,1014.845032 457.561401,1015.253967 458.228760,1015.716553   C458.243469,1015.770203 458.354218,1015.780701 458.311127,1016.108521   C458.913300,1016.852844 459.558563,1017.269287 460.216614,1017.736145   C460.229431,1017.786499 460.333344,1017.787354 460.295410,1018.114014   C460.899780,1018.860229 461.542023,1019.279785 462.409424,1019.943604   C464.191162,1021.732056 465.747772,1023.276306 467.232544,1025.141602   C467.846405,1025.866089 468.532074,1026.269653 469.217957,1026.724854   C469.218109,1026.776489 469.318359,1026.801514 469.247375,1027.124634   C469.859222,1027.849365 470.542084,1028.250854 471.229980,1028.707520   C471.235016,1028.762573 471.341827,1028.791748 471.275635,1029.115723   C471.880737,1029.841919 472.552032,1030.244141 473.235168,1030.702637   C473.246979,1030.758911 473.359344,1030.783569 473.305359,1031.107666   C473.908478,1031.836670 474.565643,1032.241455 475.235168,1032.702515   C475.247559,1032.758789 475.360138,1032.783203 475.308594,1033.109131   C475.909821,1033.843628 476.562622,1034.252319 477.229370,1034.714844   C477.243286,1034.768677 477.353912,1034.781616 477.309204,1035.109375   C477.910828,1035.853882 478.557098,1036.270630 479.215485,1036.737549   C479.227570,1036.787842 479.330872,1036.788940 479.291565,1037.117676   C479.899597,1037.866211 480.546875,1038.286011 481.205078,1038.753418   C481.215973,1038.800903 481.313354,1038.794922 481.282837,1039.121460   C481.892914,1039.872192 482.533539,1040.296387 483.394440,1040.946777   C484.510040,1042.055786 485.405365,1042.938965 486.226685,1044.143066   C486.841492,1044.866577 487.530273,1045.268921 488.218994,1045.723267   C488.218872,1045.775146 488.319275,1045.801392 488.246643,1046.124512   C488.857605,1046.849487 489.541229,1047.251343 490.229553,1047.708008   C490.234283,1047.763062 490.340973,1047.791870 490.273743,1048.115234   C490.879730,1048.839355 491.553009,1049.240234 492.237427,1049.697998   C492.248535,1049.755127 492.361298,1049.783569 492.304749,1050.107422   C492.906219,1050.836548 493.564301,1051.241821 494.234497,1051.703003   C494.246613,1051.759033 494.358673,1051.783447 494.307343,1052.109131   C494.909332,1052.843018 495.562653,1053.251099 496.230103,1053.713379   C496.244202,1053.767456 496.355194,1053.781494 496.310974,1054.109009   C496.913910,1054.849609 497.561066,1055.262695 498.222137,1055.727661   C498.236084,1055.779419 498.343201,1055.783569 498.303528,1056.111572   C498.908905,1056.858398 499.553986,1057.277222 500.211060,1057.744873   C500.223022,1057.793701 500.323639,1057.790405 500.289185,1058.116699   C500.894287,1058.869507 501.533813,1059.296021 502.393799,1059.948120   C503.508698,1061.057251 504.403137,1061.940674 505.224976,1063.145386   C505.841125,1063.868408 506.529938,1064.270142 507.218445,1064.723633   C507.218140,1064.775513 507.318512,1064.801392 507.245209,1065.124268   C507.856110,1065.849854 508.540314,1066.252563 509.228180,1066.710083   C509.231873,1066.764771 509.337708,1066.793213 509.269043,1067.117676   C509.878052,1067.836060 510.555725,1068.229980 511.248108,1068.683594   C511.262878,1068.743164 511.382050,1068.772827 511.329315,1069.107056   C513.701233,1071.361450 515.992798,1073.489380 518.583679,1075.150146   C521.930603,1077.295410 525.516846,1079.067261 529.000000,1081.000000  z"/>
<path fill="#020202" opacity="1.000000" stroke="none" d=" M170.042877,994.577576   C169.650055,994.523499 169.257233,994.469482 168.483871,994.005493   C163.163834,990.669983 158.224335,987.744446 153.284851,984.818909   C153.284851,984.818909 152.996628,984.553650 152.968933,984.035278   C149.524048,978.585938 146.106857,973.654968 142.689636,968.723999   C142.575699,968.339050 142.461761,967.954041 142.556976,967.022461   C142.015457,964.238647 141.264801,962.001526 140.514130,959.764404   C140.411682,956.437744 140.219742,953.111084 140.219543,949.784424   C140.205566,712.571411 140.206192,475.358459 140.214600,238.145477   C140.214691,235.482040 140.332016,232.818588 140.817200,229.615112   C143.162567,222.164459 148.413712,217.736496 153.206741,212.944595   C212.667419,153.497833 272.121368,94.044296 331.533844,34.549374   C333.341675,32.739021 334.681366,30.461151 336.239319,28.401247   C336.239319,28.401241 336.270935,28.277885 336.674927,28.294685   C338.584503,27.051922 340.098206,25.801847 341.594421,24.531233   C350.280151,17.155083 356.234985,6.567554 367.634766,2.356375   C367.888824,2.262524 367.884033,1.467797 368.000000,0.999999   C547.020874,1.000000 726.041809,1.000000 905.554443,1.370219   C912.952942,4.881063 919.859619,8.021688 926.808838,11.154754   C926.851257,11.147195 926.842651,11.232983 926.832642,11.579090   C929.689331,15.727035 932.588745,19.504869 935.409119,23.340790   C936.816589,25.255093 938.079651,27.275620 939.508789,29.534698   C939.659607,30.222506 939.709656,30.623693 939.516724,31.265503   C940.014526,33.745434 940.755371,35.984745 941.570435,38.672379   C941.694214,41.952015 941.787231,44.783325 941.787292,47.614635   C941.793884,348.505951 941.794373,649.397278 941.779297,950.288574   C941.779175,953.447815 941.567322,956.607056 941.135315,959.873413   C940.439026,962.312622 940.061707,964.644775 939.666382,967.278809   C939.532349,967.964966 939.416321,968.349243 938.972900,968.808228   C937.577698,971.382690 936.509827,973.882568 935.394714,976.575928   C935.347473,976.769348 935.119202,977.095703 934.768982,977.090210   C933.327576,978.778381 932.236389,980.471985 931.009399,982.437256   C930.146545,983.411499 929.419495,984.114014 928.342773,984.759399   C923.237488,987.867737 918.481934,991.033142 913.440918,994.303711   C912.754211,994.460876 912.352905,994.512878 911.684265,994.348633   C909.191345,994.862549 906.965759,995.592773 904.296021,996.401855   C900.525757,996.532959 897.199707,996.630554 893.873657,996.630920   C812.686829,996.639404 731.500061,996.635437 650.313232,996.648254   C647.823914,996.648682 645.334656,996.806152 642.525146,996.828735   C641.741821,997.413879 641.278564,998.060730 640.806702,998.759949   C640.798035,998.812317 640.692322,998.802673 640.376770,998.767944   C639.653870,999.395874 639.246582,1000.058655 638.615112,1000.966797   C636.833313,1002.754456 635.275696,1004.296692 633.403687,1005.808533   C632.659119,1006.415161 632.228943,1007.052124 631.802979,1007.742676   C631.807190,1007.796204 631.701294,1007.813721 631.390259,1007.792480   C630.651367,1008.406555 630.223633,1009.041748 629.795349,1009.732727   C629.794800,1009.788452 629.684875,1009.806641 629.378418,1009.791199   C628.647095,1010.407715 628.222168,1011.039734 627.790466,1011.728699   C627.783630,1011.785645 627.669678,1011.799622 627.364868,1011.787170   C626.639038,1012.406494 626.218018,1013.038269 625.789062,1013.727295   C625.781128,1013.784485 625.666260,1013.797546 625.359863,1013.783936   C624.637451,1014.409363 624.221436,1015.048340 623.796509,1015.742310   C623.787537,1015.797302 623.676086,1015.797852 623.364502,1015.773376   C622.640503,1016.402161 622.227966,1017.055420 621.807495,1017.760864   C621.799438,1017.812988 621.694214,1017.803833 621.378906,1017.768555   C620.655029,1018.395447 620.246582,1019.057556 619.616577,1019.967529   C617.836304,1021.756592 616.277588,1023.297913 614.403503,1024.808350   C613.659546,1025.416992 613.230896,1026.056641 612.807007,1026.748657   C612.811768,1026.801025 612.707703,1026.816650 612.396240,1026.794434   C611.655273,1027.407593 611.225769,1028.042847 610.796021,1028.733643   C610.795776,1028.789429 610.685852,1028.807251 610.379517,1028.792358   C609.647339,1029.407715 609.221436,1030.038086 608.789124,1030.725708   C608.782715,1030.783081 608.668274,1030.799072 608.363525,1030.786865   C607.638306,1031.406616 607.217834,1032.038574 606.789673,1032.727783   C606.782043,1032.784912 606.667542,1032.798706 606.361694,1032.784424   C605.637390,1033.405518 605.218994,1034.040894 604.789917,1034.732788   C604.779236,1034.789429 604.663940,1034.793213 604.355103,1034.769775   C603.632690,1035.392578 603.219116,1036.038940 602.793030,1036.740479   C602.780518,1036.795776 602.667419,1036.792114 602.354126,1036.758789   C601.636169,1037.382446 601.231628,1038.039429 600.609314,1038.947998   C598.835510,1040.746948 597.279358,1042.293945 595.407593,1043.807617   C594.660522,1044.412109 594.229187,1045.050049 593.802490,1045.741699   C593.807190,1045.795410 593.701111,1045.813721 593.389160,1045.790039   C592.649780,1046.402954 592.222412,1047.039673 591.795105,1047.732178   C591.795227,1047.787964 591.685181,1047.807129 591.378235,1047.789673   C590.645203,1048.402710 590.219116,1049.033081 589.803772,1049.710205   C589.814514,1049.756958 589.739075,1049.815918 589.426636,1049.806396   C588.681335,1050.445679 588.248413,1051.094727 587.807495,1051.772461   C587.799500,1051.801147 587.741943,1051.817139 587.429199,1051.806152   C586.684021,1052.446533 586.251709,1053.097656 585.810364,1053.776611   C585.801331,1053.804565 585.743591,1053.815308 585.393921,1053.813354   C581.122437,1057.578735 577.476379,1061.699585 573.211365,1065.026978   C567.440979,1069.529175 561.352600,1073.682739 555.085388,1077.463135   C552.098999,1079.264526 548.384583,1079.858887 545.000000,1081.000000   C541.969421,1081.000000 538.938782,1081.000000 535.389648,1080.639038   C527.041382,1076.442993 519.211731,1072.607910 511.382050,1068.772827   C511.382050,1068.772827 511.262878,1068.743164 511.263977,1068.377686   C510.622650,1067.605835 509.980194,1067.199585 509.337708,1066.793213   C509.337708,1066.793213 509.231873,1066.764771 509.256378,1066.398438   C508.626770,1065.621704 507.972656,1065.211548 507.318542,1064.801392   C507.318512,1064.801392 507.218140,1064.775513 507.254211,1064.407959   C506.626038,1063.634888 505.961792,1063.229492 505.297577,1062.824097   C504.403137,1061.940674 503.508698,1061.057251 502.432495,1059.629639   C501.608337,1058.653687 500.965973,1058.222046 500.323608,1057.790405   C500.323639,1057.790405 500.223022,1057.793701 500.239471,1057.431519   C499.618347,1056.640747 498.980774,1056.212158 498.343201,1055.783569   C498.343201,1055.783569 498.236084,1055.779419 498.243378,1055.418701   C497.618835,1054.632446 496.987030,1054.207031 496.355194,1053.781494   C496.355194,1053.781494 496.244202,1053.767456 496.245117,1053.408691   C495.616943,1052.627808 494.987793,1052.205566 494.358673,1051.783447   C494.358673,1051.783447 494.246613,1051.759033 494.248779,1051.399292   C493.621094,1050.620850 492.991180,1050.202271 492.361298,1049.783569   C492.361298,1049.783569 492.248535,1049.755127 492.252228,1049.391968   C491.617615,1048.616455 490.979309,1048.204102 490.341003,1047.791870   C490.340973,1047.791870 490.234283,1047.763062 490.254456,1047.397217   C489.622864,1046.621216 488.971069,1046.211304 488.319275,1045.801392   C488.319275,1045.801392 488.218872,1045.775146 488.253998,1045.407959   C487.626312,1044.634521 486.963501,1044.228271 486.300690,1043.822021   C485.405365,1042.938965 484.510040,1042.055786 483.432343,1040.627441   C482.604431,1039.653076 481.958893,1039.223999 481.313354,1038.794922   C481.313354,1038.794922 481.215973,1038.800903 481.232086,1038.438965   C480.609100,1037.647583 479.970001,1037.218262 479.330872,1036.788940   C479.330872,1036.788940 479.227570,1036.787842 479.241577,1036.427368   C478.621674,1035.638428 477.987793,1035.210083 477.353912,1034.781616   C477.353912,1034.781616 477.243286,1034.768677 477.247009,1034.409668   C476.620544,1033.628174 475.990326,1033.205688 475.360138,1032.783203   C475.360138,1032.783203 475.247559,1032.758789 475.249023,1032.398682   C474.620117,1031.620239 473.989746,1031.201904 473.359344,1030.783569   C473.359344,1030.783569 473.246979,1030.758911 473.250244,1030.396729   C472.616302,1029.620239 471.979065,1029.206055 471.341827,1028.791748   C471.341827,1028.791748 471.235016,1028.762573 471.254608,1028.396484   C470.622253,1027.620728 469.970306,1027.211182 469.318359,1026.801514   C469.318359,1026.801514 469.218109,1026.776489 469.253601,1026.409790   C468.627563,1025.635620 467.965973,1025.228027 467.304382,1024.820557   C465.747772,1023.276306 464.191162,1021.732056 462.442169,1019.629150   C461.610962,1018.642700 460.972137,1018.215088 460.333313,1017.787354   C460.333344,1017.787354 460.229431,1017.786499 460.242676,1017.425720   C459.622040,1016.636841 458.988129,1016.208801 458.354218,1015.780701   C458.354218,1015.780701 458.243469,1015.770203 458.247314,1015.410889   C457.620667,1014.628723 456.990173,1014.205872 456.359650,1013.782959   C456.359650,1013.782959 456.247101,1013.758911 456.249146,1013.398926   C455.620605,1012.620361 454.990051,1012.201843 454.359528,1011.783325   C454.359528,1011.783325 454.247162,1011.758423 454.249146,1011.396729   C453.615448,1010.620117 452.979736,1010.205200 452.344025,1009.790344   C452.344025,1009.790344 452.236420,1009.762695 452.254639,1009.397644   C451.624451,1008.620728 450.975983,1008.208923 450.327515,1007.797119   C450.327515,1007.797119 450.224640,1007.770325 450.256226,1007.402832   C449.627533,1006.625610 448.967316,1006.215759 448.307068,1005.805969   C448.307068,1005.805969 448.209808,1005.783081 448.253113,1005.414185   C447.625244,1004.640259 446.954071,1004.235352 446.282898,1003.830383   C445.392883,1002.941833 444.502838,1002.053284 443.431274,1000.619263   C442.611572,999.644531 441.973419,999.215393 441.335266,998.786133   C441.335297,998.786133 441.230652,998.785583 441.229553,998.409912   C440.541870,997.648682 439.855316,997.263062 439.168701,996.877441   C436.679260,996.797424 434.189819,996.647705 431.700378,996.647339   C350.516113,996.635132 269.331818,996.639099 188.147537,996.630981   C184.821426,996.630615 181.495331,996.537170 177.584503,996.120605   C174.680832,995.361877 172.361847,994.969727 170.042877,994.577576  M899.594971,409.500244   C899.594971,287.562469 899.594971,165.624664 899.594971,43.521076   C730.600769,43.521076 562.226990,43.521076 393.348450,43.521076   C393.348450,45.804241 393.348511,47.764717 393.348480,49.725193   C393.347412,103.055206 393.455200,156.385727 393.197510,209.714508   C393.167694,215.882538 392.181427,222.498047 389.788483,228.118408   C382.404419,245.461472 368.608795,254.052261 349.802856,254.087204   C296.139709,254.186920 242.476273,254.125122 188.812958,254.126846   C186.866333,254.126907 184.919708,254.126846 182.693146,254.126846   C182.693146,487.754120 182.693146,720.824402 182.693146,953.816528   C253.679031,953.816528 324.429504,953.816528 395.179993,953.816528   C395.373566,953.418213 395.567169,953.019897 395.760742,952.621582   C391.655273,948.749023 387.275879,945.125244 383.492981,940.959778   C369.208771,925.231445 368.746948,902.099487 382.294830,885.694702   C390.600098,875.638062 401.394379,870.428040 414.436127,870.116272   C421.352234,869.950928 428.275574,870.087036 435.521362,870.087036   C435.521362,867.460571 435.520905,865.644470 435.521393,863.828308   C435.532562,821.997620 435.392639,780.166199 435.615997,738.336609   C435.735748,715.921448 454.385864,697.264832 476.721039,697.164551   C519.550781,696.972168 562.382629,697.004456 605.211853,697.247131   C610.230164,697.275513 615.589600,698.406555 620.187683,700.410339   C637.642944,708.017151 646.405273,721.742981 646.446472,740.776978   C646.535217,781.774231 646.476868,822.771851 646.478699,863.769287   C646.478760,865.706421 646.478699,867.643555 646.478699,870.097473   C654.094116,870.097473 661.082947,869.698425 668.000183,870.230286   C673.060852,870.619324 678.380554,871.423706 682.978455,873.431396   C711.669250,885.959412 718.408936,920.061340 696.822327,942.747314   C693.465149,946.275391 689.513977,949.238220 685.837524,952.462463   C686.241516,952.987793 686.645508,953.513123 687.049500,954.038452   C757.730530,954.038452 828.411621,954.038452 899.594910,954.038452   C899.594910,772.744141 899.594910,591.622192 899.594971,409.500244  M582.299683,997.801453   C610.297058,969.768677 638.294434,941.735901 666.291809,913.703064   C663.911743,912.407227 662.298279,912.260254 660.684631,912.256958   C650.355164,912.235596 639.988403,911.687500 629.705017,912.375610   C614.022705,913.425110 603.856567,902.721191 604.064514,886.601074   C604.670471,839.626526 604.279541,792.639099 604.279480,745.656738   C604.279480,743.712402 604.279541,741.768127 604.279541,739.667297   C561.818054,739.667297 519.954041,739.667297 477.720520,739.667297   C477.720520,741.865784 477.720581,743.677612 477.720520,745.489441   C477.719025,793.471436 477.747162,841.453430 477.697479,889.435364   C477.683044,903.375427 468.836945,912.167664 454.953308,912.231140   C443.791046,912.282166 432.628357,912.232788 421.465942,912.258484   C419.733948,912.262451 418.002319,912.430176 415.035614,912.587830   C416.968719,914.746033 417.981750,915.991577 419.110901,917.121033   C458.446960,956.465759 497.828674,995.765076 537.074341,1035.199707   C540.255371,1038.395996 542.112122,1038.147705 545.107239,1035.082764   C557.210510,1022.697754 569.546448,1010.539978 582.299683,997.801453  M259.921875,164.420654   C244.504974,179.828552 229.088074,195.236450 212.785645,211.529343   C259.830444,211.529343 305.324677,211.529343 350.750793,211.529343   C350.750793,165.758286 350.750793,120.402962 350.750793,73.588028   C320.002106,104.309021 290.190216,134.094040 259.921875,164.420654  z"/>
<path fill="#FFFFFF" opacity="1.000000" stroke="none" d=" M939.300171,968.733521   C939.416321,968.349243 939.532349,967.964966 939.979248,967.063660   C940.691528,964.286499 941.072937,962.026428 941.454285,959.766296   C941.567322,956.607056 941.779175,953.447815 941.779297,950.288574   C941.794373,649.397278 941.793884,348.505951 941.787292,47.614635   C941.787231,44.783325 941.694214,41.952015 941.767029,38.299515   C941.179565,35.327179 940.469604,33.176033 939.759705,31.024881   C939.709656,30.623693 939.659607,30.222506 939.666138,29.190678   C939.038452,26.886911 938.696106,24.936644 937.606445,23.591959   C934.169189,19.350199 930.451721,15.335510 926.842651,11.232965   C926.842651,11.232983 926.851257,11.147195 926.844788,10.813763   C925.277649,9.283933 923.825012,7.899056 922.134094,6.929912   C918.487671,4.839999 914.718750,2.963704 911.000000,0.999998   C967.652710,1.000000 1024.305420,1.000000 1080.979004,1.000000   C1080.979004,360.897461 1080.979004,720.794922 1080.979004,1081.000000   C905.645874,1081.000000 730.291626,1081.000000 554.437256,1080.607666   C563.033081,1076.941040 570.268860,1070.998047 576.783508,1064.094116   C579.900513,1060.790894 582.764832,1057.249023 585.743591,1053.815308   C585.743591,1053.815308 585.801331,1053.804565 586.143921,1053.833862   C586.905029,1053.181152 587.323486,1052.499146 587.741943,1051.817139   C587.741943,1051.817139 587.799500,1051.801147 588.141846,1051.815430   C588.902466,1051.158447 589.320801,1050.487183 589.739075,1049.815918   C589.739075,1049.815918 589.814514,1049.756958 590.130005,1049.753174   C590.858765,1049.101929 591.271973,1048.454468 591.685181,1047.807129   C591.685181,1047.807129 591.795227,1047.787964 592.122864,1047.769043   C592.867371,1047.104614 593.284241,1046.459106 593.701050,1045.813721   C593.701111,1045.813721 593.807190,1045.795410 594.128418,1045.776123   C594.874146,1045.118164 595.298706,1044.479614 595.723267,1043.841064   C597.279358,1042.293945 598.835510,1040.746948 600.928040,1039.019043   C601.865417,1038.156128 602.266418,1037.474121 602.667358,1036.792114   C602.667419,1036.792114 602.780518,1036.795776 603.115051,1036.808472   C603.854370,1036.145142 604.259155,1035.469238 604.663940,1034.793213   C604.663940,1034.793213 604.779236,1034.789429 605.113342,1034.794067   C605.854126,1034.132080 606.260864,1033.465332 606.667542,1032.798706   C606.667542,1032.798706 606.782043,1032.784912 607.114136,1032.775391   C607.853516,1032.110352 608.260925,1031.454712 608.668335,1030.799072   C608.668274,1030.799072 608.782715,1030.783081 609.115356,1030.770264   C609.860596,1030.107544 610.273254,1029.457397 610.685913,1028.807251   C610.685852,1028.807251 610.795776,1028.789429 611.123596,1028.771973   C611.870178,1028.108643 612.288940,1027.462646 612.707642,1026.816650   C612.707703,1026.816650 612.811768,1026.801025 613.133423,1026.780396   C613.876282,1026.119629 614.297607,1025.479370 614.718872,1024.839233   C616.277588,1023.297913 617.836304,1021.756592 619.937012,1020.037476   C620.884094,1019.174438 621.289185,1018.489136 621.694214,1017.803833   C621.694214,1017.803833 621.799438,1017.812988 622.130737,1017.826660   C622.866760,1017.159546 623.271423,1016.478699 623.676086,1015.797852   C623.676086,1015.797852 623.787537,1015.797302 624.120239,1015.802246   C624.857361,1015.137268 625.261841,1014.467407 625.666260,1013.797546   C625.666260,1013.797546 625.781128,1013.784485 626.113159,1013.776245   C626.853394,1013.111877 627.261475,1012.455750 627.669678,1011.799561   C627.669678,1011.799622 627.783630,1011.785645 628.116577,1011.774536   C628.861328,1011.111206 629.273132,1010.458923 629.684875,1009.806641   C629.684875,1009.806641 629.794800,1009.788452 630.123047,1009.770264   C630.867981,1009.105957 631.284607,1008.459839 631.701294,1007.813721   C631.701294,1007.813721 631.807190,1007.796204 632.129639,1007.777222   C632.874084,1007.118408 633.296082,1006.478699 633.718140,1005.838989   C635.275696,1004.296692 636.833313,1002.754456 638.935425,1001.037476   C639.884033,1000.176025 640.288208,999.489380 640.692383,998.802673   C640.692322,998.802673 640.798035,998.812317 641.122925,998.832458   C641.913696,998.198547 642.379517,997.544495 642.845337,996.890381   C645.334656,996.806152 647.823914,996.648682 650.313232,996.648254   C731.500061,996.635437 812.686829,996.639404 893.873657,996.630920   C897.199707,996.630554 900.525757,996.532959 904.660278,996.605957   C907.629700,996.009155 909.790649,995.287048 911.951660,994.564941   C912.352905,994.512878 912.754211,994.460876 913.764954,994.473267   C919.147156,991.297241 923.919800,988.056885 928.692505,984.816528   C929.419495,984.114014 930.146545,983.411499 931.354858,982.431152   C932.930542,980.467407 934.024902,978.781555 935.119202,977.095703   C935.119202,977.095703 935.347473,976.769348 935.712524,976.450195   C937.151855,973.665161 938.226013,971.199341 939.300171,968.733521  z"/>
<path fill="#777777" opacity="1.000000" stroke="none" d=" M585.393921,1053.813354   C582.764832,1057.249023 579.900513,1060.790894 576.783508,1064.094116   C570.268860,1070.998047 563.033081,1076.941040 553.968567,1080.607666   C551.299988,1081.000000 548.599976,1081.000000 545.449951,1081.000000   C548.384583,1079.858887 552.098999,1079.264526 555.085388,1077.463135   C561.352600,1073.682739 567.440979,1069.529175 573.211365,1065.026978   C577.476379,1061.699585 581.122437,1057.578735 585.393921,1053.813354  z"/>
<path fill="#696969" opacity="1.000000" stroke="none" d=" M367.600006,0.999999   C367.884033,1.467797 367.888824,2.262524 367.634766,2.356375   C356.234985,6.567554 350.280151,17.155083 341.594421,24.531233   C340.098206,25.801847 338.584503,27.051922 336.736633,28.278950   C339.182953,25.097073 341.751801,21.713488 344.806244,18.847448   C351.049347,12.989482 357.553558,7.409763 363.975098,1.357720   C365.066681,1.000000 366.133331,1.000000 367.600006,0.999999  z"/>
<path fill="#696969" opacity="1.000000" stroke="none" d=" M511.329315,1069.107056   C519.211731,1072.607910 527.041382,1076.442993 534.935547,1080.639038   C533.285645,1081.000000 531.571289,1081.000000 529.428467,1081.000000   C525.516846,1079.067261 521.930603,1077.295410 518.583679,1075.150146   C515.992798,1073.489380 513.701233,1071.361450 511.329315,1069.107056  z"/>
<path fill="#656565" opacity="1.000000" stroke="none" d=" M910.583374,0.999998   C914.718750,2.963704 918.487671,4.839999 922.134094,6.929912   C923.825012,7.899056 925.277649,9.283933 926.802368,10.821321   C919.859619,8.021688 912.952942,4.881063 906.023071,1.370219   C907.388916,1.000000 908.777771,1.000000 910.583374,0.999998  z"/>
<path fill="#696969" opacity="1.000000" stroke="none" d=" M335.906677,28.345020   C334.681366,30.461151 333.341675,32.739021 331.533844,34.549374   C272.121368,94.044296 212.667419,153.497833 153.206741,212.944595   C148.413712,217.736496 143.162567,222.164459 140.910614,229.173340   C142.289337,225.526917 143.164474,220.989777 145.846115,218.171616   C159.002502,204.345551 172.614059,190.951385 186.110962,177.450775   C235.416779,128.131454 284.740540,78.830109 334.064026,29.528448   C334.522430,29.070259 335.068756,28.700062 335.906677,28.345020  z"/>
<path fill="#696969" opacity="1.000000" stroke="none" d=" M142.516113,969.052063   C146.106857,973.654968 149.524048,978.585938 152.865036,983.869324   C146.852127,981.002197 145.026596,974.889038 142.516113,969.052063  z"/>
<path fill="#696969" opacity="1.000000" stroke="none" d=" M153.234573,985.160645   C158.224335,987.744446 163.163834,990.669983 168.202438,993.907776   C163.262466,991.314148 158.223373,988.408264 153.234573,985.160645  z"/>
<path fill="#696969" opacity="1.000000" stroke="none" d=" M170.248810,994.900146   C172.361847,994.969727 174.680832,995.361877 177.140091,996.052124   C175.005173,995.974365 172.729950,995.598511 170.248810,994.900146  z"/>
<path fill="#696969" opacity="1.000000" stroke="none" d=" M140.312134,960.129395   C141.264801,962.001526 142.015457,964.238647 142.530304,966.721558   C141.566345,964.809753 140.838226,962.652100 140.312134,960.129395  z"/>
<path fill="#696969" opacity="1.000000" stroke="none" d=" M473.305359,1031.107666   C473.989746,1031.201904 474.620117,1031.620239 475.236664,1032.342407   C474.565643,1032.241455 473.908478,1031.836670 473.305359,1031.107666  z"/>
<path fill="#696969" opacity="1.000000" stroke="none" d=" M475.308594,1033.109131   C475.990326,1033.205688 476.620544,1033.628174 477.233093,1034.355713   C476.562622,1034.252319 475.909821,1033.843628 475.308594,1033.109131  z"/>
<path fill="#696969" opacity="1.000000" stroke="none" d=" M477.309204,1035.109375   C477.987793,1035.210083 478.621674,1035.638428 479.229492,1036.377197   C478.557098,1036.270630 477.910828,1035.853882 477.309204,1035.109375  z"/>
<path fill="#696969" opacity="1.000000" stroke="none" d=" M479.291595,1037.117676   C479.970001,1037.218262 480.609100,1037.647583 481.221191,1038.391357   C480.546875,1038.286011 479.899597,1037.866211 479.291595,1037.117676  z"/>
<path fill="#696969" opacity="1.000000" stroke="none" d=" M481.282837,1039.121460   C481.958893,1039.223999 482.604431,1039.653076 483.212067,1040.401367   C482.533539,1040.296387 481.892914,1039.872192 481.282837,1039.121460  z"/>
<path fill="#696969" opacity="1.000000" stroke="none" d=" M486.226685,1044.143066   C486.963501,1044.228271 487.626312,1044.634521 488.254089,1045.356079   C487.530273,1045.268921 486.841492,1044.866577 486.226685,1044.143066  z"/>
<path fill="#696969" opacity="1.000000" stroke="none" d=" M488.246643,1046.124512   C488.971069,1046.211304 489.622864,1046.621216 490.249756,1047.342163   C489.541229,1047.251343 488.857605,1046.849487 488.246643,1046.124512  z"/>
<path fill="#696969" opacity="1.000000" stroke="none" d=" M507.245239,1065.124268   C507.972656,1065.211548 508.626770,1065.621704 509.252686,1066.343750   C508.540314,1066.252563 507.856110,1065.849854 507.245239,1065.124268  z"/>
<path fill="#696969" opacity="1.000000" stroke="none" d=" M490.273743,1048.115234   C490.979309,1048.204102 491.617615,1048.616455 492.241089,1049.334961   C491.553009,1049.240234 490.879730,1048.839355 490.273743,1048.115234  z"/>
<path fill="#696969" opacity="1.000000" stroke="none" d=" M492.304749,1050.107422   C492.991180,1050.202271 493.621094,1050.620850 494.236694,1051.343262   C493.564301,1051.241821 492.906219,1050.836548 492.304749,1050.107422  z"/>
<path fill="#696969" opacity="1.000000" stroke="none" d=" M494.307343,1052.109131   C494.987793,1052.205566 495.616943,1052.627808 496.231018,1053.354492   C495.562653,1053.251099 494.909332,1052.843018 494.307343,1052.109131  z"/>
<path fill="#696969" opacity="1.000000" stroke="none" d=" M496.310974,1054.109009   C496.987030,1054.207031 497.618835,1054.632446 498.229431,1055.366943   C497.561066,1055.262695 496.913910,1054.849609 496.310974,1054.109009  z"/>
<path fill="#696969" opacity="1.000000" stroke="none" d=" M509.269043,1067.117676   C509.980194,1067.199585 510.622650,1067.605835 511.249237,1068.318115   C510.555725,1068.229980 509.878052,1067.836060 509.269043,1067.117676  z"/>
<path fill="#696969" opacity="1.000000" stroke="none" d=" M498.303528,1056.111572   C498.980774,1056.212158 499.618347,1056.640747 500.227478,1057.382568   C499.553986,1057.277222 498.908905,1056.858398 498.303528,1056.111572  z"/>
<path fill="#696969" opacity="1.000000" stroke="none" d=" M500.289185,1058.116699   C500.965973,1058.222046 501.608337,1058.653687 502.212006,1059.403809   C501.533813,1059.296021 500.894287,1058.869507 500.289185,1058.116699  z"/>
<path fill="#696969" opacity="1.000000" stroke="none" d=" M505.224915,1063.145386   C505.961792,1063.229492 506.626038,1063.634888 507.254517,1064.356079   C506.529938,1064.270142 505.841125,1063.868408 505.224915,1063.145386  z"/>
<path fill="#696969" opacity="1.000000" stroke="none" d=" M439.199280,997.201172   C439.855316,997.263062 440.541870,997.648682 441.216003,998.359375   C440.545624,998.297974 439.887726,997.911377 439.199280,997.201172  z"/>
<path fill="#696969" opacity="1.000000" stroke="none" d=" M441.298157,999.113220   C441.973419,999.215393 442.611572,999.644531 443.216125,1000.388245   C442.542084,1000.281921 441.901581,999.861084 441.298157,999.113220  z"/>
<path fill="#696969" opacity="1.000000" stroke="none" d=" M446.211151,1004.151123   C446.954071,1004.235352 447.625244,1004.640259 448.255249,1005.364258   C447.522552,1005.279419 446.830994,1004.875610 446.211151,1004.151123  z"/>
<path fill="#696969" opacity="1.000000" stroke="none" d=" M448.232910,1006.128601   C448.967316,1006.215759 449.627533,1006.625610 450.254730,1007.349731   C449.534027,1007.259766 448.846405,1006.855469 448.232910,1006.128601  z"/>
<path fill="#696969" opacity="1.000000" stroke="none" d=" M450.255768,1008.120117   C450.975983,1008.208923 451.624451,1008.620728 452.248413,1009.342529   C451.543976,1009.249329 450.864014,1008.846252 450.255768,1008.120117  z"/>
<path fill="#696969" opacity="1.000000" stroke="none" d=" M452.280823,1010.114258   C452.979736,1010.205200 453.615448,1010.620117 454.237122,1011.340454   C453.554565,1011.243225 452.886108,1010.840698 452.280823,1010.114258  z"/>
<path fill="#696969" opacity="1.000000" stroke="none" d=" M454.306427,1012.107666   C454.990051,1012.201843 455.620605,1012.620361 456.236908,1013.342712   C455.566193,1013.241699 454.909760,1012.836853 454.306427,1012.107666  z"/>
<path fill="#696969" opacity="1.000000" stroke="none" d=" M456.307861,1014.109497   C456.990173,1014.205872 457.620667,1014.628723 458.232605,1015.357300   C457.561401,1015.253967 456.908722,1014.845032 456.307861,1014.109497  z"/>
<path fill="#696969" opacity="1.000000" stroke="none" d=" M458.311127,1016.108521   C458.988129,1016.208801 459.622040,1016.636841 460.229889,1017.375366   C459.558563,1017.269287 458.913300,1016.852844 458.311127,1016.108521  z"/>
<path fill="#696969" opacity="1.000000" stroke="none" d=" M460.295410,1018.114014   C460.972137,1018.215088 461.610962,1018.642700 462.217041,1019.384888   C461.542023,1019.279785 460.899780,1018.860229 460.295410,1018.114014  z"/>
<path fill="#696969" opacity="1.000000" stroke="none" d=" M467.232544,1025.141602   C467.965973,1025.228027 468.627563,1025.635620 469.253448,1026.358154   C468.532074,1026.269653 467.846405,1025.866089 467.232544,1025.141602  z"/>
<path fill="#696969" opacity="1.000000" stroke="none" d=" M469.247375,1027.124634   C469.970306,1027.211182 470.622253,1027.620728 471.249573,1028.341309   C470.542084,1028.250854 469.859222,1027.849365 469.247375,1027.124634  z"/>
<path fill="#696969" opacity="1.000000" stroke="none" d=" M471.275635,1029.115723   C471.979065,1029.206055 472.616302,1029.620239 473.238403,1030.340454   C472.552032,1030.244141 471.880737,1029.841919 471.275635,1029.115723  z"/>
<path fill="#FEFEFE" opacity="1.000000" stroke="none" d=" M899.594971,410.000244   C899.594910,591.622192 899.594910,772.744141 899.594910,954.038452   C828.411621,954.038452 757.730530,954.038452 687.049500,954.038452   C686.645508,953.513123 686.241516,952.987793 685.837524,952.462463   C689.513977,949.238220 693.465149,946.275391 696.822327,942.747314   C718.408936,920.061340 711.669250,885.959412 682.978455,873.431396   C678.380554,871.423706 673.060852,870.619324 668.000183,870.230286   C661.082947,869.698425 654.094116,870.097473 646.478699,870.097473   C646.478699,867.643555 646.478760,865.706421 646.478699,863.769287   C646.476868,822.771851 646.535217,781.774231 646.446472,740.776978   C646.405273,721.742981 637.642944,708.017151 620.187683,700.410339   C615.589600,698.406555 610.230164,697.275513 605.211853,697.247131   C562.382629,697.004456 519.550781,696.972168 476.721039,697.164551   C454.385864,697.264832 435.735748,715.921448 435.615997,738.336609   C435.392639,780.166199 435.532562,821.997620 435.521393,863.828308   C435.520905,865.644470 435.521362,867.460571 435.521362,870.087036   C428.275574,870.087036 421.352234,869.950928 414.436127,870.116272   C401.394379,870.428040 390.600098,875.638062 382.294830,885.694702   C368.746948,902.099487 369.208771,925.231445 383.492981,940.959778   C387.275879,945.125244 391.655273,948.749023 395.760742,952.621582   C395.567169,953.019897 395.373566,953.418213 395.179993,953.816528   C324.429504,953.816528 253.679031,953.816528 182.693146,953.816528   C182.693146,720.824402 182.693146,487.754120 182.693146,254.126846   C184.919708,254.126846 186.866333,254.126907 188.812958,254.126846   C242.476273,254.125122 296.139709,254.186920 349.802856,254.087204   C368.608795,254.052261 382.404419,245.461472 389.788483,228.118408   C392.181427,222.498047 393.167694,215.882538 393.197510,209.714508   C393.455200,156.385727 393.347412,103.055206 393.348480,49.725193   C393.348511,47.764717 393.348450,45.804241 393.348450,43.521076   C562.226990,43.521076 730.600769,43.521076 899.594971,43.521076   C899.594971,165.624664 899.594971,287.562469 899.594971,410.000244  M459.312744,351.605225   C459.312744,381.342346 459.312744,411.079468 459.312744,440.738556   C468.622681,440.738556 477.219513,440.738556 485.720215,440.738556   C485.720215,393.109497 485.720215,345.745178 485.720215,298.268433   C473.731049,298.268433 462.095947,298.268433 450.122314,298.268433   C438.087891,333.326324 426.037720,368.430237 413.987518,403.534119   C413.375732,403.444672 412.763977,403.355255 412.152191,403.265839   C400.062775,368.205750 387.973328,333.145660 375.984100,298.376160   C363.389526,298.376160 351.444702,298.376160 339.300720,298.376160   C339.300720,345.965942 339.300720,393.333221 339.300720,440.698334   C347.958679,440.698334 356.352020,440.698334 365.407928,440.698334   C365.407928,409.104706 365.407928,377.812073 365.407928,346.519440   C366.026764,346.380249 366.645630,346.241058 367.264465,346.101837   C378.306274,377.692627 389.348114,409.283386 400.393738,440.885132   C408.328156,440.885132 415.975098,440.885132 423.910400,440.885132   C434.935242,409.339050 445.974213,377.752502 457.013184,346.165924   C457.635132,346.289886 458.257111,346.413849 458.879059,346.537842   C459.023621,347.904663 459.168182,349.271515 459.312744,351.605225  M650.881592,414.499969   C650.881592,423.256042 650.881592,432.012146 650.881592,440.759094   C660.549866,440.759094 669.631042,440.759094 679.112183,440.759094   C679.112183,420.933319 679.112183,401.346405 679.112183,381.637665   C684.998474,381.637665 690.483154,381.696869 695.966064,381.624939   C706.399597,381.488037 712.776428,386.756958 715.950439,396.406006   C720.817749,411.202728 725.695312,425.996185 730.540771,440.706879   C740.240845,440.706879 749.615417,440.706879 759.660767,440.706879   C753.703003,423.467712 748.026123,406.654968 742.056213,389.946838   C739.468384,382.704102 734.955139,376.817413 727.885559,373.204498   C727.292053,372.901245 726.971802,372.063293 726.127075,370.949738   C728.183228,370.091431 729.820007,369.451416 731.421387,368.732697   C741.097961,364.389557 748.536804,357.982544 751.503479,347.302734   C758.212280,323.151215 743.999817,301.231079 719.031189,299.199280   C701.645142,297.784515 684.091614,298.411652 666.612366,298.165436   C661.497131,298.093384 656.379944,298.154358 650.881592,298.154358   C650.881592,336.937897 650.881592,375.218903 650.881592,414.499969  M428.447083,584.963196   C420.906799,606.848572 413.366547,628.734009 405.777344,650.761353   C415.851990,650.761353 425.293762,650.761353 434.694672,650.761353   C438.326416,639.710022 441.883240,628.886597 445.397430,618.192871   C463.878296,618.192871 481.839600,618.192871 500.066345,618.192871   C503.301483,628.001587 506.447479,637.793518 509.828644,647.503540   C510.306030,648.874390 511.900940,650.813843 513.029114,650.848572   C521.975525,651.124023 530.934143,651.001953 540.166199,651.001953   C539.911438,649.807922 539.824402,648.990112 539.562744,648.232605   C523.838745,602.712952 508.076172,557.206665 492.426056,511.661682   C491.522552,509.032410 490.429047,508.016998 487.543793,508.077301   C477.887604,508.278992 468.221771,508.284363 458.565918,508.074646   C455.648163,508.011292 454.627258,509.110291 453.746857,511.697357   C445.507538,535.907837 437.120667,560.068115 428.447083,584.963196  M586.575317,298.441498   C574.614014,298.441498 562.652710,298.441498 550.397827,298.441498   C534.057556,345.762848 517.707764,393.111816 501.255035,440.758789   C511.249054,440.758789 520.642395,440.758789 530.183899,440.758789   C533.810303,429.744965 537.380005,418.903290 540.863770,408.322632   C559.473694,408.322632 577.577820,408.322632 595.627319,408.322632   C599.272034,419.395599 602.832336,430.211975 606.298828,440.743469   C616.450989,440.743469 626.016113,440.743469 635.940247,440.743469   C619.539978,393.328674 603.258606,346.257690 586.575317,298.441498  M783.521973,651.000854   C789.967346,651.000854 796.412659,651.000854 802.858032,651.000854   C803.247192,650.562744 803.636353,650.124634 804.025574,649.686523   C784.405884,624.988647 764.786255,600.290710 745.175476,575.603943   C749.986755,569.651917 754.482361,564.087341 758.981323,558.525574   C763.378723,553.089417 767.778687,547.655334 772.178955,542.221497   C776.684143,536.658264 781.225952,531.124390 785.686951,525.526062   C789.978394,520.140442 794.187012,514.688843 798.432007,509.266296   C789.591736,508.155884 781.932312,508.363037 774.292297,508.069061   C770.432373,507.920563 767.922241,509.120605 765.483032,512.159424   C751.727295,529.295837 737.776550,546.276367 723.804626,563.237854   C722.532715,564.781921 720.640747,565.815186 717.893921,567.990845   C717.893921,546.956726 717.893921,527.716736 717.893921,508.424866   C708.374023,508.424866 699.303223,508.424866 690.183411,508.424866   C690.183411,556.052856 690.183411,603.411194 690.183411,650.752319   C699.565002,650.752319 708.643738,650.752319 718.211487,650.752319   C718.211487,630.154358 718.211487,609.800903 718.211487,589.447449   C718.605103,589.190613 718.998718,588.933716 719.392334,588.676880   C720.865540,589.981384 722.550476,591.112915 723.779358,592.617004   C737.261963,609.118164 751.023560,625.410767 763.929443,642.354126   C768.985474,648.991882 774.234253,652.601318 783.521973,651.000854  M287.870697,391.921906   C293.433929,405.259827 287.281494,416.344147 273.139526,418.131439   C255.360245,420.378387 240.677734,414.617004 229.609009,400.419586   C226.977112,397.043762 225.252853,397.185150 222.782822,400.435455   C219.260071,405.071045 215.582138,409.611084 211.670792,413.919830   C209.633667,416.163940 209.946518,417.744781 211.588257,419.907990   C216.941788,426.961884 223.648209,432.314911 231.690430,435.890137   C248.662598,443.435303 266.363617,445.002808 284.417114,441.149597   C305.470764,436.656097 316.590179,423.822205 318.572784,402.585114   C320.377197,383.256775 311.484283,368.347443 293.520294,361.047516   C289.234924,359.306091 284.711731,358.066620 280.207916,356.963806   C271.494873,354.830231 262.648895,353.214447 253.991425,350.887726   C248.186295,349.327576 243.303314,346.192993 241.912460,339.602173   C239.873337,329.939240 245.367432,322.753876 256.471985,321.058868   C270.959473,318.847565 284.269196,321.218262 295.537689,331.483093   C296.432465,332.298157 299.593384,332.258728 300.241974,331.448425   C304.790741,325.765503 308.955902,319.775482 314.078278,312.736938   C307.304474,308.649384 301.361572,303.834686 294.572205,301.207581   C277.465515,294.588104 259.715088,294.089691 242.194901,299.598267   C220.169952,306.523193 209.790176,325.211182 215.071671,347.655243   C218.766541,363.356842 230.210739,371.374573 244.595551,375.815125   C252.833862,378.358215 261.379547,379.892609 269.751465,382.020233   C276.361816,383.700165 283.068512,385.306274 287.870697,391.921906  M325.847412,646.321655   C325.847412,630.239990 325.847412,614.158325 325.847412,597.101685   C338.408447,597.101685 350.439392,597.964417 362.302429,596.920166   C386.165222,594.819397 400.966431,577.480286 400.969879,553.055237   C400.973328,528.593384 386.237793,510.826355 362.384338,509.165497   C341.499664,507.711334 320.464630,508.415039 299.495789,508.184753   C299.030731,508.179657 298.563110,508.406616 297.866760,508.583862   C297.866760,555.956726 297.866760,603.303528 297.866760,651.002930   C306.380219,651.002930 314.681305,650.872070 322.974609,651.069092   C326.175293,651.145142 325.952393,649.339478 325.847412,646.321655  M672.013428,612.780457   C664.703674,608.777344 657.393921,604.774170 649.766541,600.597107   C648.980408,602.664917 648.594604,603.565125 648.292114,604.492432   C642.904480,621.007935 632.492981,628.654907 615.322449,628.694092   C597.910217,628.733826 585.558472,620.230103 580.680542,604.140320   C575.987061,588.659058 576.072083,572.893799 579.990601,557.276611   C583.762756,542.242859 594.099548,532.713867 607.963013,531.053955   C626.320679,528.855957 639.504333,533.753052 646.597656,548.824036   C647.112488,549.917847 650.084473,551.074280 651.003418,550.563477   C657.640808,546.873840 664.043457,542.761963 670.512878,538.788513   C666.184814,527.418457 659.209839,519.100342 648.852905,513.668030   C637.157715,507.533661 624.571899,505.766479 611.612061,506.226288   C580.875793,507.316803 558.981262,524.324829 551.408936,553.071289   C547.980957,566.084778 547.715027,579.337341 548.914307,592.731201   C551.919373,626.293274 572.499695,648.726746 605.959351,652.426331   C637.492493,655.912903 662.343872,645.379944 672.013428,612.780457  M805.082581,399.499969   C805.082581,413.260803 805.082581,427.021637 805.082581,440.720428   C814.788086,440.720428 823.876587,440.720428 833.371399,440.720428   C833.371399,401.032562 833.371399,361.624634 833.371399,321.852783   C847.224365,321.852783 860.668701,321.852783 874.195007,321.852783   C874.195007,313.876770 874.195007,306.270233 874.195007,298.416809   C837.423950,298.416809 800.864380,298.416809 764.291382,298.416809   C764.291382,306.397217 764.291382,314.111053 764.291382,322.191528   C778.053040,322.191528 791.472107,322.191528 805.082581,322.191528   C805.082581,347.878052 805.082581,373.188995 805.082581,399.499969  z"/>
<path fill="#FDFDFD" opacity="1.000000" stroke="none" d=" M582.048096,998.049927   C569.546448,1010.539978 557.210510,1022.697754 545.107239,1035.082764   C542.112122,1038.147705 540.255371,1038.395996 537.074341,1035.199707   C497.828674,995.765076 458.446960,956.465759 419.110901,917.121033   C417.981750,915.991577 416.968719,914.746033 415.035614,912.587830   C418.002319,912.430176 419.733948,912.262451 421.465942,912.258484   C432.628357,912.232788 443.791046,912.282166 454.953308,912.231140   C468.836945,912.167664 477.683044,903.375427 477.697479,889.435364   C477.747162,841.453430 477.719025,793.471436 477.720520,745.489441   C477.720581,743.677612 477.720520,741.865784 477.720520,739.667297   C519.954041,739.667297 561.818054,739.667297 604.279541,739.667297   C604.279541,741.768127 604.279480,743.712402 604.279480,745.656738   C604.279541,792.639099 604.670471,839.626526 604.064514,886.601074   C603.856567,902.721191 614.022705,913.425110 629.705017,912.375610   C639.988403,911.687500 650.355164,912.235596 660.684631,912.256958   C662.298279,912.260254 663.911743,912.407227 666.291809,913.703064   C638.294434,941.735901 610.297058,969.768677 582.048096,998.049927  z"/>
<path fill="#FCFCFC" opacity="1.000000" stroke="none" d=" M260.150085,164.149857   C290.190216,134.094040 320.002106,104.309021 350.750793,73.588028   C350.750793,120.402962 350.750793,165.758286 350.750793,211.529343   C305.324677,211.529343 259.830444,211.529343 212.785645,211.529343   C229.088074,195.236450 244.504974,179.828552 260.150085,164.149857  z"/>
<path fill="#656565" opacity="1.000000" stroke="none" d=" M926.832642,11.579073   C930.451721,15.335510 934.169189,19.350199 937.606445,23.591959   C938.696106,24.936644 939.038452,26.886911 939.565430,28.904058   C938.079651,27.275620 936.816589,25.255093 935.409119,23.340790   C932.588745,19.504869 929.689331,15.727035 926.832642,11.579073  z"/>
<path fill="#656565" opacity="1.000000" stroke="none" d=" M928.342773,984.759399   C923.919800,988.056885 919.147156,991.297241 914.050415,994.368042   C918.481934,991.033142 923.237488,987.867737 928.342773,984.759399  z"/>
<path fill="#656565" opacity="1.000000" stroke="none" d=" M939.516724,31.265503   C940.469604,33.176033 941.179565,35.327179 941.692871,37.851192   C940.755371,35.984745 940.014526,33.745434 939.516724,31.265503  z"/>
<path fill="#656565" opacity="1.000000" stroke="none" d=" M911.684265,994.348633   C909.790649,995.287048 907.629700,996.009155 905.104431,996.527161   C906.965759,995.592773 909.191345,994.862549 911.684265,994.348633  z"/>
<path fill="#656565" opacity="1.000000" stroke="none" d=" M941.135315,959.873413   C941.072937,962.026428 940.691528,964.286499 939.997253,966.761780   C940.061707,964.644775 940.439026,962.312622 941.135315,959.873413  z"/>
<path fill="#656565" opacity="1.000000" stroke="none" d=" M938.972900,968.808228   C938.226013,971.199341 937.151855,973.665161 935.759766,976.256714   C936.509827,973.882568 937.577698,971.382690 938.972900,968.808228  z"/>
<path fill="#656565" opacity="1.000000" stroke="none" d=" M934.768982,977.090210   C934.024902,978.781555 932.930542,980.467407 931.490723,982.159424   C932.236389,980.471985 933.327576,978.778381 934.768982,977.090210  z"/>
<path fill="#656565" opacity="1.000000" stroke="none" d=" M593.389099,1045.790039   C593.284241,1046.459106 592.867371,1047.104614 592.122742,1047.713135   C592.222412,1047.039673 592.649780,1046.402954 593.389099,1045.790039  z"/>
<path fill="#656565" opacity="1.000000" stroke="none" d=" M606.361694,1032.784424   C606.260864,1033.465332 605.854126,1034.132080 605.124023,1034.737427   C605.218994,1034.040894 605.637390,1033.405518 606.361694,1032.784424  z"/>
<path fill="#656565" opacity="1.000000" stroke="none" d=" M604.355103,1034.769775   C604.259155,1035.469238 603.854370,1036.145142 603.127563,1036.753174   C603.219116,1036.038940 603.632690,1035.392578 604.355103,1034.769775  z"/>
<path fill="#656565" opacity="1.000000" stroke="none" d=" M602.354065,1036.758789   C602.266418,1037.474121 601.865417,1038.156128 601.145752,1038.767212   C601.231628,1038.039429 601.636169,1037.382446 602.354065,1036.758789  z"/>
<path fill="#656565" opacity="1.000000" stroke="none" d=" M595.407593,1043.807617   C595.298706,1044.479614 594.874146,1045.118164 594.123657,1045.722412   C594.229187,1045.050049 594.660522,1044.412109 595.407593,1043.807617  z"/>
<path fill="#656565" opacity="1.000000" stroke="none" d=" M591.378235,1047.789673   C591.271973,1048.454468 590.858765,1049.101929 590.119263,1049.706421   C590.219116,1049.033081 590.645203,1048.402710 591.378235,1047.789673  z"/>
<path fill="#777777" opacity="1.000000" stroke="none" d=" M589.426636,1049.806396   C589.320801,1050.487183 588.902466,1051.158447 588.149841,1051.786621   C588.248413,1051.094727 588.681335,1050.445679 589.426636,1049.806396  z"/>
<path fill="#777777" opacity="1.000000" stroke="none" d=" M587.429199,1051.806152   C587.323486,1052.499146 586.905029,1053.181152 586.152954,1053.805908   C586.251709,1053.097656 586.684021,1052.446533 587.429199,1051.806152  z"/>
<path fill="#656565" opacity="1.000000" stroke="none" d=" M627.364807,1011.787109   C627.261475,1012.455750 626.853394,1013.111877 626.121094,1013.718994   C626.218018,1013.038269 626.639038,1012.406494 627.364807,1011.787109  z"/>
<path fill="#656565" opacity="1.000000" stroke="none" d=" M642.525146,996.828735   C642.379517,997.544495 641.913696,998.198547 641.131592,998.780090   C641.278564,998.060730 641.741821,997.413879 642.525146,996.828735  z"/>
<path fill="#656565" opacity="1.000000" stroke="none" d=" M640.376831,998.767944   C640.288208,999.489380 639.884033,1000.176025 639.159546,1000.791992   C639.246582,1000.058655 639.653870,999.395874 640.376831,998.767944  z"/>
<path fill="#656565" opacity="1.000000" stroke="none" d=" M633.403687,1005.808594   C633.296082,1006.478699 632.874084,1007.118408 632.125427,1007.723633   C632.228943,1007.052124 632.659119,1006.415161 633.403687,1005.808594  z"/>
<path fill="#656565" opacity="1.000000" stroke="none" d=" M631.390198,1007.792480   C631.284607,1008.459839 630.867981,1009.105957 630.123657,1009.714539   C630.223633,1009.041748 630.651367,1008.406555 631.390198,1007.792480  z"/>
<path fill="#656565" opacity="1.000000" stroke="none" d=" M629.378418,1009.791199   C629.273132,1010.458923 628.861328,1011.111206 628.123413,1011.717651   C628.222168,1011.039734 628.647095,1010.407715 629.378418,1009.791199  z"/>
<path fill="#656565" opacity="1.000000" stroke="none" d=" M608.363525,1030.786865   C608.260925,1031.454712 607.853516,1032.110352 607.121704,1032.718262   C607.217834,1032.038574 607.638306,1031.406616 608.363525,1030.786865  z"/>
<path fill="#656565" opacity="1.000000" stroke="none" d=" M625.359863,1013.783936   C625.261841,1014.467407 624.857361,1015.137268 624.129150,1015.747192   C624.221436,1015.048340 624.637451,1014.409363 625.359863,1013.783936  z"/>
<path fill="#656565" opacity="1.000000" stroke="none" d=" M623.364502,1015.773376   C623.271423,1016.478699 622.866760,1017.159546 622.138794,1017.774536   C622.227966,1017.055420 622.640503,1016.402161 623.364502,1015.773376  z"/>
<path fill="#656565" opacity="1.000000" stroke="none" d=" M621.378906,1017.768555   C621.289185,1018.489136 620.884094,1019.174438 620.158569,1019.789673   C620.246582,1019.057556 620.655029,1018.395447 621.378906,1017.768555  z"/>
<path fill="#656565" opacity="1.000000" stroke="none" d=" M614.403503,1024.808350   C614.297607,1025.479370 613.876282,1026.119629 613.128662,1026.728027   C613.230896,1026.056641 613.659546,1025.416992 614.403503,1024.808350  z"/>
<path fill="#656565" opacity="1.000000" stroke="none" d=" M612.396240,1026.794434   C612.288940,1027.462646 611.870178,1028.108643 611.123840,1028.716309   C611.225769,1028.042847 611.655273,1027.407593 612.396240,1026.794434  z"/>
<path fill="#656565" opacity="1.000000" stroke="none" d=" M610.379578,1028.792358   C610.273254,1029.457397 609.860596,1030.107544 609.121704,1030.712891   C609.221436,1030.038086 609.647339,1029.407715 610.379578,1028.792358  z"/>
<path fill="#020202" opacity="1.000000" stroke="none" d=" M459.312744,351.121796   C459.168182,349.271515 459.023621,347.904663 458.879059,346.537842   C458.257111,346.413849 457.635132,346.289886 457.013184,346.165924   C445.974213,377.752502 434.935242,409.339050 423.910400,440.885132   C415.975098,440.885132 408.328156,440.885132 400.393738,440.885132   C389.348114,409.283386 378.306274,377.692627 367.264465,346.101837   C366.645630,346.241058 366.026764,346.380249 365.407928,346.519440   C365.407928,377.812073 365.407928,409.104706 365.407928,440.698334   C356.352020,440.698334 347.958679,440.698334 339.300720,440.698334   C339.300720,393.333221 339.300720,345.965942 339.300720,298.376160   C351.444702,298.376160 363.389526,298.376160 375.984100,298.376160   C387.973328,333.145660 400.062775,368.205750 412.152191,403.265839   C412.763977,403.355255 413.375732,403.444672 413.987518,403.534119   C426.037720,368.430237 438.087891,333.326324 450.122314,298.268433   C462.095947,298.268433 473.731049,298.268433 485.720215,298.268433   C485.720215,345.745178 485.720215,393.109497 485.720215,440.738556   C477.219513,440.738556 468.622681,440.738556 459.312744,440.738556   C459.312744,411.079468 459.312744,381.342346 459.312744,351.121796  z"/>
<path fill="#020202" opacity="1.000000" stroke="none" d=" M650.881592,413.999939   C650.881592,375.218903 650.881592,336.937897 650.881592,298.154358   C656.379944,298.154358 661.497131,298.093384 666.612366,298.165436   C684.091614,298.411652 701.645142,297.784515 719.031189,299.199280   C743.999817,301.231079 758.212280,323.151215 751.503479,347.302734   C748.536804,357.982544 741.097961,364.389557 731.421387,368.732697   C729.820007,369.451416 728.183228,370.091431 726.127075,370.949738   C726.971802,372.063293 727.292053,372.901245 727.885559,373.204498   C734.955139,376.817413 739.468384,382.704102 742.056213,389.946838   C748.026123,406.654968 753.703003,423.467712 759.660767,440.706879   C749.615417,440.706879 740.240845,440.706879 730.540771,440.706879   C725.695312,425.996185 720.817749,411.202728 715.950439,396.406006   C712.776428,386.756958 706.399597,381.488037 695.966064,381.624939   C690.483154,381.696869 684.998474,381.637665 679.112183,381.637665   C679.112183,401.346405 679.112183,420.933319 679.112183,440.759094   C669.631042,440.759094 660.549866,440.759094 650.881592,440.759094   C650.881592,432.012146 650.881592,423.256042 650.881592,413.999939  M724.971313,343.980255   C724.993347,341.656769 725.163513,339.323486 725.011292,337.011475   C724.406067,327.820679 718.876160,321.591705 709.674805,321.087646   C699.622009,320.536926 689.515747,320.962433 679.225830,320.962433   C679.225830,333.580017 679.225830,346.126953 679.225830,359.044220   C688.656433,359.044220 697.913025,359.224030 707.159485,358.995728   C717.234924,358.746979 722.196533,354.602844 724.971313,343.980255  z"/>
<path fill="#020202" opacity="1.000000" stroke="none" d=" M428.611755,584.603027   C437.120667,560.068115 445.507538,535.907837 453.746857,511.697357   C454.627258,509.110291 455.648163,508.011292 458.565918,508.074646   C468.221771,508.284363 477.887604,508.278992 487.543793,508.077301   C490.429047,508.016998 491.522552,509.032410 492.426056,511.661682   C508.076172,557.206665 523.838745,602.712952 539.562744,648.232605   C539.824402,648.990112 539.911438,649.807922 540.166199,651.001953   C530.934143,651.001953 521.975525,651.124023 513.029114,650.848572   C511.900940,650.813843 510.306030,648.874390 509.828644,647.503540   C506.447479,637.793518 503.301483,628.001587 500.066345,618.192871   C481.839600,618.192871 463.878296,618.192871 445.397430,618.192871   C441.883240,628.886597 438.326416,639.710022 434.694672,650.761353   C425.293762,650.761353 415.851990,650.761353 405.777344,650.761353   C413.366547,628.734009 420.906799,606.848572 428.611755,584.603027  M481.468079,594.299622   C484.901337,594.299622 488.334595,594.299622 492.246155,594.299622   C486.355194,576.295105 480.697296,558.938354 474.962585,541.606995   C474.537994,540.323792 473.561340,539.223389 472.841309,538.037964   C471.943451,539.223083 470.651794,540.277344 470.207703,541.613342   C464.808777,557.854797 459.524597,574.134399 454.249207,590.416626   C453.878510,591.560791 453.812317,592.803589 453.552582,594.299622   C462.830841,594.299622 471.653290,594.299622 481.468079,594.299622  z"/>
<path fill="#020202" opacity="1.000000" stroke="none" d=" M586.776306,298.814087   C603.258606,346.257690 619.539978,393.328674 635.940247,440.743469   C626.016113,440.743469 616.450989,440.743469 606.298828,440.743469   C602.832336,430.211975 599.272034,419.395599 595.627319,408.322632   C577.577820,408.322632 559.473694,408.322632 540.863770,408.322632   C537.380005,418.903290 533.810303,429.744965 530.183899,440.758789   C520.642395,440.758789 511.249054,440.758789 501.255035,440.758789   C517.707764,393.111816 534.057556,345.762848 550.397827,298.441498   C562.652710,298.441498 574.614014,298.441498 586.776306,298.814087  M581.145813,364.288116   C577.480469,353.080566 573.836853,341.865814 570.111694,330.678162   C569.787048,329.703125 568.925842,328.906769 568.313843,328.027405   C567.538879,328.925903 566.441162,329.702515 566.047546,330.744995   C564.699768,334.314606 563.585938,337.973267 562.406189,341.605560   C557.848755,355.637756 553.300415,369.672913 548.678467,383.923157   C561.790222,383.923157 574.454651,383.923157 587.605591,383.923157   C585.436951,377.305420 583.426270,371.169586 581.145813,364.288116  z"/>
<path fill="#020202" opacity="1.000000" stroke="none" d=" M783.028076,651.000854   C774.234253,652.601318 768.985474,648.991882 763.929443,642.354126   C751.023560,625.410767 737.261963,609.118164 723.779358,592.617004   C722.550476,591.112915 720.865540,589.981384 719.392334,588.676880   C718.998718,588.933716 718.605103,589.190613 718.211487,589.447449   C718.211487,609.800903 718.211487,630.154358 718.211487,650.752319   C708.643738,650.752319 699.565002,650.752319 690.183411,650.752319   C690.183411,603.411194 690.183411,556.052856 690.183411,508.424866   C699.303223,508.424866 708.374023,508.424866 717.893921,508.424866   C717.893921,527.716736 717.893921,546.956726 717.893921,567.990845   C720.640747,565.815186 722.532715,564.781921 723.804626,563.237854   C737.776550,546.276367 751.727295,529.295837 765.483032,512.159424   C767.922241,509.120605 770.432373,507.920563 774.292297,508.069061   C781.932312,508.363037 789.591736,508.155884 798.432007,509.266296   C794.187012,514.688843 789.978394,520.140442 785.686951,525.526062   C781.225952,531.124390 776.684143,536.658264 772.178955,542.221497   C767.778687,547.655334 763.378723,553.089417 758.981323,558.525574   C754.482361,564.087341 749.986755,569.651917 745.175476,575.603943   C764.786255,600.290710 784.405884,624.988647 804.025574,649.686523   C803.636353,650.124634 803.247192,650.562744 802.858032,651.000854   C796.412659,651.000854 789.967346,651.000854 783.028076,651.000854  z"/>
<path fill="#030303" opacity="1.000000" stroke="none" d=" M287.661316,391.604919   C283.068512,385.306274 276.361816,383.700165 269.751465,382.020233   C261.379547,379.892609 252.833862,378.358215 244.595551,375.815125   C230.210739,371.374573 218.766541,363.356842 215.071671,347.655243   C209.790176,325.211182 220.169952,306.523193 242.194901,299.598267   C259.715088,294.089691 277.465515,294.588104 294.572205,301.207581   C301.361572,303.834686 307.304474,308.649384 314.078278,312.736938   C308.955902,319.775482 304.790741,325.765503 300.241974,331.448425   C299.593384,332.258728 296.432465,332.298157 295.537689,331.483093   C284.269196,321.218262 270.959473,318.847565 256.471985,321.058868   C245.367432,322.753876 239.873337,329.939240 241.912460,339.602173   C243.303314,346.192993 248.186295,349.327576 253.991425,350.887726   C262.648895,353.214447 271.494873,354.830231 280.207916,356.963806   C284.711731,358.066620 289.234924,359.306091 293.520294,361.047516   C311.484283,368.347443 320.377197,383.256775 318.572784,402.585114   C316.590179,423.822205 305.470764,436.656097 284.417114,441.149597   C266.363617,445.002808 248.662598,443.435303 231.690430,435.890137   C223.648209,432.314911 216.941788,426.961884 211.588257,419.907990   C209.946518,417.744781 209.633667,416.163940 211.670792,413.919830   C215.582138,409.611084 219.260071,405.071045 222.782822,400.435455   C225.252853,397.185150 226.977112,397.043762 229.609009,400.419586   C240.677734,414.617004 255.360245,420.378387 273.139526,418.131439   C287.281494,416.344147 293.433929,405.259827 287.661316,391.604919  z"/>
<path fill="#030303" opacity="1.000000" stroke="none" d=" M325.847412,646.800476   C325.952393,649.339478 326.175293,651.145142 322.974609,651.069092   C314.681305,650.872070 306.380219,651.002930 297.866760,651.002930   C297.866760,603.303528 297.866760,555.956726 297.866760,508.583862   C298.563110,508.406616 299.030731,508.179657 299.495789,508.184753   C320.464630,508.415039 341.499664,507.711334 362.384338,509.165497   C386.237793,510.826355 400.973328,528.593384 400.969879,553.055237   C400.966431,577.480286 386.165222,594.819397 362.302429,596.920166   C350.439392,597.964417 338.408447,597.101685 325.847412,597.101685   C325.847412,614.158325 325.847412,630.239990 325.847412,646.800476  M353.168671,575.133301   C366.975342,573.630981 373.661194,565.185547 372.467651,550.755127   C371.478729,538.799072 365.619781,531.851807 354.617889,531.117310   C345.229370,530.490540 335.765808,530.987854 326.121704,530.987854   C326.121704,545.694519 326.121704,560.383545 326.121704,575.205383   C335.009308,575.205383 343.623901,575.205383 353.168671,575.133301  z"/>
<path fill="#030303" opacity="1.000000" stroke="none" d=" M671.992859,613.167358   C662.343872,645.379944 637.492493,655.912903 605.959351,652.426331   C572.499695,648.726746 551.919373,626.293274 548.914307,592.731201   C547.715027,579.337341 547.980957,566.084778 551.408936,553.071289   C558.981262,524.324829 580.875793,507.316803 611.612061,506.226288   C624.571899,505.766479 637.157715,507.533661 648.852905,513.668030   C659.209839,519.100342 666.184814,527.418457 670.512878,538.788513   C664.043457,542.761963 657.640808,546.873840 651.003418,550.563477   C650.084473,551.074280 647.112488,549.917847 646.597656,548.824036   C639.504333,533.753052 626.320679,528.855957 607.963013,531.053955   C594.099548,532.713867 583.762756,542.242859 579.990601,557.276611   C576.072083,572.893799 575.987061,588.659058 580.680542,604.140320   C585.558472,620.230103 597.910217,628.733826 615.322449,628.694092   C632.492981,628.654907 642.904480,621.007935 648.292114,604.492432   C648.594604,603.565125 648.980408,602.664917 649.766541,600.597107   C657.393921,604.774170 664.703674,608.777344 671.992859,613.167358  z"/>
<path fill="#020202" opacity="1.000000" stroke="none" d=" M805.082581,398.999939   C805.082581,373.188995 805.082581,347.878052 805.082581,322.191528   C791.472107,322.191528 778.053040,322.191528 764.291382,322.191528   C764.291382,314.111053 764.291382,306.397217 764.291382,298.416809   C800.864380,298.416809 837.423950,298.416809 874.195007,298.416809   C874.195007,306.270233 874.195007,313.876770 874.195007,321.852783   C860.668701,321.852783 847.224365,321.852783 833.371399,321.852783   C833.371399,361.624634 833.371399,401.032562 833.371399,440.720428   C823.876587,440.720428 814.788086,440.720428 805.082581,440.720428   C805.082581,427.021637 805.082581,413.260803 805.082581,398.999939  z"/>
<path fill="#FEFEFE" opacity="1.000000" stroke="none" d=" M724.928284,344.410645   C722.196533,354.602844 717.234924,358.746979 707.159485,358.995728   C697.913025,359.224030 688.656433,359.044220 679.225830,359.044220   C679.225830,346.126953 679.225830,333.580017 679.225830,320.962433   C689.515747,320.962433 699.622009,320.536926 709.674805,321.087646   C718.876160,321.591705 724.406067,327.820679 725.011292,337.011475   C725.163513,339.323486 724.993347,341.656769 724.928284,344.410645  z"/>
<path fill="#FCFCFC" opacity="1.000000" stroke="none" d=" M480.971893,594.299622   C471.653290,594.299622 462.830841,594.299622 453.552582,594.299622   C453.812317,592.803589 453.878510,591.560791 454.249207,590.416626   C459.524597,574.134399 464.808777,557.854797 470.207703,541.613342   C470.651794,540.277344 471.943451,539.223083 472.841309,538.037964   C473.561340,539.223389 474.537994,540.323792 474.962585,541.606995   C480.697296,558.938354 486.355194,576.295105 492.246155,594.299622   C488.334595,594.299622 484.901337,594.299622 480.971893,594.299622  z"/>
<path fill="#FCFCFC" opacity="1.000000" stroke="none" d=" M581.280762,364.660950   C583.426270,371.169586 585.436951,377.305420 587.605591,383.923157   C574.454651,383.923157 561.790222,383.923157 548.678467,383.923157   C553.300415,369.672913 557.848755,355.637756 562.406189,341.605560   C563.585938,337.973267 564.699768,334.314606 566.047546,330.744995   C566.441162,329.702515 567.538879,328.925903 568.313843,328.027405   C568.925842,328.906769 569.787048,329.703125 570.111694,330.678162   C573.836853,341.865814 577.480469,353.080566 581.280762,364.660950  z"/>
<path fill="#FEFEFE" opacity="1.000000" stroke="none" d=" M352.703552,575.169312   C343.623901,575.205383 335.009308,575.205383 326.121704,575.205383   C326.121704,560.383545 326.121704,545.694519 326.121704,530.987854   C335.765808,530.987854 345.229370,530.490540 354.617889,531.117310   C365.619781,531.851807 371.478729,538.799072 372.467651,550.755127   C373.661194,565.185547 366.975342,573.630981 352.703552,575.169312  z"/>
</svg>