<svg version="1.1" id="Layer_1" xmlns="http://www.w3.org/2000/svg" xmlns:xlink="http://www.w3.org/1999/xlink" x="0px" y="0px"
	 width="100%" viewBox="0 0 500 500" enable-background="new 0 0 500 500" xml:space="preserve">
<path fill="#030303" opacity="1.000000" stroke="none" 
	d="
M125.138588,460.785217 
	C95.268623,460.048889 74.016319,438.575073 74.007965,409.417755 
	C73.976135,298.280426 73.980995,187.143112 74.006126,76.005791 
	C74.011688,51.386360 89.002068,31.885561 112.603920,25.935709 
	C116.260803,25.013832 120.187607,24.865128 123.990005,24.862000 
	C199.136780,24.800182 274.283661,24.789721 349.430237,24.925604 
	C351.590759,24.929512 354.236664,26.129713 355.834351,27.641010 
	C383.307556,53.628536 410.630890,79.774422 438.055450,105.813591 
	C440.745544,108.367798 442.103027,110.954155 442.098267,114.873405 
	C441.979584,212.847397 442.017303,310.821564 441.997559,408.795685 
	C441.991486,438.966888 420.199646,460.773224 390.048920,460.780243 
	C301.905609,460.800781 213.762314,460.786957 125.138588,460.785217 
M419.641663,199.500183 
	C419.641663,178.888870 419.641663,158.277573 419.641663,137.445663 
	C418.124451,137.315567 417.167175,137.162521 416.209778,137.161850 
	C397.215179,137.148499 378.200714,136.608536 359.231415,137.301697 
	C338.966919,138.042160 327.568604,122.929039 326.673004,105.170151 
	C326.010864,92.040627 326.542877,78.850883 326.542877,65.687965 
	C326.542877,59.558434 326.542847,53.428898 326.542847,46.954632 
	C324.419281,46.954632 322.781494,46.954628 321.143677,46.954628 
	C256.662048,46.954647 192.180435,46.950481 127.698807,46.957146 
	C107.442780,46.959240 96.284958,58.178909 96.283653,78.565735 
	C96.276680,187.867920 96.276588,297.170105 96.283714,406.472290 
	C96.285065,427.277069 107.275284,438.330475 128.013702,438.334106 
	C214.655685,438.349243 301.297668,438.348175 387.939636,438.310303 
	C391.089203,438.308929 394.314209,438.214905 397.375122,437.560699 
	C411.541107,434.532990 419.625305,423.549194 419.630890,407.441223 
	C419.654755,338.460876 419.641418,269.480560 419.641663,199.500183 
M394.497375,110.998589 
	C400.075409,110.998589 405.653473,110.998589 412.583588,110.998589 
	C392.290253,91.938690 372.952362,73.776192 352.720520,54.774048 
	C352.720520,71.815987 352.719910,87.412376 352.720825,103.008759 
	C352.721252,110.259674 353.349945,110.953102 360.574799,110.985458 
	C371.549194,111.034615 382.523926,110.998489 394.497375,110.998589 
z"/>
<path fill="#C0C2C1" opacity="1.000000" stroke="none" 
	d="
M373.899689,483.943420 
	C372.858490,489.226227 369.651245,491.074554 364.855988,491.072662 
	C291.903503,491.043793 218.951004,491.061798 145.998520,491.032318 
	C140.531967,491.030090 137.219070,488.093781 137.183868,483.582245 
	C137.147385,478.907013 140.594604,475.924591 146.329239,475.920288 
	C184.804153,475.891449 223.279114,475.902954 261.754059,475.902496 
	C295.731934,475.902100 329.709808,475.896790 363.687683,475.908813 
	C370.655457,475.911285 371.952393,476.914062 373.899689,483.943420 
z"/>
<path fill="#020202" opacity="1.000000" stroke="none" 
	d="
M288.836365,111.076004 
	C293.343781,110.700760 292.359863,113.680885 292.364563,115.795746 
	C292.407074,134.958176 292.389496,154.120758 292.389496,173.283295 
	C292.389496,175.104263 292.389496,176.925232 292.389496,179.441742 
	C303.467255,179.441742 314.311462,179.441742 325.206390,179.441742 
	C302.340332,202.164810 279.855713,224.508774 257.670441,246.555267 
	C236.115036,225.006393 213.598892,202.497070 190.909180,179.814240 
	C201.372131,179.814240 212.065704,179.814240 223.381226,179.814240 
	C223.381226,156.730301 223.381226,134.184372 223.381226,111.075165 
	C245.454407,111.075165 266.902252,111.075165 288.836365,111.076004 
z"/>
<path fill="#0A0A0A" opacity="1.000000" stroke="none" 
	d="
M208.999573,377.322388 
	C197.334488,377.322418 186.169098,377.365021 175.004593,377.285187 
	C172.871246,377.269958 170.101593,377.503815 168.756500,376.328430 
	C166.622955,374.464111 164.495529,371.651276 164.093796,368.979797 
	C163.566803,365.475098 166.024155,362.642639 169.734390,361.830200 
	C171.818420,361.373871 174.040573,361.453522 176.200546,361.452820 
	C230.692780,361.435242 285.184998,361.436340 339.677246,361.449951 
	C341.672150,361.450439 343.694336,361.431793 345.656189,361.732574 
	C349.709839,362.354065 351.775391,365.117065 352.013306,368.960358 
	C352.255096,372.865173 350.355194,375.783630 346.417297,376.755890 
	C344.351196,377.266052 342.131470,377.299561 339.980988,377.300995 
	C296.487183,377.329681 252.993393,377.322449 208.999573,377.322388 
z"/>
<path fill="#070707" opacity="1.000000" stroke="none" 
	d="
M310.796509,280.045258 
	C321.566467,286.857086 325.864685,300.056885 322.253113,314.330414 
	C319.163574,326.540771 310.284576,334.189636 297.707458,334.878845 
	C290.590881,335.268829 283.435425,334.949249 276.084930,334.949249 
	C276.084930,315.415680 276.084930,296.848999 276.084930,277.770294 
	C287.842163,277.770691 299.300781,275.590576 310.796509,280.045258 
M308.122040,296.880676 
	C303.990509,289.782257 297.955750,287.529785 289.217194,289.720398 
	C289.217194,300.654816 289.217194,311.543488 289.217194,322.397827 
	C300.766357,323.059265 307.536652,318.567932 308.912323,308.965424 
	C309.438416,305.293274 308.608307,301.426849 308.122040,296.880676 
z"/>
<path fill="#0A0A0A" opacity="1.000000" stroke="none" 
	d="
M170.043030,278.574219 
	C174.375549,277.931580 178.768616,277.484741 183.150253,277.577728 
	C184.235016,277.600739 185.507660,279.218872 186.306992,280.371948 
	C189.217545,284.570526 191.964127,288.882721 195.189316,293.785706 
	C198.173965,289.142273 201.114822,285.173950 203.362183,280.845551 
	C204.737091,278.197479 206.320068,277.255188 209.135986,277.399048 
	C212.563477,277.574097 216.006744,277.440643 220.522110,277.440643 
	C215.157822,285.742889 210.640488,293.093994 205.728546,300.171204 
	C203.562576,303.291962 203.151489,305.623993 205.393875,309.006195 
	C210.712173,317.027802 215.545685,325.370850 220.581009,333.593567 
	C212.322876,336.735352 206.366608,334.951477 201.845367,328.045776 
	C199.502914,324.467926 197.130981,320.909393 194.392075,316.766937 
	C191.215958,321.392517 188.184769,325.334778 185.684204,329.588928 
	C183.429688,333.424408 180.678513,335.388947 176.081360,334.706329 
	C173.670731,334.348389 171.163208,334.643127 167.583801,334.643127 
	C171.798355,328.114685 174.916092,321.828156 179.375198,316.710388 
	C186.537125,308.490540 186.800537,301.285797 179.404236,293.115540 
	C175.661194,288.980835 173.161316,283.720703 170.043030,278.574219 
z"/>
<path fill="#080808" opacity="1.000000" stroke="none" 
	d="
M241.658325,318.015625 
	C241.658325,323.647034 241.658325,328.779968 241.658325,334.272278 
	C237.419022,334.272278 233.539215,334.272278 229.284439,334.272278 
	C229.284439,315.647888 229.284439,297.109619 229.284439,278.162354 
	C241.631180,278.162354 253.818832,278.162354 266.306396,278.162354 
	C266.306396,281.246246 266.306396,284.344513 266.306396,288.008118 
	C258.322021,288.008118 250.423630,288.008118 242.094177,288.008118 
	C242.094177,292.106201 242.094177,295.661224 242.094177,299.838593 
	C248.950500,299.838593 256.161224,299.838593 263.770142,299.838593 
	C263.770142,303.646545 263.770142,306.858978 263.770142,310.642151 
	C256.640991,310.642151 249.422256,310.642151 241.658340,310.642151 
	C241.658340,313.296143 241.658340,315.406647 241.658325,318.015625 
z"/>
<path fill="#090909" opacity="1.000000" stroke="none" 
	d="
M359.920166,310.749481 
	C355.112244,310.745117 350.790924,310.745117 345.837646,310.745117 
	C345.837646,318.601257 345.837646,326.316528 345.837646,334.326843 
	C341.314331,334.326843 337.423004,334.326843 333.250031,334.326843 
	C333.250031,315.484955 333.250031,296.923767 333.250031,278.057098 
	C345.726379,278.057098 357.812927,278.057098 370.219727,278.057098 
	C370.219727,281.296814 370.219727,284.517578 370.219727,288.145874 
	C362.102722,288.145874 354.316528,288.145874 346.104584,288.145874 
	C346.104584,292.098206 346.104584,295.659698 346.104584,299.851837 
	C352.963684,299.851837 360.178192,299.851837 367.713501,299.851837 
	C367.713501,303.695221 367.713501,306.931763 367.713501,310.753845 
	C365.289825,310.753845 362.848328,310.753845 359.920166,310.749481 
z"/>
<path fill="#0F0F0F" opacity="1.000000" stroke="none" 
	d="
M150.288849,324.024017 
	C157.179886,322.402924 160.954971,323.576019 161.518784,327.950195 
	C161.835419,330.406860 161.135025,334.531860 159.565857,335.345245 
	C157.014236,336.667908 153.157532,336.589569 150.287262,335.698883 
	C148.899246,335.268097 147.968384,331.680511 147.828064,329.459229 
	C147.720749,327.760223 149.179871,325.962280 150.288849,324.024017 
z"/>

</svg>
