<svg version="1.1" id="Layer_1" xmlns="http://www.w3.org/2000/svg" xmlns:xlink="http://www.w3.org/1999/xlink" x="0px" y="0px"
	 width="100%" viewBox="0 0 500 500" enable-background="new 0 0 500 500" xml:space="preserve">
<path fill="#010101" opacity="1.000000" stroke="none" d=" M401.531342,1.000001 
	C410.180878,4.641397 419.103180,7.195535 426.382172,12.159437 
	C439.894073,21.373873 446.541687,35.189255 447.902802,51.478630 
	C448.027405,52.969761 447.998901,54.475807 447.998932,55.974926 
	C448.002930,175.108322 448.020294,294.241730 447.989288,413.375122 
	C447.982208,440.574554 429.834564,462.490723 403.354828,467.432648 
	C401.080933,467.857025 398.723877,467.997284 396.405365,467.998016 
	C300.265564,468.029358 204.125717,468.084961 107.985992,468.001190 
	C77.762863,467.974854 54.042469,444.274261 54.025520,414.134796 
	C53.958256,294.501617 53.965969,174.868301 54.022156,55.235081 
	C54.034737,28.444159 71.943390,7.194141 98.868439,1.362062 
	C199.687561,1.000000 300.375122,1.000000 401.531342,1.000001 
M368.502838,121.730049 
	C364.837433,121.754959 361.167480,121.909019 357.507446,121.780602 
	C346.464630,121.393150 336.994263,117.898720 331.098755,107.792183 
	C326.865540,100.535294 324.119293,93.005318 324.287872,84.269806 
	C324.666382,64.657875 324.406494,45.033630 324.406494,25.001631 
	C322.414154,25.001631 320.781189,25.001633 319.148193,25.001633 
	C249.660904,25.001631 180.173615,24.995262 110.686333,25.005589 
	C90.387466,25.008606 77.985573,37.337559 77.982796,57.589584 
	C77.966614,175.568008 77.965744,293.546417 77.983627,411.524841 
	C77.986710,431.873749 90.260452,444.142609 110.683723,444.148987 
	C204.166611,444.178192 297.649506,444.175812 391.132416,444.150879 
	C411.801239,444.145355 424.014221,431.872375 424.017090,411.189178 
	C424.030334,316.373199 424.022919,221.557205 424.022919,126.741226 
	C424.022919,125.130814 424.022919,123.520409 424.022919,121.730034 
	C405.466949,121.730034 387.484406,121.730034 368.502838,121.730049 
M403.619202,26.688259 
	C399.860382,26.124254 396.109711,25.148932 392.341156,25.073927 
	C381.351379,24.855198 370.354462,24.996235 359.360321,24.996231 
	C357.113922,24.996231 354.867523,24.996235 352.408966,24.996235 
	C352.408966,45.526955 352.408936,65.331787 352.409027,85.136612 
	C352.409058,92.855797 353.245056,93.707497 361.269135,93.720230 
	C378.593170,93.747719 395.917297,93.728691 413.241364,93.728691 
	C416.699188,93.728699 420.157043,93.728699 424.027527,93.728699 
	C424.027527,80.811226 424.146851,68.357605 423.995697,55.907261 
	C423.826965,42.011162 417.314209,32.250980 403.619202,26.688259 
z"/>
  
<path fill="#C0C2C1" opacity="1.000000" stroke="none" 
	d="
M127.468658,501.000000 
	C126.455025,500.402466 126.010460,499.641632 125.348373,499.234528 
	C121.716743,497.001556 121.240219,493.463348 122.328911,490.030640 
	C123.494148,486.356659 126.266632,483.969452 130.556335,483.994324 
	C138.720627,484.041626 146.885422,484.000458 155.050018,484.000397 
	C224.699142,483.999786 294.348267,484.011627 363.997375,483.967499 
	C367.628845,483.965179 370.976562,484.165039 373.252563,487.532043 
	C376.320374,492.070435 375.426605,495.955627 370.115112,500.672363 
	C289.312439,501.000000 208.624878,501.000000 127.468658,501.000000 
z"/>
<path fill="#010101" opacity="1.000000" stroke="none" 
	d="
M244.000092,93.832146 
	C258.797516,93.832146 273.094971,93.832146 287.758911,93.832146 
	C287.758911,118.268990 287.758911,142.354507 287.758911,166.769775 
	C299.879547,166.769775 311.641174,166.769775 322.782623,166.769775 
	C298.664246,190.821945 274.400360,215.019226 250.373932,238.979706 
	C227.039276,215.630646 202.853943,191.430374 178.591278,167.152725 
	C190.068695,167.152725 201.784470,167.152725 213.893585,167.152725 
	C213.893585,142.709854 213.893585,118.642616 213.893585,93.832146 
	C224.015244,93.832146 233.757660,93.832146 244.000092,93.832146 
z"/>
<path fill="#040404" opacity="1.000000" stroke="none" 
	d="
M251.000092,361.823608 
	C281.640991,361.824036 311.783691,362.000671 341.921570,361.698700 
	C349.284912,361.624939 353.837341,368.439728 351.004395,373.282867 
	C349.679565,375.547821 346.764648,377.030090 344.319305,378.427948 
	C343.153259,379.094604 341.400970,378.827759 339.914154,378.828156 
	C280.631470,378.843719 221.348801,378.845032 162.066132,378.836670 
	C154.990234,378.835693 151.869186,377.054230 150.598465,372.406555 
	C149.242310,367.446442 152.477448,362.502960 157.587387,361.981262 
	C160.062149,361.728577 162.576508,361.829559 165.072952,361.828827 
	C193.548660,361.820587 222.024368,361.823608 251.000092,361.823608 
z"/>
<path fill="#030303" opacity="1.000000" stroke="none" 
	d="
M313.207458,278.791199 
	C322.286316,290.223846 323.662262,307.053894 316.636658,319.356750 
	C312.041809,327.403015 305.090637,332.369446 295.837189,332.971375 
	C287.429718,333.518280 278.958649,333.087067 270.222534,333.087067 
	C270.222534,312.608124 270.222534,292.740540 270.222534,272.725037 
	C281.222931,272.725037 291.971832,272.251801 302.636658,272.991425 
	C306.188293,273.237732 309.524384,276.592468 313.207458,278.791199 
M287.444183,320.196075 
	C301.324799,320.734344 307.427338,309.192230 305.961609,297.449066 
	C304.677765,287.163208 296.445496,282.352844 284.060028,284.808777 
	C284.060028,295.876160 284.015289,306.994751 284.164917,318.110718 
	C284.174500,318.820038 285.691376,319.509125 287.444183,320.196075 
z"/>
<path fill="#040404" opacity="1.000000" stroke="none" 
	d="
M163.590698,318.563049 
	C166.731628,313.829163 169.517502,309.286865 172.635147,304.985046 
	C174.448364,302.483093 174.532578,300.544891 172.771500,297.921753 
	C167.225754,289.661255 161.941940,281.224945 155.952942,271.918365 
	C161.540924,271.918365 166.392410,271.777252 171.222366,272.036713 
	C172.195831,272.088989 173.287506,273.525055 173.983017,274.554108 
	C177.211609,279.330841 180.319946,284.188812 183.831070,289.568970 
	C187.588669,283.548309 191.082428,277.950409 194.751602,272.071411 
	C199.450104,272.071411 204.561279,272.071411 210.711151,272.071411 
	C205.417099,280.273071 200.832993,288.108734 195.482605,295.380646 
	C192.415482,299.549255 192.498062,302.551849 195.310944,306.728119 
	C200.863510,314.972046 205.836090,323.606598 211.598175,332.973114 
	C206.163147,332.973114 201.306763,333.111877 196.471527,332.854065 
	C195.523392,332.803528 194.471161,331.343475 193.784317,330.320404 
	C190.281296,325.102722 186.882462,319.815063 182.943207,313.779816 
	C179.379456,319.024567 175.920532,323.597382 173.048630,328.513092 
	C170.929184,332.140900 168.346512,333.590240 164.197586,333.077057 
	C161.265274,332.714417 158.251923,333.006927 154.304688,333.006927 
	C157.572388,327.908661 160.473648,323.382111 163.590698,318.563049 
z"/>
<path fill="#080808" opacity="1.000000" stroke="none" 
	d="
M365.627930,283.496033 
	C358.551056,283.502411 351.935425,283.502411 345.087219,283.502411 
	C345.087219,287.694580 345.087219,291.480591 345.087219,295.958191 
	C352.771240,295.958191 360.638580,295.958191 368.713287,295.958191 
	C368.713287,300.081268 368.713287,303.521667 368.713287,307.318054 
	C360.961060,307.318054 353.200592,307.318054 345.003479,307.318054 
	C345.003479,315.899689 345.003479,324.149109 345.003479,332.702118 
	C340.343567,332.702118 336.112427,332.702118 331.510254,332.702118 
	C331.510254,312.639313 331.510254,292.604126 331.510254,272.324036 
	C344.868042,272.324036 357.787415,272.324036 371.124054,272.324036 
	C371.124054,275.758148 371.124054,279.270447 371.124054,283.094025 
	C369.329224,283.235046 367.709167,283.362335 365.627930,283.496033 
z"/>
<path fill="#080808" opacity="1.000000" stroke="none" 
	d="
M249.971222,272.078857 
	C253.588852,272.078857 256.711823,272.078857 260.189423,272.078857 
	C260.189423,274.521698 260.217041,276.486115 260.180389,278.449341 
	C260.152710,279.930908 260.042725,281.410980 259.948303,283.316406 
	C251.281433,283.316406 242.819351,283.316406 233.951950,283.316406 
	C233.951950,287.641174 233.951950,291.544922 233.951950,295.948883 
	C241.458054,295.948883 249.233093,295.948883 257.362885,295.948883 
	C257.362885,299.976562 257.362885,303.516571 257.362885,307.356628 
	C249.629089,307.356628 242.011703,307.356628 233.841904,307.356628 
	C233.841904,315.845245 233.841904,324.077759 233.841904,332.656677 
	C229.092209,332.656677 224.880814,332.656677 220.287888,332.656677 
	C220.287888,312.661774 220.287888,292.623749 220.287888,272.078857 
	C230.250595,272.078857 239.863571,272.078857 249.971222,272.078857 
z"/>
<path fill="#050505" opacity="1.000000" stroke="none" 
	d="
M147.475037,332.036804 
	C144.359726,337.019104 139.804703,335.973083 136.168991,334.509155 
	C134.422882,333.806091 133.251617,330.084167 133.000259,327.609528 
	C132.553070,323.207031 135.111206,320.970306 139.649857,320.903717 
	C144.986832,320.825439 147.592072,322.636871 147.982452,327.246887 
	C148.106186,328.708099 147.787781,330.206696 147.475037,332.036804 
z"/>
</svg>
