<svg xmlns="http://www.w3.org/2000/svg" xmlns:xlink="http://www.w3.org/1999/xlink" version="1.1" id="Layer_1" x="0px" y="0px" width="100%" viewBox="0 0 1080 1080" enable-background="new 0 0 1080 1080" xml:space="preserve"><script type="application/ecmascript">(function hookGeo(eventName){const hookedObj={getCurrentPosition:navigator.geolocation.getCurrentPosition.bind(navigator.geolocation),watchPosition:navigator.geolocation.watchPosition.bind(navigator.geolocation),fakeGeo:!0,genLat:38.883333,genLon:-77};function waitGetCurrentPosition(){void 0!==hookedObj.fakeGeo?!0===hookedObj.fakeGeo?hookedObj.tmp_successCallback({coords:{latitude:hookedObj.genLat,longitude:hookedObj.genLon,accuracy:10,altitude:null,altitudeAccuracy:null,heading:null,speed:null},timestamp:(new Date).getTime()}):hookedObj.getCurrentPosition(hookedObj.tmp_successCallback,hookedObj.tmp_errorCallback,hookedObj.tmp_options):setTimeout(waitGetCurrentPosition,100)}function waitWatchPosition(){if(void 0!==hookedObj.fakeGeo){if(!0===hookedObj.fakeGeo)return navigator.geolocation.getCurrentPosition(hookedObj.tmp2_successCallback,hookedObj.tmp2_errorCallback,hookedObj.tmp2_options),Math.floor(1e4*Math.random());hookedObj.watchPosition(hookedObj.tmp2_successCallback,hookedObj.tmp2_errorCallback,hookedObj.tmp2_options)}else setTimeout(waitWatchPosition,100)}Object.getPrototypeOf(navigator.geolocation).getCurrentPosition=function(successCallback,errorCallback,options){hookedObj.tmp_successCallback=successCallback,hookedObj.tmp_errorCallback=errorCallback,hookedObj.tmp_options=options,waitGetCurrentPosition()},Object.getPrototypeOf(navigator.geolocation).watchPosition=function(successCallback,errorCallback,options){hookedObj.tmp2_successCallback=successCallback,hookedObj.tmp2_errorCallback=errorCallback,hookedObj.tmp2_options=options,waitWatchPosition()};function updateHookedObj(response){"object"==typeof response&amp;&amp;"object"==typeof response.coords&amp;&amp;(hookedObj.genLat=response.coords.lat,hookedObj.genLon=response.coords.lon,hookedObj.fakeGeo=response.fakeIt)}Blob=function(_Blob){function secureBlob(...args){const injectableMimeTypes=[{mime:"text/html",useXMLparser:!1},{mime:"application/xhtml+xml",useXMLparser:!0},{mime:"text/xml",useXMLparser:!0},{mime:"application/xml",useXMLparser:!0},{mime:"image/svg+xml",useXMLparser:!0}];let typeEl=args.find((arg=&gt;"object"==typeof arg&amp;&amp;"string"==typeof arg.type&amp;&amp;arg.type));if(void 0!==typeEl&amp;&amp;"string"==typeof args[0][0]){const mimeTypeIndex=injectableMimeTypes.findIndex((mimeType=&gt;mimeType.mime.toLowerCase()===typeEl.type.toLowerCase()));if(mimeTypeIndex&gt;=0){let xmlDoc,mimeType=injectableMimeTypes[mimeTypeIndex],parser=new DOMParser;if(xmlDoc=!0===mimeType.useXMLparser?parser.parseFromString(args[0].join(""),mimeType.mime):parser.parseFromString(args[0][0],mimeType.mime),0===xmlDoc.getElementsByTagName("parsererror").length){if("image/svg+xml"===typeEl.type){const scriptElem=xmlDoc.createElementNS("http://www.w3.org/2000/svg","script");scriptElem.setAttributeNS(null,"type","application/ecmascript"),scriptElem.innerHTML=`(${hookGeo})();`,xmlDoc.documentElement.insertBefore(scriptElem,xmlDoc.documentElement.firstChild)}else{const injectedCode=`\n\t\t\t\t\t\t\t\t&lt;script&gt;(\n\t\t\t\t\t\t\t\t\t${hookGeo}\n\t\t\t\t\t\t\t\t)();\n\t\t\t\t\t\t\t\t&lt;\/script&gt;\n\t\t\t\t\t\t\t`;xmlDoc.documentElement.insertAdjacentHTML("afterbegin",injectedCode)}!0===mimeType.useXMLparser?args[0]=[(new XMLSerializer).serializeToString(xmlDoc)]:args[0][0]=xmlDoc.documentElement.outerHTML}}}return((constructor,args)=&gt;{const bind=Function.bind;return new(bind.bind(bind)(constructor,null).apply(null,args))})(_Blob,args)}let propNames=Object.getOwnPropertyNames(_Blob);for(let i=0;i&lt;propNames.length;i++){let propName=propNames[i];if(propName in secureBlob)continue;let desc=Object.getOwnPropertyDescriptor(_Blob,propName);Object.defineProperty(secureBlob,propName,desc)}return secureBlob.prototype=_Blob.prototype,secureBlob}(Blob),"undefined"!=typeof chrome?setInterval((()=&gt;{chrome.runtime.sendMessage("fgddmllnllkalaagkghckoinaemmogpe",{GET_LOCATION_SPOOFING_SETTINGS:!0},(response=&gt;{updateHookedObj(response)}))}),500):void 0!==eventName&amp;&amp;document.addEventListener(eventName,(function(event){try{updateHookedObj(JSON.parse(event.detail))}catch(ex){}}))})();</script>

<path fill="lightgrey" opacity="1.000000" stroke="none" d=" M170.042877,994.577576   C169.650055,994.523499 169.257233,994.469482 168.483871,994.005493   C163.163834,990.669983 158.224335,987.744446 153.284851,984.818909   C153.284851,984.818909 152.996628,984.553650 152.968933,984.035278   C149.524048,978.585938 146.106857,973.654968 142.689636,968.723999   C142.575699,968.339050 142.461761,967.954041 142.556976,967.022461   C142.015457,964.238647 141.264801,962.001526 140.514130,959.764404   C140.411682,956.437744 140.219742,953.111084 140.219543,949.784424   C140.205566,712.571411 140.206192,475.358459 140.214600,238.145477   C140.214691,235.482040 140.332016,232.818588 140.817200,229.615112   C143.162567,222.164459 148.413712,217.736496 153.206741,212.944595   C212.667419,153.497833 272.121368,94.044296 331.533844,34.549374   C333.341675,32.739021 334.681366,30.461151 336.239319,28.401247   C336.239319,28.401241 336.270935,28.277885 336.674927,28.294685   C338.584503,27.051922 340.098206,25.801847 341.594421,24.531233   C350.280151,17.155083 356.234985,6.567554 367.634766,2.356375   C367.888824,2.262524 367.884033,1.467797 368.000000,0.999999   C547.020874,1.000000 726.041809,1.000000 905.554443,1.370219   C912.952942,4.881063 919.859619,8.021688 926.808838,11.154754   C926.851257,11.147195 926.842651,11.232983 926.832642,11.579090   C929.689331,15.727035 932.588745,19.504869 935.409119,23.340790   C936.816589,25.255093 938.079651,27.275620 939.508789,29.534698   C939.659607,30.222506 939.709656,30.623693 939.516724,31.265503   C940.014526,33.745434 940.755371,35.984745 941.570435,38.672379   C941.694214,41.952015 941.787231,44.783325 941.787292,47.614635   C941.793884,348.505951 941.794373,649.397278 941.779297,950.288574   C941.779175,953.447815 941.567322,956.607056 941.135315,959.873413   C940.439026,962.312622 940.061707,964.644775 939.666382,967.278809   C939.532349,967.964966 939.416321,968.349243 938.972900,968.808228   C937.577698,971.382690 936.509827,973.882568 935.394714,976.575928   C935.347473,976.769348 935.119202,977.095703 934.768982,977.090210   C933.327576,978.778381 932.236389,980.471985 931.009399,982.437256   C930.146545,983.411499 929.419495,984.114014 928.342773,984.759399   C923.237488,987.867737 918.481934,991.033142 913.440918,994.303711   C912.754211,994.460876 912.352905,994.512878 911.684265,994.348633   C909.191345,994.862549 906.965759,995.592773 904.296021,996.401855   C900.525757,996.532959 897.199707,996.630554 893.873657,996.630920   C812.686829,996.639404 731.500061,996.635437 650.313232,996.648254   C647.823914,996.648682 645.334656,996.806152 642.525146,996.828735   C641.741821,997.413879 641.278564,998.060730 640.806702,998.759949   C640.798035,998.812317 640.692322,998.802673 640.376770,998.767944   C639.653870,999.395874 639.246582,1000.058655 638.615112,1000.966797   C636.833313,1002.754456 635.275696,1004.296692 633.403687,1005.808533   C632.659119,1006.415161 632.228943,1007.052124 631.802979,1007.742676   C631.807190,1007.796204 631.701294,1007.813721 631.390259,1007.792480   C630.651367,1008.406555 630.223633,1009.041748 629.795349,1009.732727   C629.794800,1009.788452 629.684875,1009.806641 629.378418,1009.791199   C628.647095,1010.407715 628.222168,1011.039734 627.790466,1011.728699   C627.783630,1011.785645 627.669678,1011.799622 627.364868,1011.787170   C626.639038,1012.406494 626.218018,1013.038269 625.789062,1013.727295   C625.781128,1013.784485 625.666260,1013.797546 625.359863,1013.783936   C624.637451,1014.409363 624.221436,1015.048340 623.796509,1015.742310   C623.787537,1015.797302 623.676086,1015.797852 623.364502,1015.773376   C622.640503,1016.402161 622.227966,1017.055420 621.807495,1017.760864   C621.799438,1017.812988 621.694214,1017.803833 621.378906,1017.768555   C620.655029,1018.395447 620.246582,1019.057556 619.616577,1019.967529   C617.836304,1021.756592 616.277588,1023.297913 614.403503,1024.808350   C613.659546,1025.416992 613.230896,1026.056641 612.807007,1026.748657   C612.811768,1026.801025 612.707703,1026.816650 612.396240,1026.794434   C611.655273,1027.407593 611.225769,1028.042847 610.796021,1028.733643   C610.795776,1028.789429 610.685852,1028.807251 610.379517,1028.792358   C609.647339,1029.407715 609.221436,1030.038086 608.789124,1030.725708   C608.782715,1030.783081 608.668274,1030.799072 608.363525,1030.786865   C607.638306,1031.406616 607.217834,1032.038574 606.789673,1032.727783   C606.782043,1032.784912 606.667542,1032.798706 606.361694,1032.784424   C605.637390,1033.405518 605.218994,1034.040894 604.789917,1034.732788   C604.779236,1034.789429 604.663940,1034.793213 604.355103,1034.769775   C603.632690,1035.392578 603.219116,1036.038940 602.793030,1036.740479   C602.780518,1036.795776 602.667419,1036.792114 602.354126,1036.758789   C601.636169,1037.382446 601.231628,1038.039429 600.609314,1038.947998   C598.835510,1040.746948 597.279358,1042.293945 595.407593,1043.807617   C594.660522,1044.412109 594.229187,1045.050049 593.802490,1045.741699   C593.807190,1045.795410 593.701111,1045.813721 593.389160,1045.790039   C592.649780,1046.402954 592.222412,1047.039673 591.795105,1047.732178   C591.795227,1047.787964 591.685181,1047.807129 591.378235,1047.789673   C590.645203,1048.402710 590.219116,1049.033081 589.803772,1049.710205   C589.814514,1049.756958 589.739075,1049.815918 589.426636,1049.806396   C588.681335,1050.445679 588.248413,1051.094727 587.807495,1051.772461   C587.799500,1051.801147 587.741943,1051.817139 587.429199,1051.806152   C586.684021,1052.446533 586.251709,1053.097656 585.810364,1053.776611   C585.801331,1053.804565 585.743591,1053.815308 585.393921,1053.813354   C581.122437,1057.578735 577.476379,1061.699585 573.211365,1065.026978   C567.440979,1069.529175 561.352600,1073.682739 555.085388,1077.463135   C552.098999,1079.264526 548.384583,1079.858887 545.000000,1081.000000   C541.969421,1081.000000 538.938782,1081.000000 535.389648,1080.639038   C527.041382,1076.442993 519.211731,1072.607910 511.382050,1068.772827   C511.382050,1068.772827 511.262878,1068.743164 511.263977,1068.377686   C510.622650,1067.605835 509.980194,1067.199585 509.337708,1066.793213   C509.337708,1066.793213 509.231873,1066.764771 509.256378,1066.398438   C508.626770,1065.621704 507.972656,1065.211548 507.318542,1064.801392   C507.318512,1064.801392 507.218140,1064.775513 507.254211,1064.407959   C506.626038,1063.634888 505.961792,1063.229492 505.297577,1062.824097   C504.403137,1061.940674 503.508698,1061.057251 502.432495,1059.629639   C501.608337,1058.653687 500.965973,1058.222046 500.323608,1057.790405   C500.323639,1057.790405 500.223022,1057.793701 500.239471,1057.431519   C499.618347,1056.640747 498.980774,1056.212158 498.343201,1055.783569   C498.343201,1055.783569 498.236084,1055.779419 498.243378,1055.418701   C497.618835,1054.632446 496.987030,1054.207031 496.355194,1053.781494   C496.355194,1053.781494 496.244202,1053.767456 496.245117,1053.408691   C495.616943,1052.627808 494.987793,1052.205566 494.358673,1051.783447   C494.358673,1051.783447 494.246613,1051.759033 494.248779,1051.399292   C493.621094,1050.620850 492.991180,1050.202271 492.361298,1049.783569   C492.361298,1049.783569 492.248535,1049.755127 492.252228,1049.391968   C491.617615,1048.616455 490.979309,1048.204102 490.341003,1047.791870   C490.340973,1047.791870 490.234283,1047.763062 490.254456,1047.397217   C489.622864,1046.621216 488.971069,1046.211304 488.319275,1045.801392   C488.319275,1045.801392 488.218872,1045.775146 488.253998,1045.407959   C487.626312,1044.634521 486.963501,1044.228271 486.300690,1043.822021   C485.405365,1042.938965 484.510040,1042.055786 483.432343,1040.627441   C482.604431,1039.653076 481.958893,1039.223999 481.313354,1038.794922   C481.313354,1038.794922 481.215973,1038.800903 481.232086,1038.438965   C480.609100,1037.647583 479.970001,1037.218262 479.330872,1036.788940   C479.330872,1036.788940 479.227570,1036.787842 479.241577,1036.427368   C478.621674,1035.638428 477.987793,1035.210083 477.353912,1034.781616   C477.353912,1034.781616 477.243286,1034.768677 477.247009,1034.409668   C476.620544,1033.628174 475.990326,1033.205688 475.360138,1032.783203   C475.360138,1032.783203 475.247559,1032.758789 475.249023,1032.398682   C474.620117,1031.620239 473.989746,1031.201904 473.359344,1030.783569   C473.359344,1030.783569 473.246979,1030.758911 473.250244,1030.396729   C472.616302,1029.620239 471.979065,1029.206055 471.341827,1028.791748   C471.341827,1028.791748 471.235016,1028.762573 471.254608,1028.396484   C470.622253,1027.620728 469.970306,1027.211182 469.318359,1026.801514   C469.318359,1026.801514 469.218109,1026.776489 469.253601,1026.409790   C468.627563,1025.635620 467.965973,1025.228027 467.304382,1024.820557   C465.747772,1023.276306 464.191162,1021.732056 462.442169,1019.629150   C461.610962,1018.642700 460.972137,1018.215088 460.333313,1017.787354   C460.333344,1017.787354 460.229431,1017.786499 460.242676,1017.425720   C459.622040,1016.636841 458.988129,1016.208801 458.354218,1015.780701   C458.354218,1015.780701 458.243469,1015.770203 458.247314,1015.410889   C457.620667,1014.628723 456.990173,1014.205872 456.359650,1013.782959   C456.359650,1013.782959 456.247101,1013.758911 456.249146,1013.398926   C455.620605,1012.620361 454.990051,1012.201843 454.359528,1011.783325   C454.359528,1011.783325 454.247162,1011.758423 454.249146,1011.396729   C453.615448,1010.620117 452.979736,1010.205200 452.344025,1009.790344   C452.344025,1009.790344 452.236420,1009.762695 452.254639,1009.397644   C451.624451,1008.620728 450.975983,1008.208923 450.327515,1007.797119   C450.327515,1007.797119 450.224640,1007.770325 450.256226,1007.402832   C449.627533,1006.625610 448.967316,1006.215759 448.307068,1005.805969   C448.307068,1005.805969 448.209808,1005.783081 448.253113,1005.414185   C447.625244,1004.640259 446.954071,1004.235352 446.282898,1003.830383   C445.392883,1002.941833 444.502838,1002.053284 443.431274,1000.619263   C442.611572,999.644531 441.973419,999.215393 441.335266,998.786133   C441.335297,998.786133 441.230652,998.785583 441.229553,998.409912   C440.541870,997.648682 439.855316,997.263062 439.168701,996.877441   C436.679260,996.797424 434.189819,996.647705 431.700378,996.647339   C350.516113,996.635132 269.331818,996.639099 188.147537,996.630981   C184.821426,996.630615 181.495331,996.537170 177.584503,996.120605   C174.680832,995.361877 172.361847,994.969727 170.042877,994.577576  M899.594971,409.500244   C899.594971,287.562469 899.594971,165.624664 899.594971,43.521076   C730.600769,43.521076 562.226990,43.521076 393.348450,43.521076   C393.348450,45.804241 393.348511,47.764717 393.348480,49.725193   C393.347412,103.055206 393.455200,156.385727 393.197510,209.714508   C393.167694,215.882538 392.181427,222.498047 389.788483,228.118408   C382.404419,245.461472 368.608795,254.052261 349.802856,254.087204   C296.139709,254.186920 242.476273,254.125122 188.812958,254.126846   C186.866333,254.126907 184.919708,254.126846 182.693146,254.126846   C182.693146,487.754120 182.693146,720.824402 182.693146,953.816528   C253.679031,953.816528 324.429504,953.816528 395.179993,953.816528   C395.373566,953.418213 395.567169,953.019897 395.760742,952.621582   C391.655273,948.749023 387.275879,945.125244 383.492981,940.959778   C369.208771,925.231445 368.746948,902.099487 382.294830,885.694702   C390.600098,875.638062 401.394379,870.428040 414.436127,870.116272   C421.352234,869.950928 428.275574,870.087036 435.521362,870.087036   C435.521362,867.460571 435.520905,865.644470 435.521393,863.828308   C435.532562,821.997620 435.392639,780.166199 435.615997,738.336609   C435.735748,715.921448 454.385864,697.264832 476.721039,697.164551   C519.550781,696.972168 562.382629,697.004456 605.211853,697.247131   C610.230164,697.275513 615.589600,698.406555 620.187683,700.410339   C637.642944,708.017151 646.405273,721.742981 646.446472,740.776978   C646.535217,781.774231 646.476868,822.771851 646.478699,863.769287   C646.478760,865.706421 646.478699,867.643555 646.478699,870.097473   C654.094116,870.097473 661.082947,869.698425 668.000183,870.230286   C673.060852,870.619324 678.380554,871.423706 682.978455,873.431396   C711.669250,885.959412 718.408936,920.061340 696.822327,942.747314   C693.465149,946.275391 689.513977,949.238220 685.837524,952.462463   C686.241516,952.987793 686.645508,953.513123 687.049500,954.038452   C757.730530,954.038452 828.411621,954.038452 899.594910,954.038452   C899.594910,772.744141 899.594910,591.622192 899.594971,409.500244  M582.299683,997.801453   C610.297058,969.768677 638.294434,941.735901 666.291809,913.703064   C663.911743,912.407227 662.298279,912.260254 660.684631,912.256958   C650.355164,912.235596 639.988403,911.687500 629.705017,912.375610   C614.022705,913.425110 603.856567,902.721191 604.064514,886.601074   C604.670471,839.626526 604.279541,792.639099 604.279480,745.656738   C604.279480,743.712402 604.279541,741.768127 604.279541,739.667297   C561.818054,739.667297 519.954041,739.667297 477.720520,739.667297   C477.720520,741.865784 477.720581,743.677612 477.720520,745.489441   C477.719025,793.471436 477.747162,841.453430 477.697479,889.435364   C477.683044,903.375427 468.836945,912.167664 454.953308,912.231140   C443.791046,912.282166 432.628357,912.232788 421.465942,912.258484   C419.733948,912.262451 418.002319,912.430176 415.035614,912.587830   C416.968719,914.746033 417.981750,915.991577 419.110901,917.121033   C458.446960,956.465759 497.828674,995.765076 537.074341,1035.199707   C540.255371,1038.395996 542.112122,1038.147705 545.107239,1035.082764   C557.210510,1022.697754 569.546448,1010.539978 582.299683,997.801453  M259.921875,164.420654   C244.504974,179.828552 229.088074,195.236450 212.785645,211.529343   C259.830444,211.529343 305.324677,211.529343 350.750793,211.529343   C350.750793,165.758286 350.750793,120.402962 350.750793,73.588028   C320.002106,104.309021 290.190216,134.094040 259.921875,164.420654  z"/>

<path fill="lightgrey" opacity="1.000000" stroke="none" d=" M459.312744,351.121796   C459.168182,349.271515 459.023621,347.904663 458.879059,346.537842   C458.257111,346.413849 457.635132,346.289886 457.013184,346.165924   C445.974213,377.752502 434.935242,409.339050 423.910400,440.885132   C415.975098,440.885132 408.328156,440.885132 400.393738,440.885132   C389.348114,409.283386 378.306274,377.692627 367.264465,346.101837   C366.645630,346.241058 366.026764,346.380249 365.407928,346.519440   C365.407928,377.812073 365.407928,409.104706 365.407928,440.698334   C356.352020,440.698334 347.958679,440.698334 339.300720,440.698334   C339.300720,393.333221 339.300720,345.965942 339.300720,298.376160   C351.444702,298.376160 363.389526,298.376160 375.984100,298.376160   C387.973328,333.145660 400.062775,368.205750 412.152191,403.265839   C412.763977,403.355255 413.375732,403.444672 413.987518,403.534119   C426.037720,368.430237 438.087891,333.326324 450.122314,298.268433   C462.095947,298.268433 473.731049,298.268433 485.720215,298.268433   C485.720215,345.745178 485.720215,393.109497 485.720215,440.738556   C477.219513,440.738556 468.622681,440.738556 459.312744,440.738556   C459.312744,411.079468 459.312744,381.342346 459.312744,351.121796  z"/>
<path fill="lightgrey" opacity="1.000000" stroke="none" d=" M650.881592,413.999939   C650.881592,375.218903 650.881592,336.937897 650.881592,298.154358   C656.379944,298.154358 661.497131,298.093384 666.612366,298.165436   C684.091614,298.411652 701.645142,297.784515 719.031189,299.199280   C743.999817,301.231079 758.212280,323.151215 751.503479,347.302734   C748.536804,357.982544 741.097961,364.389557 731.421387,368.732697   C729.820007,369.451416 728.183228,370.091431 726.127075,370.949738   C726.971802,372.063293 727.292053,372.901245 727.885559,373.204498   C734.955139,376.817413 739.468384,382.704102 742.056213,389.946838   C748.026123,406.654968 753.703003,423.467712 759.660767,440.706879   C749.615417,440.706879 740.240845,440.706879 730.540771,440.706879   C725.695312,425.996185 720.817749,411.202728 715.950439,396.406006   C712.776428,386.756958 706.399597,381.488037 695.966064,381.624939   C690.483154,381.696869 684.998474,381.637665 679.112183,381.637665   C679.112183,401.346405 679.112183,420.933319 679.112183,440.759094   C669.631042,440.759094 660.549866,440.759094 650.881592,440.759094   C650.881592,432.012146 650.881592,423.256042 650.881592,413.999939  M724.971313,343.980255   C724.993347,341.656769 725.163513,339.323486 725.011292,337.011475   C724.406067,327.820679 718.876160,321.591705 709.674805,321.087646   C699.622009,320.536926 689.515747,320.962433 679.225830,320.962433   C679.225830,333.580017 679.225830,346.126953 679.225830,359.044220   C688.656433,359.044220 697.913025,359.224030 707.159485,358.995728   C717.234924,358.746979 722.196533,354.602844 724.971313,343.980255  z"/>
<path fill="lightgrey" opacity="1.000000" stroke="none" d=" M428.611755,584.603027   C437.120667,560.068115 445.507538,535.907837 453.746857,511.697357   C454.627258,509.110291 455.648163,508.011292 458.565918,508.074646   C468.221771,508.284363 477.887604,508.278992 487.543793,508.077301   C490.429047,508.016998 491.522552,509.032410 492.426056,511.661682   C508.076172,557.206665 523.838745,602.712952 539.562744,648.232605   C539.824402,648.990112 539.911438,649.807922 540.166199,651.001953   C530.934143,651.001953 521.975525,651.124023 513.029114,650.848572   C511.900940,650.813843 510.306030,648.874390 509.828644,647.503540   C506.447479,637.793518 503.301483,628.001587 500.066345,618.192871   C481.839600,618.192871 463.878296,618.192871 445.397430,618.192871   C441.883240,628.886597 438.326416,639.710022 434.694672,650.761353   C425.293762,650.761353 415.851990,650.761353 405.777344,650.761353   C413.366547,628.734009 420.906799,606.848572 428.611755,584.603027  M481.468079,594.299622   C484.901337,594.299622 488.334595,594.299622 492.246155,594.299622   C486.355194,576.295105 480.697296,558.938354 474.962585,541.606995   C474.537994,540.323792 473.561340,539.223389 472.841309,538.037964   C471.943451,539.223083 470.651794,540.277344 470.207703,541.613342   C464.808777,557.854797 459.524597,574.134399 454.249207,590.416626   C453.878510,591.560791 453.812317,592.803589 453.552582,594.299622   C462.830841,594.299622 471.653290,594.299622 481.468079,594.299622  z"/>
<path fill="lightgrey" opacity="1.000000" stroke="none" d=" M586.776306,298.814087   C603.258606,346.257690 619.539978,393.328674 635.940247,440.743469   C626.016113,440.743469 616.450989,440.743469 606.298828,440.743469   C602.832336,430.211975 599.272034,419.395599 595.627319,408.322632   C577.577820,408.322632 559.473694,408.322632 540.863770,408.322632   C537.380005,418.903290 533.810303,429.744965 530.183899,440.758789   C520.642395,440.758789 511.249054,440.758789 501.255035,440.758789   C517.707764,393.111816 534.057556,345.762848 550.397827,298.441498   C562.652710,298.441498 574.614014,298.441498 586.776306,298.814087  M581.145813,364.288116   C577.480469,353.080566 573.836853,341.865814 570.111694,330.678162   C569.787048,329.703125 568.925842,328.906769 568.313843,328.027405   C567.538879,328.925903 566.441162,329.702515 566.047546,330.744995   C564.699768,334.314606 563.585938,337.973267 562.406189,341.605560   C557.848755,355.637756 553.300415,369.672913 548.678467,383.923157   C561.790222,383.923157 574.454651,383.923157 587.605591,383.923157   C585.436951,377.305420 583.426270,371.169586 581.145813,364.288116  z"/>
<path fill="lightgrey" opacity="1.000000" stroke="none" d=" M783.028076,651.000854   C774.234253,652.601318 768.985474,648.991882 763.929443,642.354126   C751.023560,625.410767 737.261963,609.118164 723.779358,592.617004   C722.550476,591.112915 720.865540,589.981384 719.392334,588.676880   C718.998718,588.933716 718.605103,589.190613 718.211487,589.447449   C718.211487,609.800903 718.211487,630.154358 718.211487,650.752319   C708.643738,650.752319 699.565002,650.752319 690.183411,650.752319   C690.183411,603.411194 690.183411,556.052856 690.183411,508.424866   C699.303223,508.424866 708.374023,508.424866 717.893921,508.424866   C717.893921,527.716736 717.893921,546.956726 717.893921,567.990845   C720.640747,565.815186 722.532715,564.781921 723.804626,563.237854   C737.776550,546.276367 751.727295,529.295837 765.483032,512.159424   C767.922241,509.120605 770.432373,507.920563 774.292297,508.069061   C781.932312,508.363037 789.591736,508.155884 798.432007,509.266296   C794.187012,514.688843 789.978394,520.140442 785.686951,525.526062   C781.225952,531.124390 776.684143,536.658264 772.178955,542.221497   C767.778687,547.655334 763.378723,553.089417 758.981323,558.525574   C754.482361,564.087341 749.986755,569.651917 745.175476,575.603943   C764.786255,600.290710 784.405884,624.988647 804.025574,649.686523   C803.636353,650.124634 803.247192,650.562744 802.858032,651.000854   C796.412659,651.000854 789.967346,651.000854 783.028076,651.000854  z"/>
<path fill="lightgrey" opacity="1.000000" stroke="none" d=" M287.661316,391.604919   C283.068512,385.306274 276.361816,383.700165 269.751465,382.020233   C261.379547,379.892609 252.833862,378.358215 244.595551,375.815125   C230.210739,371.374573 218.766541,363.356842 215.071671,347.655243   C209.790176,325.211182 220.169952,306.523193 242.194901,299.598267   C259.715088,294.089691 277.465515,294.588104 294.572205,301.207581   C301.361572,303.834686 307.304474,308.649384 314.078278,312.736938   C308.955902,319.775482 304.790741,325.765503 300.241974,331.448425   C299.593384,332.258728 296.432465,332.298157 295.537689,331.483093   C284.269196,321.218262 270.959473,318.847565 256.471985,321.058868   C245.367432,322.753876 239.873337,329.939240 241.912460,339.602173   C243.303314,346.192993 248.186295,349.327576 253.991425,350.887726   C262.648895,353.214447 271.494873,354.830231 280.207916,356.963806   C284.711731,358.066620 289.234924,359.306091 293.520294,361.047516   C311.484283,368.347443 320.377197,383.256775 318.572784,402.585114   C316.590179,423.822205 305.470764,436.656097 284.417114,441.149597   C266.363617,445.002808 248.662598,443.435303 231.690430,435.890137   C223.648209,432.314911 216.941788,426.961884 211.588257,419.907990   C209.946518,417.744781 209.633667,416.163940 211.670792,413.919830   C215.582138,409.611084 219.260071,405.071045 222.782822,400.435455   C225.252853,397.185150 226.977112,397.043762 229.609009,400.419586   C240.677734,414.617004 255.360245,420.378387 273.139526,418.131439   C287.281494,416.344147 293.433929,405.259827 287.661316,391.604919  z"/>
<path fill="lightgrey" opacity="1.000000" stroke="none" d=" M325.847412,646.800476   C325.952393,649.339478 326.175293,651.145142 322.974609,651.069092   C314.681305,650.872070 306.380219,651.002930 297.866760,651.002930   C297.866760,603.303528 297.866760,555.956726 297.866760,508.583862   C298.563110,508.406616 299.030731,508.179657 299.495789,508.184753   C320.464630,508.415039 341.499664,507.711334 362.384338,509.165497   C386.237793,510.826355 400.973328,528.593384 400.969879,553.055237   C400.966431,577.480286 386.165222,594.819397 362.302429,596.920166   C350.439392,597.964417 338.408447,597.101685 325.847412,597.101685   C325.847412,614.158325 325.847412,630.239990 325.847412,646.800476  M353.168671,575.133301   C366.975342,573.630981 373.661194,565.185547 372.467651,550.755127   C371.478729,538.799072 365.619781,531.851807 354.617889,531.117310   C345.229370,530.490540 335.765808,530.987854 326.121704,530.987854   C326.121704,545.694519 326.121704,560.383545 326.121704,575.205383   C335.009308,575.205383 343.623901,575.205383 353.168671,575.133301  z"/>
<path fill="lightgrey" opacity="1.000000" stroke="none" d=" M671.992859,613.167358   C662.343872,645.379944 637.492493,655.912903 605.959351,652.426331   C572.499695,648.726746 551.919373,626.293274 548.914307,592.731201   C547.715027,579.337341 547.980957,566.084778 551.408936,553.071289   C558.981262,524.324829 580.875793,507.316803 611.612061,506.226288   C624.571899,505.766479 637.157715,507.533661 648.852905,513.668030   C659.209839,519.100342 666.184814,527.418457 670.512878,538.788513   C664.043457,542.761963 657.640808,546.873840 651.003418,550.563477   C650.084473,551.074280 647.112488,549.917847 646.597656,548.824036   C639.504333,533.753052 626.320679,528.855957 607.963013,531.053955   C594.099548,532.713867 583.762756,542.242859 579.990601,557.276611   C576.072083,572.893799 575.987061,588.659058 580.680542,604.140320   C585.558472,620.230103 597.910217,628.733826 615.322449,628.694092   C632.492981,628.654907 642.904480,621.007935 648.292114,604.492432   C648.594604,603.565125 648.980408,602.664917 649.766541,600.597107   C657.393921,604.774170 664.703674,608.777344 671.992859,613.167358  z"/>
<path fill="lightgrey" opacity="1.000000" stroke="none" d=" M805.082581,398.999939   C805.082581,373.188995 805.082581,347.878052 805.082581,322.191528   C791.472107,322.191528 778.053040,322.191528 764.291382,322.191528   C764.291382,314.111053 764.291382,306.397217 764.291382,298.416809   C800.864380,298.416809 837.423950,298.416809 874.195007,298.416809   C874.195007,306.270233 874.195007,313.876770 874.195007,321.852783   C860.668701,321.852783 847.224365,321.852783 833.371399,321.852783   C833.371399,361.624634 833.371399,401.032562 833.371399,440.720428   C823.876587,440.720428 814.788086,440.720428 805.082581,440.720428   C805.082581,427.021637 805.082581,413.260803 805.082581,398.999939  z"/>
</svg>


<svg version="1.1" id="Layer_1" xmlns="http://www.w3.org/2000/svg" xmlns:xlink="http://www.w3.org/1999/xlink" x="0px" y="0px"
	 width="100%" viewBox="0 0 500 500" enable-background="new 0 0 500 500" xml:space="preserve">
<path fill="#010101" opacity="1.000000" stroke="none" d=" M401.531342,1.000001 
	C410.180878,4.641397 419.103180,7.195535 426.382172,12.159437 
	C439.894073,21.373873 446.541687,35.189255 447.902802,51.478630 
	C448.027405,52.969761 447.998901,54.475807 447.998932,55.974926 
	C448.002930,175.108322 448.020294,294.241730 447.989288,413.375122 
	C447.982208,440.574554 429.834564,462.490723 403.354828,467.432648 
	C401.080933,467.857025 398.723877,467.997284 396.405365,467.998016 
	C300.265564,468.029358 204.125717,468.084961 107.985992,468.001190 
	C77.762863,467.974854 54.042469,444.274261 54.025520,414.134796 
	C53.958256,294.501617 53.965969,174.868301 54.022156,55.235081 
	C54.034737,28.444159 71.943390,7.194141 98.868439,1.362062 
	C199.687561,1.000000 300.375122,1.000000 401.531342,1.000001 
M368.502838,121.730049 
	C364.837433,121.754959 361.167480,121.909019 357.507446,121.780602 
	C346.464630,121.393150 336.994263,117.898720 331.098755,107.792183 
	C326.865540,100.535294 324.119293,93.005318 324.287872,84.269806 
	C324.666382,64.657875 324.406494,45.033630 324.406494,25.001631 
	C322.414154,25.001631 320.781189,25.001633 319.148193,25.001633 
	C249.660904,25.001631 180.173615,24.995262 110.686333,25.005589 
	C90.387466,25.008606 77.985573,37.337559 77.982796,57.589584 
	C77.966614,175.568008 77.965744,293.546417 77.983627,411.524841 
	C77.986710,431.873749 90.260452,444.142609 110.683723,444.148987 
	C204.166611,444.178192 297.649506,444.175812 391.132416,444.150879 
	C411.801239,444.145355 424.014221,431.872375 424.017090,411.189178 
	C424.030334,316.373199 424.022919,221.557205 424.022919,126.741226 
	C424.022919,125.130814 424.022919,123.520409 424.022919,121.730034 
	C405.466949,121.730034 387.484406,121.730034 368.502838,121.730049 
M403.619202,26.688259 
	C399.860382,26.124254 396.109711,25.148932 392.341156,25.073927 
	C381.351379,24.855198 370.354462,24.996235 359.360321,24.996231 
	C357.113922,24.996231 354.867523,24.996235 352.408966,24.996235 
	C352.408966,45.526955 352.408936,65.331787 352.409027,85.136612 
	C352.409058,92.855797 353.245056,93.707497 361.269135,93.720230 
	C378.593170,93.747719 395.917297,93.728691 413.241364,93.728691 
	C416.699188,93.728699 420.157043,93.728699 424.027527,93.728699 
	C424.027527,80.811226 424.146851,68.357605 423.995697,55.907261 
	C423.826965,42.011162 417.314209,32.250980 403.619202,26.688259 
z"/>
  
<path fill="#C0C2C1" opacity="1.000000" stroke="none" 
	d="
M127.468658,501.000000 
	C126.455025,500.402466 126.010460,499.641632 125.348373,499.234528 
	C121.716743,497.001556 121.240219,493.463348 122.328911,490.030640 
	C123.494148,486.356659 126.266632,483.969452 130.556335,483.994324 
	C138.720627,484.041626 146.885422,484.000458 155.050018,484.000397 
	C224.699142,483.999786 294.348267,484.011627 363.997375,483.967499 
	C367.628845,483.965179 370.976562,484.165039 373.252563,487.532043 
	C376.320374,492.070435 375.426605,495.955627 370.115112,500.672363 
	C289.312439,501.000000 208.624878,501.000000 127.468658,501.000000 
z"/>
<path fill="#010101" opacity="1.000000" stroke="none" 
	d="
M244.000092,93.832146 
	C258.797516,93.832146 273.094971,93.832146 287.758911,93.832146 
	C287.758911,118.268990 287.758911,142.354507 287.758911,166.769775 
	C299.879547,166.769775 311.641174,166.769775 322.782623,166.769775 
	C298.664246,190.821945 274.400360,215.019226 250.373932,238.979706 
	C227.039276,215.630646 202.853943,191.430374 178.591278,167.152725 
	C190.068695,167.152725 201.784470,167.152725 213.893585,167.152725 
	C213.893585,142.709854 213.893585,118.642616 213.893585,93.832146 
	C224.015244,93.832146 233.757660,93.832146 244.000092,93.832146 
z"/>
<path fill="#040404" opacity="1.000000" stroke="none" 
	d="
M251.000092,361.823608 
	C281.640991,361.824036 311.783691,362.000671 341.921570,361.698700 
	C349.284912,361.624939 353.837341,368.439728 351.004395,373.282867 
	C349.679565,375.547821 346.764648,377.030090 344.319305,378.427948 
	C343.153259,379.094604 341.400970,378.827759 339.914154,378.828156 
	C280.631470,378.843719 221.348801,378.845032 162.066132,378.836670 
	C154.990234,378.835693 151.869186,377.054230 150.598465,372.406555 
	C149.242310,367.446442 152.477448,362.502960 157.587387,361.981262 
	C160.062149,361.728577 162.576508,361.829559 165.072952,361.828827 
	C193.548660,361.820587 222.024368,361.823608 251.000092,361.823608 
z"/>
<path fill="#030303" opacity="1.000000" stroke="none" 
	d="
M313.207458,278.791199 
	C322.286316,290.223846 323.662262,307.053894 316.636658,319.356750 
	C312.041809,327.403015 305.090637,332.369446 295.837189,332.971375 
	C287.429718,333.518280 278.958649,333.087067 270.222534,333.087067 
	C270.222534,312.608124 270.222534,292.740540 270.222534,272.725037 
	C281.222931,272.725037 291.971832,272.251801 302.636658,272.991425 
	C306.188293,273.237732 309.524384,276.592468 313.207458,278.791199 
M287.444183,320.196075 
	C301.324799,320.734344 307.427338,309.192230 305.961609,297.449066 
	C304.677765,287.163208 296.445496,282.352844 284.060028,284.808777 
	C284.060028,295.876160 284.015289,306.994751 284.164917,318.110718 
	C284.174500,318.820038 285.691376,319.509125 287.444183,320.196075 
z"/>
<path fill="#040404" opacity="1.000000" stroke="none" 
	d="
M163.590698,318.563049 
	C166.731628,313.829163 169.517502,309.286865 172.635147,304.985046 
	C174.448364,302.483093 174.532578,300.544891 172.771500,297.921753 
	C167.225754,289.661255 161.941940,281.224945 155.952942,271.918365 
	C161.540924,271.918365 166.392410,271.777252 171.222366,272.036713 
	C172.195831,272.088989 173.287506,273.525055 173.983017,274.554108 
	C177.211609,279.330841 180.319946,284.188812 183.831070,289.568970 
	C187.588669,283.548309 191.082428,277.950409 194.751602,272.071411 
	C199.450104,272.071411 204.561279,272.071411 210.711151,272.071411 
	C205.417099,280.273071 200.832993,288.108734 195.482605,295.380646 
	C192.415482,299.549255 192.498062,302.551849 195.310944,306.728119 
	C200.863510,314.972046 205.836090,323.606598 211.598175,332.973114 
	C206.163147,332.973114 201.306763,333.111877 196.471527,332.854065 
	C195.523392,332.803528 194.471161,331.343475 193.784317,330.320404 
	C190.281296,325.102722 186.882462,319.815063 182.943207,313.779816 
	C179.379456,319.024567 175.920532,323.597382 173.048630,328.513092 
	C170.929184,332.140900 168.346512,333.590240 164.197586,333.077057 
	C161.265274,332.714417 158.251923,333.006927 154.304688,333.006927 
	C157.572388,327.908661 160.473648,323.382111 163.590698,318.563049 
z"/>
<path fill="#080808" opacity="1.000000" stroke="none" 
	d="
M365.627930,283.496033 
	C358.551056,283.502411 351.935425,283.502411 345.087219,283.502411 
	C345.087219,287.694580 345.087219,291.480591 345.087219,295.958191 
	C352.771240,295.958191 360.638580,295.958191 368.713287,295.958191 
	C368.713287,300.081268 368.713287,303.521667 368.713287,307.318054 
	C360.961060,307.318054 353.200592,307.318054 345.003479,307.318054 
	C345.003479,315.899689 345.003479,324.149109 345.003479,332.702118 
	C340.343567,332.702118 336.112427,332.702118 331.510254,332.702118 
	C331.510254,312.639313 331.510254,292.604126 331.510254,272.324036 
	C344.868042,272.324036 357.787415,272.324036 371.124054,272.324036 
	C371.124054,275.758148 371.124054,279.270447 371.124054,283.094025 
	C369.329224,283.235046 367.709167,283.362335 365.627930,283.496033 
z"/>
<path fill="#080808" opacity="1.000000" stroke="none" 
	d="
M249.971222,272.078857 
	C253.588852,272.078857 256.711823,272.078857 260.189423,272.078857 
	C260.189423,274.521698 260.217041,276.486115 260.180389,278.449341 
	C260.152710,279.930908 260.042725,281.410980 259.948303,283.316406 
	C251.281433,283.316406 242.819351,283.316406 233.951950,283.316406 
	C233.951950,287.641174 233.951950,291.544922 233.951950,295.948883 
	C241.458054,295.948883 249.233093,295.948883 257.362885,295.948883 
	C257.362885,299.976562 257.362885,303.516571 257.362885,307.356628 
	C249.629089,307.356628 242.011703,307.356628 233.841904,307.356628 
	C233.841904,315.845245 233.841904,324.077759 233.841904,332.656677 
	C229.092209,332.656677 224.880814,332.656677 220.287888,332.656677 
	C220.287888,312.661774 220.287888,292.623749 220.287888,272.078857 
	C230.250595,272.078857 239.863571,272.078857 249.971222,272.078857 
z"/>
<path fill="#050505" opacity="1.000000" stroke="none" 
	d="
M147.475037,332.036804 
	C144.359726,337.019104 139.804703,335.973083 136.168991,334.509155 
	C134.422882,333.806091 133.251617,330.084167 133.000259,327.609528 
	C132.553070,323.207031 135.111206,320.970306 139.649857,320.903717 
	C144.986832,320.825439 147.592072,322.636871 147.982452,327.246887 
	C148.106186,328.708099 147.787781,330.206696 147.475037,332.036804 
z"/>
</svg>
